<?xml version="1.0" encoding="utf-8" standalone="no"?>
<!DOCTYPE svg PUBLIC "-//W3C//DTD SVG 1.1//EN"
  "http://www.w3.org/Graphics/SVG/1.1/DTD/svg11.dtd">
<svg xmlns:xlink="http://www.w3.org/1999/xlink" width="864pt" height="486pt" viewBox="0 0 864 486" xmlns="http://www.w3.org/2000/svg" version="1.1">
 <metadata>
  <rdf:RDF xmlns:dc="http://purl.org/dc/elements/1.1/" xmlns:cc="http://creativecommons.org/ns#" xmlns:rdf="http://www.w3.org/1999/02/22-rdf-syntax-ns#">
   <cc:Work>
    <dc:type rdf:resource="http://purl.org/dc/dcmitype/StillImage"/>
    <dc:date>2022-09-07T22:10:46.901658</dc:date>
    <dc:format>image/svg+xml</dc:format>
    <dc:creator>
     <cc:Agent>
      <dc:title>Matplotlib v3.5.3, https://matplotlib.org/</dc:title>
     </cc:Agent>
    </dc:creator>
   </cc:Work>
  </rdf:RDF>
 </metadata>
 <defs>
  <style type="text/css">*{stroke-linejoin: round; stroke-linecap: butt}</style>
 </defs>
 <g id="figure_1">
  <g id="patch_1">
   <path d="M 0 486 
L 864 486 
L 864 0 
L 0 0 
z
" style="fill: #ffffff"/>
  </g>
  <g id="axes_1">
   <g id="patch_2">
    <path d="M 79.97 380.188276 
L 853.2 380.188276 
L 853.2 39.055 
L 79.97 39.055 
z
" style="fill: #ffffff"/>
   </g>
   <g id="matplotlib.axis_1">
    <g id="xtick_1">
     <g id="line2d_1">
      <defs>
       <path id="m46c7cc7159" d="M 0 0 
L 0 3.5 
" style="stroke: #000000; stroke-width: 0.8"/>
      </defs>
      <g>
       <use xlink:href="#m46c7cc7159" x="115.116818" y="392.188276" style="stroke: #000000; stroke-width: 0.8"/>
      </g>
     </g>
     <g id="text_1">
      <!-- 9月30日 7:00 -->
      <g transform="translate(73.535625 444.671815)rotate(-45)scale(0.1 -0.1)">
       <defs>
        <path id="DejaVuSans-39" d="M 703 97 
L 703 672 
Q 941 559 1184 500 
Q 1428 441 1663 441 
Q 2288 441 2617 861 
Q 2947 1281 2994 2138 
Q 2813 1869 2534 1725 
Q 2256 1581 1919 1581 
Q 1219 1581 811 2004 
Q 403 2428 403 3163 
Q 403 3881 828 4315 
Q 1253 4750 1959 4750 
Q 2769 4750 3195 4129 
Q 3622 3509 3622 2328 
Q 3622 1225 3098 567 
Q 2575 -91 1691 -91 
Q 1453 -91 1209 -44 
Q 966 3 703 97 
z
M 1959 2075 
Q 2384 2075 2632 2365 
Q 2881 2656 2881 3163 
Q 2881 3666 2632 3958 
Q 2384 4250 1959 4250 
Q 1534 4250 1286 3958 
Q 1038 3666 1038 3163 
Q 1038 2656 1286 2365 
Q 1534 2075 1959 2075 
z
" transform="scale(0.015625)"/>
        <path id="DejaVuSans-6708" d="M 319 -1131 
L 319 4513 
L 3519 4513 
L 3519 -1131 
L 319 -1131 
z
M 678 -775 
L 3163 -775 
L 3163 4153 
L 678 4153 
L 678 -775 
z
" transform="scale(0.015625)"/>
        <path id="DejaVuSans-33" d="M 2597 2516 
Q 3050 2419 3304 2112 
Q 3559 1806 3559 1356 
Q 3559 666 3084 287 
Q 2609 -91 1734 -91 
Q 1441 -91 1130 -33 
Q 819 25 488 141 
L 488 750 
Q 750 597 1062 519 
Q 1375 441 1716 441 
Q 2309 441 2620 675 
Q 2931 909 2931 1356 
Q 2931 1769 2642 2001 
Q 2353 2234 1838 2234 
L 1294 2234 
L 1294 2753 
L 1863 2753 
Q 2328 2753 2575 2939 
Q 2822 3125 2822 3475 
Q 2822 3834 2567 4026 
Q 2313 4219 1838 4219 
Q 1578 4219 1281 4162 
Q 984 4106 628 3988 
L 628 4550 
Q 988 4650 1302 4700 
Q 1616 4750 1894 4750 
Q 2613 4750 3031 4423 
Q 3450 4097 3450 3541 
Q 3450 3153 3228 2886 
Q 3006 2619 2597 2516 
z
" transform="scale(0.015625)"/>
        <path id="DejaVuSans-30" d="M 2034 4250 
Q 1547 4250 1301 3770 
Q 1056 3291 1056 2328 
Q 1056 1369 1301 889 
Q 1547 409 2034 409 
Q 2525 409 2770 889 
Q 3016 1369 3016 2328 
Q 3016 3291 2770 3770 
Q 2525 4250 2034 4250 
z
M 2034 4750 
Q 2819 4750 3233 4129 
Q 3647 3509 3647 2328 
Q 3647 1150 3233 529 
Q 2819 -91 2034 -91 
Q 1250 -91 836 529 
Q 422 1150 422 2328 
Q 422 3509 836 4129 
Q 1250 4750 2034 4750 
z
" transform="scale(0.015625)"/>
        <path id="DejaVuSans-65e5" d="M 319 -1131 
L 319 4513 
L 3519 4513 
L 3519 -1131 
L 319 -1131 
z
M 678 -775 
L 3163 -775 
L 3163 4153 
L 678 4153 
L 678 -775 
z
" transform="scale(0.015625)"/>
        <path id="DejaVuSans-20" transform="scale(0.015625)"/>
        <path id="DejaVuSans-37" d="M 525 4666 
L 3525 4666 
L 3525 4397 
L 1831 0 
L 1172 0 
L 2766 4134 
L 525 4134 
L 525 4666 
z
" transform="scale(0.015625)"/>
        <path id="DejaVuSans-3a" d="M 750 794 
L 1409 794 
L 1409 0 
L 750 0 
L 750 794 
z
M 750 3309 
L 1409 3309 
L 1409 2516 
L 750 2516 
L 750 3309 
z
" transform="scale(0.015625)"/>
       </defs>
       <use xlink:href="#DejaVuSans-39"/>
       <use xlink:href="#DejaVuSans-6708" x="63.623047"/>
       <use xlink:href="#DejaVuSans-33" x="123.632812"/>
       <use xlink:href="#DejaVuSans-30" x="187.255859"/>
       <use xlink:href="#DejaVuSans-65e5" x="250.878906"/>
       <use xlink:href="#DejaVuSans-20" x="310.888672"/>
       <use xlink:href="#DejaVuSans-37" x="342.675781"/>
       <use xlink:href="#DejaVuSans-3a" x="406.298828"/>
       <use xlink:href="#DejaVuSans-30" x="439.990234"/>
       <use xlink:href="#DejaVuSans-30" x="503.613281"/>
      </g>
     </g>
    </g>
    <g id="xtick_2">
     <g id="line2d_2">
      <g>
       <use xlink:href="#m46c7cc7159" x="144.405833" y="392.188276" style="stroke: #000000; stroke-width: 0.8"/>
      </g>
     </g>
     <g id="text_2">
      <!-- 9月30日 8:00 -->
      <g transform="translate(102.82464 444.671815)rotate(-45)scale(0.1 -0.1)">
       <defs>
        <path id="DejaVuSans-38" d="M 2034 2216 
Q 1584 2216 1326 1975 
Q 1069 1734 1069 1313 
Q 1069 891 1326 650 
Q 1584 409 2034 409 
Q 2484 409 2743 651 
Q 3003 894 3003 1313 
Q 3003 1734 2745 1975 
Q 2488 2216 2034 2216 
z
M 1403 2484 
Q 997 2584 770 2862 
Q 544 3141 544 3541 
Q 544 4100 942 4425 
Q 1341 4750 2034 4750 
Q 2731 4750 3128 4425 
Q 3525 4100 3525 3541 
Q 3525 3141 3298 2862 
Q 3072 2584 2669 2484 
Q 3125 2378 3379 2068 
Q 3634 1759 3634 1313 
Q 3634 634 3220 271 
Q 2806 -91 2034 -91 
Q 1263 -91 848 271 
Q 434 634 434 1313 
Q 434 1759 690 2068 
Q 947 2378 1403 2484 
z
M 1172 3481 
Q 1172 3119 1398 2916 
Q 1625 2713 2034 2713 
Q 2441 2713 2670 2916 
Q 2900 3119 2900 3481 
Q 2900 3844 2670 4047 
Q 2441 4250 2034 4250 
Q 1625 4250 1398 4047 
Q 1172 3844 1172 3481 
z
" transform="scale(0.015625)"/>
       </defs>
       <use xlink:href="#DejaVuSans-39"/>
       <use xlink:href="#DejaVuSans-6708" x="63.623047"/>
       <use xlink:href="#DejaVuSans-33" x="123.632812"/>
       <use xlink:href="#DejaVuSans-30" x="187.255859"/>
       <use xlink:href="#DejaVuSans-65e5" x="250.878906"/>
       <use xlink:href="#DejaVuSans-20" x="310.888672"/>
       <use xlink:href="#DejaVuSans-38" x="342.675781"/>
       <use xlink:href="#DejaVuSans-3a" x="406.298828"/>
       <use xlink:href="#DejaVuSans-30" x="439.990234"/>
       <use xlink:href="#DejaVuSans-30" x="503.613281"/>
      </g>
     </g>
    </g>
    <g id="xtick_3">
     <g id="line2d_3">
      <g>
       <use xlink:href="#m46c7cc7159" x="173.694848" y="392.188276" style="stroke: #000000; stroke-width: 0.8"/>
      </g>
     </g>
     <g id="text_3">
      <!-- 9月30日 9:00 -->
      <g transform="translate(132.113655 444.671815)rotate(-45)scale(0.1 -0.1)">
       <use xlink:href="#DejaVuSans-39"/>
       <use xlink:href="#DejaVuSans-6708" x="63.623047"/>
       <use xlink:href="#DejaVuSans-33" x="123.632812"/>
       <use xlink:href="#DejaVuSans-30" x="187.255859"/>
       <use xlink:href="#DejaVuSans-65e5" x="250.878906"/>
       <use xlink:href="#DejaVuSans-20" x="310.888672"/>
       <use xlink:href="#DejaVuSans-39" x="342.675781"/>
       <use xlink:href="#DejaVuSans-3a" x="406.298828"/>
       <use xlink:href="#DejaVuSans-30" x="439.990234"/>
       <use xlink:href="#DejaVuSans-30" x="503.613281"/>
      </g>
     </g>
    </g>
    <g id="xtick_4">
     <g id="line2d_4">
      <g>
       <use xlink:href="#m46c7cc7159" x="202.983864" y="392.188276" style="stroke: #000000; stroke-width: 0.8"/>
      </g>
     </g>
     <g id="text_4">
      <!-- 9月30日 10:00 -->
      <g transform="translate(156.903703 449.170782)rotate(-45)scale(0.1 -0.1)">
       <defs>
        <path id="DejaVuSans-31" d="M 794 531 
L 1825 531 
L 1825 4091 
L 703 3866 
L 703 4441 
L 1819 4666 
L 2450 4666 
L 2450 531 
L 3481 531 
L 3481 0 
L 794 0 
L 794 531 
z
" transform="scale(0.015625)"/>
       </defs>
       <use xlink:href="#DejaVuSans-39"/>
       <use xlink:href="#DejaVuSans-6708" x="63.623047"/>
       <use xlink:href="#DejaVuSans-33" x="123.632812"/>
       <use xlink:href="#DejaVuSans-30" x="187.255859"/>
       <use xlink:href="#DejaVuSans-65e5" x="250.878906"/>
       <use xlink:href="#DejaVuSans-20" x="310.888672"/>
       <use xlink:href="#DejaVuSans-31" x="342.675781"/>
       <use xlink:href="#DejaVuSans-30" x="406.298828"/>
       <use xlink:href="#DejaVuSans-3a" x="469.921875"/>
       <use xlink:href="#DejaVuSans-30" x="503.613281"/>
       <use xlink:href="#DejaVuSans-30" x="567.236328"/>
      </g>
     </g>
    </g>
    <g id="xtick_5">
     <g id="line2d_5">
      <g>
       <use xlink:href="#m46c7cc7159" x="232.272879" y="392.188276" style="stroke: #000000; stroke-width: 0.8"/>
      </g>
     </g>
     <g id="text_5">
      <!-- 9月30日 11:00 -->
      <g transform="translate(186.192719 449.170782)rotate(-45)scale(0.1 -0.1)">
       <use xlink:href="#DejaVuSans-39"/>
       <use xlink:href="#DejaVuSans-6708" x="63.623047"/>
       <use xlink:href="#DejaVuSans-33" x="123.632812"/>
       <use xlink:href="#DejaVuSans-30" x="187.255859"/>
       <use xlink:href="#DejaVuSans-65e5" x="250.878906"/>
       <use xlink:href="#DejaVuSans-20" x="310.888672"/>
       <use xlink:href="#DejaVuSans-31" x="342.675781"/>
       <use xlink:href="#DejaVuSans-31" x="406.298828"/>
       <use xlink:href="#DejaVuSans-3a" x="469.921875"/>
       <use xlink:href="#DejaVuSans-30" x="503.613281"/>
       <use xlink:href="#DejaVuSans-30" x="567.236328"/>
      </g>
     </g>
    </g>
    <g id="xtick_6">
     <g id="line2d_6">
      <g>
       <use xlink:href="#m46c7cc7159" x="261.561894" y="392.188276" style="stroke: #000000; stroke-width: 0.8"/>
      </g>
     </g>
     <g id="text_6">
      <!-- 9月30日 12:00 -->
      <g transform="translate(215.481734 449.170782)rotate(-45)scale(0.1 -0.1)">
       <defs>
        <path id="DejaVuSans-32" d="M 1228 531 
L 3431 531 
L 3431 0 
L 469 0 
L 469 531 
Q 828 903 1448 1529 
Q 2069 2156 2228 2338 
Q 2531 2678 2651 2914 
Q 2772 3150 2772 3378 
Q 2772 3750 2511 3984 
Q 2250 4219 1831 4219 
Q 1534 4219 1204 4116 
Q 875 4013 500 3803 
L 500 4441 
Q 881 4594 1212 4672 
Q 1544 4750 1819 4750 
Q 2544 4750 2975 4387 
Q 3406 4025 3406 3419 
Q 3406 3131 3298 2873 
Q 3191 2616 2906 2266 
Q 2828 2175 2409 1742 
Q 1991 1309 1228 531 
z
" transform="scale(0.015625)"/>
       </defs>
       <use xlink:href="#DejaVuSans-39"/>
       <use xlink:href="#DejaVuSans-6708" x="63.623047"/>
       <use xlink:href="#DejaVuSans-33" x="123.632812"/>
       <use xlink:href="#DejaVuSans-30" x="187.255859"/>
       <use xlink:href="#DejaVuSans-65e5" x="250.878906"/>
       <use xlink:href="#DejaVuSans-20" x="310.888672"/>
       <use xlink:href="#DejaVuSans-31" x="342.675781"/>
       <use xlink:href="#DejaVuSans-32" x="406.298828"/>
       <use xlink:href="#DejaVuSans-3a" x="469.921875"/>
       <use xlink:href="#DejaVuSans-30" x="503.613281"/>
       <use xlink:href="#DejaVuSans-30" x="567.236328"/>
      </g>
     </g>
    </g>
    <g id="xtick_7">
     <g id="line2d_7">
      <g>
       <use xlink:href="#m46c7cc7159" x="290.850909" y="392.188276" style="stroke: #000000; stroke-width: 0.8"/>
      </g>
     </g>
     <g id="text_7">
      <!-- 9月30日 13:00 -->
      <g transform="translate(244.770749 449.170782)rotate(-45)scale(0.1 -0.1)">
       <use xlink:href="#DejaVuSans-39"/>
       <use xlink:href="#DejaVuSans-6708" x="63.623047"/>
       <use xlink:href="#DejaVuSans-33" x="123.632812"/>
       <use xlink:href="#DejaVuSans-30" x="187.255859"/>
       <use xlink:href="#DejaVuSans-65e5" x="250.878906"/>
       <use xlink:href="#DejaVuSans-20" x="310.888672"/>
       <use xlink:href="#DejaVuSans-31" x="342.675781"/>
       <use xlink:href="#DejaVuSans-33" x="406.298828"/>
       <use xlink:href="#DejaVuSans-3a" x="469.921875"/>
       <use xlink:href="#DejaVuSans-30" x="503.613281"/>
       <use xlink:href="#DejaVuSans-30" x="567.236328"/>
      </g>
     </g>
    </g>
    <g id="xtick_8">
     <g id="line2d_8">
      <g>
       <use xlink:href="#m46c7cc7159" x="320.139924" y="392.188276" style="stroke: #000000; stroke-width: 0.8"/>
      </g>
     </g>
     <g id="text_8">
      <!-- 9月30日 14:00 -->
      <g transform="translate(274.059764 449.170782)rotate(-45)scale(0.1 -0.1)">
       <defs>
        <path id="DejaVuSans-34" d="M 2419 4116 
L 825 1625 
L 2419 1625 
L 2419 4116 
z
M 2253 4666 
L 3047 4666 
L 3047 1625 
L 3713 1625 
L 3713 1100 
L 3047 1100 
L 3047 0 
L 2419 0 
L 2419 1100 
L 313 1100 
L 313 1709 
L 2253 4666 
z
" transform="scale(0.015625)"/>
       </defs>
       <use xlink:href="#DejaVuSans-39"/>
       <use xlink:href="#DejaVuSans-6708" x="63.623047"/>
       <use xlink:href="#DejaVuSans-33" x="123.632812"/>
       <use xlink:href="#DejaVuSans-30" x="187.255859"/>
       <use xlink:href="#DejaVuSans-65e5" x="250.878906"/>
       <use xlink:href="#DejaVuSans-20" x="310.888672"/>
       <use xlink:href="#DejaVuSans-31" x="342.675781"/>
       <use xlink:href="#DejaVuSans-34" x="406.298828"/>
       <use xlink:href="#DejaVuSans-3a" x="469.921875"/>
       <use xlink:href="#DejaVuSans-30" x="503.613281"/>
       <use xlink:href="#DejaVuSans-30" x="567.236328"/>
      </g>
     </g>
    </g>
    <g id="xtick_9">
     <g id="line2d_9">
      <g>
       <use xlink:href="#m46c7cc7159" x="349.428939" y="392.188276" style="stroke: #000000; stroke-width: 0.8"/>
      </g>
     </g>
     <g id="text_9">
      <!-- 9月30日 15:00 -->
      <g transform="translate(303.348779 449.170782)rotate(-45)scale(0.1 -0.1)">
       <defs>
        <path id="DejaVuSans-35" d="M 691 4666 
L 3169 4666 
L 3169 4134 
L 1269 4134 
L 1269 2991 
Q 1406 3038 1543 3061 
Q 1681 3084 1819 3084 
Q 2600 3084 3056 2656 
Q 3513 2228 3513 1497 
Q 3513 744 3044 326 
Q 2575 -91 1722 -91 
Q 1428 -91 1123 -41 
Q 819 9 494 109 
L 494 744 
Q 775 591 1075 516 
Q 1375 441 1709 441 
Q 2250 441 2565 725 
Q 2881 1009 2881 1497 
Q 2881 1984 2565 2268 
Q 2250 2553 1709 2553 
Q 1456 2553 1204 2497 
Q 953 2441 691 2322 
L 691 4666 
z
" transform="scale(0.015625)"/>
       </defs>
       <use xlink:href="#DejaVuSans-39"/>
       <use xlink:href="#DejaVuSans-6708" x="63.623047"/>
       <use xlink:href="#DejaVuSans-33" x="123.632812"/>
       <use xlink:href="#DejaVuSans-30" x="187.255859"/>
       <use xlink:href="#DejaVuSans-65e5" x="250.878906"/>
       <use xlink:href="#DejaVuSans-20" x="310.888672"/>
       <use xlink:href="#DejaVuSans-31" x="342.675781"/>
       <use xlink:href="#DejaVuSans-35" x="406.298828"/>
       <use xlink:href="#DejaVuSans-3a" x="469.921875"/>
       <use xlink:href="#DejaVuSans-30" x="503.613281"/>
       <use xlink:href="#DejaVuSans-30" x="567.236328"/>
      </g>
     </g>
    </g>
    <g id="xtick_10">
     <g id="line2d_10">
      <g>
       <use xlink:href="#m46c7cc7159" x="378.717955" y="392.188276" style="stroke: #000000; stroke-width: 0.8"/>
      </g>
     </g>
     <g id="text_10">
      <!-- 9月30日 16:00 -->
      <g transform="translate(332.637794 449.170782)rotate(-45)scale(0.1 -0.1)">
       <defs>
        <path id="DejaVuSans-36" d="M 2113 2584 
Q 1688 2584 1439 2293 
Q 1191 2003 1191 1497 
Q 1191 994 1439 701 
Q 1688 409 2113 409 
Q 2538 409 2786 701 
Q 3034 994 3034 1497 
Q 3034 2003 2786 2293 
Q 2538 2584 2113 2584 
z
M 3366 4563 
L 3366 3988 
Q 3128 4100 2886 4159 
Q 2644 4219 2406 4219 
Q 1781 4219 1451 3797 
Q 1122 3375 1075 2522 
Q 1259 2794 1537 2939 
Q 1816 3084 2150 3084 
Q 2853 3084 3261 2657 
Q 3669 2231 3669 1497 
Q 3669 778 3244 343 
Q 2819 -91 2113 -91 
Q 1303 -91 875 529 
Q 447 1150 447 2328 
Q 447 3434 972 4092 
Q 1497 4750 2381 4750 
Q 2619 4750 2861 4703 
Q 3103 4656 3366 4563 
z
" transform="scale(0.015625)"/>
       </defs>
       <use xlink:href="#DejaVuSans-39"/>
       <use xlink:href="#DejaVuSans-6708" x="63.623047"/>
       <use xlink:href="#DejaVuSans-33" x="123.632812"/>
       <use xlink:href="#DejaVuSans-30" x="187.255859"/>
       <use xlink:href="#DejaVuSans-65e5" x="250.878906"/>
       <use xlink:href="#DejaVuSans-20" x="310.888672"/>
       <use xlink:href="#DejaVuSans-31" x="342.675781"/>
       <use xlink:href="#DejaVuSans-36" x="406.298828"/>
       <use xlink:href="#DejaVuSans-3a" x="469.921875"/>
       <use xlink:href="#DejaVuSans-30" x="503.613281"/>
       <use xlink:href="#DejaVuSans-30" x="567.236328"/>
      </g>
     </g>
    </g>
    <g id="xtick_11">
     <g id="line2d_11">
      <g>
       <use xlink:href="#m46c7cc7159" x="408.00697" y="392.188276" style="stroke: #000000; stroke-width: 0.8"/>
      </g>
     </g>
     <g id="text_11">
      <!-- 9月30日 17:00 -->
      <g transform="translate(361.92681 449.170782)rotate(-45)scale(0.1 -0.1)">
       <use xlink:href="#DejaVuSans-39"/>
       <use xlink:href="#DejaVuSans-6708" x="63.623047"/>
       <use xlink:href="#DejaVuSans-33" x="123.632812"/>
       <use xlink:href="#DejaVuSans-30" x="187.255859"/>
       <use xlink:href="#DejaVuSans-65e5" x="250.878906"/>
       <use xlink:href="#DejaVuSans-20" x="310.888672"/>
       <use xlink:href="#DejaVuSans-31" x="342.675781"/>
       <use xlink:href="#DejaVuSans-37" x="406.298828"/>
       <use xlink:href="#DejaVuSans-3a" x="469.921875"/>
       <use xlink:href="#DejaVuSans-30" x="503.613281"/>
       <use xlink:href="#DejaVuSans-30" x="567.236328"/>
      </g>
     </g>
    </g>
    <g id="xtick_12">
     <g id="line2d_12">
      <g>
       <use xlink:href="#m46c7cc7159" x="437.295985" y="392.188276" style="stroke: #000000; stroke-width: 0.8"/>
      </g>
     </g>
     <g id="text_12">
      <!-- 9月30日 18:00 -->
      <g transform="translate(391.215825 449.170782)rotate(-45)scale(0.1 -0.1)">
       <use xlink:href="#DejaVuSans-39"/>
       <use xlink:href="#DejaVuSans-6708" x="63.623047"/>
       <use xlink:href="#DejaVuSans-33" x="123.632812"/>
       <use xlink:href="#DejaVuSans-30" x="187.255859"/>
       <use xlink:href="#DejaVuSans-65e5" x="250.878906"/>
       <use xlink:href="#DejaVuSans-20" x="310.888672"/>
       <use xlink:href="#DejaVuSans-31" x="342.675781"/>
       <use xlink:href="#DejaVuSans-38" x="406.298828"/>
       <use xlink:href="#DejaVuSans-3a" x="469.921875"/>
       <use xlink:href="#DejaVuSans-30" x="503.613281"/>
       <use xlink:href="#DejaVuSans-30" x="567.236328"/>
      </g>
     </g>
    </g>
    <g id="xtick_13">
     <g id="line2d_13">
      <g>
       <use xlink:href="#m46c7cc7159" x="466.585" y="392.188276" style="stroke: #000000; stroke-width: 0.8"/>
      </g>
     </g>
     <g id="text_13">
      <!-- 9月30日 19:00 -->
      <g transform="translate(420.50484 449.170782)rotate(-45)scale(0.1 -0.1)">
       <use xlink:href="#DejaVuSans-39"/>
       <use xlink:href="#DejaVuSans-6708" x="63.623047"/>
       <use xlink:href="#DejaVuSans-33" x="123.632812"/>
       <use xlink:href="#DejaVuSans-30" x="187.255859"/>
       <use xlink:href="#DejaVuSans-65e5" x="250.878906"/>
       <use xlink:href="#DejaVuSans-20" x="310.888672"/>
       <use xlink:href="#DejaVuSans-31" x="342.675781"/>
       <use xlink:href="#DejaVuSans-39" x="406.298828"/>
       <use xlink:href="#DejaVuSans-3a" x="469.921875"/>
       <use xlink:href="#DejaVuSans-30" x="503.613281"/>
       <use xlink:href="#DejaVuSans-30" x="567.236328"/>
      </g>
     </g>
    </g>
    <g id="xtick_14">
     <g id="line2d_14">
      <g>
       <use xlink:href="#m46c7cc7159" x="495.874015" y="392.188276" style="stroke: #000000; stroke-width: 0.8"/>
      </g>
     </g>
     <g id="text_14">
      <!-- 9月30日 20:00 -->
      <g transform="translate(449.793855 449.170782)rotate(-45)scale(0.1 -0.1)">
       <use xlink:href="#DejaVuSans-39"/>
       <use xlink:href="#DejaVuSans-6708" x="63.623047"/>
       <use xlink:href="#DejaVuSans-33" x="123.632812"/>
       <use xlink:href="#DejaVuSans-30" x="187.255859"/>
       <use xlink:href="#DejaVuSans-65e5" x="250.878906"/>
       <use xlink:href="#DejaVuSans-20" x="310.888672"/>
       <use xlink:href="#DejaVuSans-32" x="342.675781"/>
       <use xlink:href="#DejaVuSans-30" x="406.298828"/>
       <use xlink:href="#DejaVuSans-3a" x="469.921875"/>
       <use xlink:href="#DejaVuSans-30" x="503.613281"/>
       <use xlink:href="#DejaVuSans-30" x="567.236328"/>
      </g>
     </g>
    </g>
    <g id="xtick_15">
     <g id="line2d_15">
      <g>
       <use xlink:href="#m46c7cc7159" x="525.16303" y="392.188276" style="stroke: #000000; stroke-width: 0.8"/>
      </g>
     </g>
     <g id="text_15">
      <!-- 9月30日 21:00 -->
      <g transform="translate(479.08287 449.170782)rotate(-45)scale(0.1 -0.1)">
       <use xlink:href="#DejaVuSans-39"/>
       <use xlink:href="#DejaVuSans-6708" x="63.623047"/>
       <use xlink:href="#DejaVuSans-33" x="123.632812"/>
       <use xlink:href="#DejaVuSans-30" x="187.255859"/>
       <use xlink:href="#DejaVuSans-65e5" x="250.878906"/>
       <use xlink:href="#DejaVuSans-20" x="310.888672"/>
       <use xlink:href="#DejaVuSans-32" x="342.675781"/>
       <use xlink:href="#DejaVuSans-31" x="406.298828"/>
       <use xlink:href="#DejaVuSans-3a" x="469.921875"/>
       <use xlink:href="#DejaVuSans-30" x="503.613281"/>
       <use xlink:href="#DejaVuSans-30" x="567.236328"/>
      </g>
     </g>
    </g>
    <g id="xtick_16">
     <g id="line2d_16">
      <g>
       <use xlink:href="#m46c7cc7159" x="554.452045" y="392.188276" style="stroke: #000000; stroke-width: 0.8"/>
      </g>
     </g>
     <g id="text_16">
      <!-- 9月30日 22:00 -->
      <g transform="translate(508.371885 449.170782)rotate(-45)scale(0.1 -0.1)">
       <use xlink:href="#DejaVuSans-39"/>
       <use xlink:href="#DejaVuSans-6708" x="63.623047"/>
       <use xlink:href="#DejaVuSans-33" x="123.632812"/>
       <use xlink:href="#DejaVuSans-30" x="187.255859"/>
       <use xlink:href="#DejaVuSans-65e5" x="250.878906"/>
       <use xlink:href="#DejaVuSans-20" x="310.888672"/>
       <use xlink:href="#DejaVuSans-32" x="342.675781"/>
       <use xlink:href="#DejaVuSans-32" x="406.298828"/>
       <use xlink:href="#DejaVuSans-3a" x="469.921875"/>
       <use xlink:href="#DejaVuSans-30" x="503.613281"/>
       <use xlink:href="#DejaVuSans-30" x="567.236328"/>
      </g>
     </g>
    </g>
    <g id="xtick_17">
     <g id="line2d_17">
      <g>
       <use xlink:href="#m46c7cc7159" x="583.741061" y="392.188276" style="stroke: #000000; stroke-width: 0.8"/>
      </g>
     </g>
     <g id="text_17">
      <!-- 9月30日 23:00 -->
      <g transform="translate(537.6609 449.170782)rotate(-45)scale(0.1 -0.1)">
       <use xlink:href="#DejaVuSans-39"/>
       <use xlink:href="#DejaVuSans-6708" x="63.623047"/>
       <use xlink:href="#DejaVuSans-33" x="123.632812"/>
       <use xlink:href="#DejaVuSans-30" x="187.255859"/>
       <use xlink:href="#DejaVuSans-65e5" x="250.878906"/>
       <use xlink:href="#DejaVuSans-20" x="310.888672"/>
       <use xlink:href="#DejaVuSans-32" x="342.675781"/>
       <use xlink:href="#DejaVuSans-33" x="406.298828"/>
       <use xlink:href="#DejaVuSans-3a" x="469.921875"/>
       <use xlink:href="#DejaVuSans-30" x="503.613281"/>
       <use xlink:href="#DejaVuSans-30" x="567.236328"/>
      </g>
     </g>
    </g>
    <g id="xtick_18">
     <g id="line2d_18">
      <g>
       <use xlink:href="#m46c7cc7159" x="613.030076" y="392.188276" style="stroke: #000000; stroke-width: 0.8"/>
      </g>
     </g>
     <g id="text_18">
      <!-- 10月1日 0:00 -->
      <g transform="translate(571.448882 444.671815)rotate(-45)scale(0.1 -0.1)">
       <use xlink:href="#DejaVuSans-31"/>
       <use xlink:href="#DejaVuSans-30" x="63.623047"/>
       <use xlink:href="#DejaVuSans-6708" x="127.246094"/>
       <use xlink:href="#DejaVuSans-31" x="187.255859"/>
       <use xlink:href="#DejaVuSans-65e5" x="250.878906"/>
       <use xlink:href="#DejaVuSans-20" x="310.888672"/>
       <use xlink:href="#DejaVuSans-30" x="342.675781"/>
       <use xlink:href="#DejaVuSans-3a" x="406.298828"/>
       <use xlink:href="#DejaVuSans-30" x="439.990234"/>
       <use xlink:href="#DejaVuSans-30" x="503.613281"/>
      </g>
     </g>
    </g>
    <g id="xtick_19">
     <g id="line2d_19">
      <g>
       <use xlink:href="#m46c7cc7159" x="642.319091" y="392.188276" style="stroke: #000000; stroke-width: 0.8"/>
      </g>
     </g>
     <g id="text_19">
      <!-- 10月1日 1:00 -->
      <g transform="translate(600.737898 444.671815)rotate(-45)scale(0.1 -0.1)">
       <use xlink:href="#DejaVuSans-31"/>
       <use xlink:href="#DejaVuSans-30" x="63.623047"/>
       <use xlink:href="#DejaVuSans-6708" x="127.246094"/>
       <use xlink:href="#DejaVuSans-31" x="187.255859"/>
       <use xlink:href="#DejaVuSans-65e5" x="250.878906"/>
       <use xlink:href="#DejaVuSans-20" x="310.888672"/>
       <use xlink:href="#DejaVuSans-31" x="342.675781"/>
       <use xlink:href="#DejaVuSans-3a" x="406.298828"/>
       <use xlink:href="#DejaVuSans-30" x="439.990234"/>
       <use xlink:href="#DejaVuSans-30" x="503.613281"/>
      </g>
     </g>
    </g>
    <g id="xtick_20">
     <g id="line2d_20">
      <g>
       <use xlink:href="#m46c7cc7159" x="671.608106" y="392.188276" style="stroke: #000000; stroke-width: 0.8"/>
      </g>
     </g>
     <g id="text_20">
      <!-- 10月1日 2:00 -->
      <g transform="translate(630.026913 444.671815)rotate(-45)scale(0.1 -0.1)">
       <use xlink:href="#DejaVuSans-31"/>
       <use xlink:href="#DejaVuSans-30" x="63.623047"/>
       <use xlink:href="#DejaVuSans-6708" x="127.246094"/>
       <use xlink:href="#DejaVuSans-31" x="187.255859"/>
       <use xlink:href="#DejaVuSans-65e5" x="250.878906"/>
       <use xlink:href="#DejaVuSans-20" x="310.888672"/>
       <use xlink:href="#DejaVuSans-32" x="342.675781"/>
       <use xlink:href="#DejaVuSans-3a" x="406.298828"/>
       <use xlink:href="#DejaVuSans-30" x="439.990234"/>
       <use xlink:href="#DejaVuSans-30" x="503.613281"/>
      </g>
     </g>
    </g>
    <g id="xtick_21">
     <g id="line2d_21">
      <g>
       <use xlink:href="#m46c7cc7159" x="700.897121" y="392.188276" style="stroke: #000000; stroke-width: 0.8"/>
      </g>
     </g>
     <g id="text_21">
      <!-- 10月1日 3:00 -->
      <g transform="translate(659.315928 444.671815)rotate(-45)scale(0.1 -0.1)">
       <use xlink:href="#DejaVuSans-31"/>
       <use xlink:href="#DejaVuSans-30" x="63.623047"/>
       <use xlink:href="#DejaVuSans-6708" x="127.246094"/>
       <use xlink:href="#DejaVuSans-31" x="187.255859"/>
       <use xlink:href="#DejaVuSans-65e5" x="250.878906"/>
       <use xlink:href="#DejaVuSans-20" x="310.888672"/>
       <use xlink:href="#DejaVuSans-33" x="342.675781"/>
       <use xlink:href="#DejaVuSans-3a" x="406.298828"/>
       <use xlink:href="#DejaVuSans-30" x="439.990234"/>
       <use xlink:href="#DejaVuSans-30" x="503.613281"/>
      </g>
     </g>
    </g>
    <g id="xtick_22">
     <g id="line2d_22">
      <g>
       <use xlink:href="#m46c7cc7159" x="730.186136" y="392.188276" style="stroke: #000000; stroke-width: 0.8"/>
      </g>
     </g>
     <g id="text_22">
      <!-- 10月1日 4:00 -->
      <g transform="translate(688.604943 444.671815)rotate(-45)scale(0.1 -0.1)">
       <use xlink:href="#DejaVuSans-31"/>
       <use xlink:href="#DejaVuSans-30" x="63.623047"/>
       <use xlink:href="#DejaVuSans-6708" x="127.246094"/>
       <use xlink:href="#DejaVuSans-31" x="187.255859"/>
       <use xlink:href="#DejaVuSans-65e5" x="250.878906"/>
       <use xlink:href="#DejaVuSans-20" x="310.888672"/>
       <use xlink:href="#DejaVuSans-34" x="342.675781"/>
       <use xlink:href="#DejaVuSans-3a" x="406.298828"/>
       <use xlink:href="#DejaVuSans-30" x="439.990234"/>
       <use xlink:href="#DejaVuSans-30" x="503.613281"/>
      </g>
     </g>
    </g>
    <g id="xtick_23">
     <g id="line2d_23">
      <g>
       <use xlink:href="#m46c7cc7159" x="759.475152" y="392.188276" style="stroke: #000000; stroke-width: 0.8"/>
      </g>
     </g>
     <g id="text_23">
      <!-- 10月1日 5:00 -->
      <g transform="translate(717.893958 444.671815)rotate(-45)scale(0.1 -0.1)">
       <use xlink:href="#DejaVuSans-31"/>
       <use xlink:href="#DejaVuSans-30" x="63.623047"/>
       <use xlink:href="#DejaVuSans-6708" x="127.246094"/>
       <use xlink:href="#DejaVuSans-31" x="187.255859"/>
       <use xlink:href="#DejaVuSans-65e5" x="250.878906"/>
       <use xlink:href="#DejaVuSans-20" x="310.888672"/>
       <use xlink:href="#DejaVuSans-35" x="342.675781"/>
       <use xlink:href="#DejaVuSans-3a" x="406.298828"/>
       <use xlink:href="#DejaVuSans-30" x="439.990234"/>
       <use xlink:href="#DejaVuSans-30" x="503.613281"/>
      </g>
     </g>
    </g>
    <g id="xtick_24">
     <g id="line2d_24">
      <g>
       <use xlink:href="#m46c7cc7159" x="788.764167" y="392.188276" style="stroke: #000000; stroke-width: 0.8"/>
      </g>
     </g>
     <g id="text_24">
      <!-- 10月1日 6:00 -->
      <g transform="translate(747.182973 444.671815)rotate(-45)scale(0.1 -0.1)">
       <use xlink:href="#DejaVuSans-31"/>
       <use xlink:href="#DejaVuSans-30" x="63.623047"/>
       <use xlink:href="#DejaVuSans-6708" x="127.246094"/>
       <use xlink:href="#DejaVuSans-31" x="187.255859"/>
       <use xlink:href="#DejaVuSans-65e5" x="250.878906"/>
       <use xlink:href="#DejaVuSans-20" x="310.888672"/>
       <use xlink:href="#DejaVuSans-36" x="342.675781"/>
       <use xlink:href="#DejaVuSans-3a" x="406.298828"/>
       <use xlink:href="#DejaVuSans-30" x="439.990234"/>
       <use xlink:href="#DejaVuSans-30" x="503.613281"/>
      </g>
     </g>
    </g>
    <g id="xtick_25">
     <g id="line2d_25">
      <g>
       <use xlink:href="#m46c7cc7159" x="818.053182" y="392.188276" style="stroke: #000000; stroke-width: 0.8"/>
      </g>
     </g>
     <g id="text_25">
      <!-- 10月1日 7:00 -->
      <g transform="translate(776.471989 444.671815)rotate(-45)scale(0.1 -0.1)">
       <use xlink:href="#DejaVuSans-31"/>
       <use xlink:href="#DejaVuSans-30" x="63.623047"/>
       <use xlink:href="#DejaVuSans-6708" x="127.246094"/>
       <use xlink:href="#DejaVuSans-31" x="187.255859"/>
       <use xlink:href="#DejaVuSans-65e5" x="250.878906"/>
       <use xlink:href="#DejaVuSans-20" x="310.888672"/>
       <use xlink:href="#DejaVuSans-37" x="342.675781"/>
       <use xlink:href="#DejaVuSans-3a" x="406.298828"/>
       <use xlink:href="#DejaVuSans-30" x="439.990234"/>
       <use xlink:href="#DejaVuSans-30" x="503.613281"/>
      </g>
     </g>
    </g>
    <g id="text_26">
     <!-- 日時2021年 -->
     <g transform="translate(429.085 472.184312)scale(0.15 -0.15)">
      <defs>
       <path id="MS-Gothic-65e5" d="M 1825 -225 
L 1250 -225 
L 1250 4600 
L 5175 4600 
L 5175 -125 
L 4600 -125 
L 4600 225 
L 1825 225 
L 1825 -225 
z
M 4600 2700 
L 4600 4125 
L 1825 4125 
L 1825 2700 
L 4600 2700 
z
M 4600 700 
L 4600 2225 
L 1825 2225 
L 1825 700 
L 4600 700 
z
" transform="scale(0.015625)"/>
       <path id="MS-Gothic-6642" d="M 3575 300 
Q 3275 825 3075 1050 
L 3500 1350 
Q 3700 1125 4025 625 
L 3575 300 
z
M 4550 -50 
Q 4650 -50 4650 50 
L 4650 1525 
L 2550 1525 
L 2550 2000 
L 4650 2000 
L 4650 2650 
L 2275 2650 
L 2275 275 
L 1850 275 
L 1850 475 
L 1000 475 
L 1000 25 
L 575 25 
L 575 4625 
L 2275 4625 
L 2275 3125 
L 3800 3125 
L 3800 3850 
L 2725 3850 
L 2725 4325 
L 3800 4325 
L 3800 5175 
L 4275 5175 
Q 4475 5150 4300 5025 
L 4300 4325 
L 5575 4325 
L 5575 3850 
L 4300 3850 
L 4300 3125 
L 6050 3125 
L 6050 2650 
L 5150 2650 
L 5150 2000 
L 5900 2000 
L 5900 1525 
L 5150 1525 
L 5150 -125 
Q 5150 -525 4750 -525 
L 4225 -525 
L 4125 -50 
L 4550 -50 
z
M 1000 2875 
L 1850 2875 
L 1850 4150 
L 1000 4150 
L 1000 2875 
z
M 1000 950 
L 1850 950 
L 1850 2400 
L 1000 2400 
L 1000 950 
z
" transform="scale(0.015625)"/>
       <path id="MS-Gothic-32" d="M 2850 525 
L 2850 50 
L 300 50 
L 300 450 
Q 875 1525 1725 2500 
Q 2200 3050 2200 3650 
Q 2200 4075 1975 4300 
Q 1825 4450 1575 4450 
Q 1375 4450 1175 4250 
Q 950 4025 950 3325 
L 400 3325 
Q 425 4225 825 4625 
Q 1125 4925 1625 4925 
Q 2100 4925 2425 4600 
Q 2775 4250 2775 3625 
Q 2775 2900 2100 2125 
Q 1375 1300 900 525 
L 2850 525 
z
" transform="scale(0.015625)"/>
       <path id="MS-Gothic-30" d="M 200 2500 
Q 200 3975 800 4575 
Q 1150 4925 1575 4925 
Q 2000 4925 2350 4575 
Q 2950 3975 2950 2500 
Q 2950 1000 2350 400 
Q 2000 50 1575 50 
Q 1150 50 800 400 
Q 200 1000 200 2500 
z
M 2375 2500 
Q 2375 3825 1900 4300 
Q 1750 4450 1575 4450 
Q 1400 4450 1250 4300 
Q 775 3800 775 2500 
Q 775 1150 1250 675 
Q 1400 525 1575 525 
Q 1750 525 1900 675 
Q 2375 1150 2375 2500 
z
" transform="scale(0.015625)"/>
       <path id="MS-Gothic-31" d="M 1375 50 
L 1375 2000 
L 1375 3925 
L 625 3925 
L 625 4225 
Q 1500 4225 1650 4925 
L 1950 4925 
L 1950 50 
L 1375 50 
z
" transform="scale(0.015625)"/>
       <path id="MS-Gothic-5e74" d="M 2000 3900 
Q 1525 3075 825 2525 
L 475 2975 
Q 1500 3725 1875 5150 
L 2450 5000 
Q 2550 4900 2375 4875 
L 2175 4375 
L 5700 4375 
L 5700 3900 
L 3875 3900 
L 3875 3050 
L 5375 3050 
L 5375 2575 
L 3875 2575 
L 3875 1450 
L 5975 1450 
L 5975 975 
L 3875 975 
L 3875 -525 
L 3375 -525 
L 3375 975 
L 500 975 
L 500 1450 
L 1625 1450 
L 1625 3050 
L 3375 3050 
L 3375 3900 
L 2000 3900 
z
M 2125 1450 
L 3375 1450 
L 3375 2575 
L 2125 2575 
L 2125 1450 
z
" transform="scale(0.015625)"/>
      </defs>
      <use xlink:href="#MS-Gothic-65e5"/>
      <use xlink:href="#MS-Gothic-6642" x="100"/>
      <use xlink:href="#MS-Gothic-32" x="200"/>
      <use xlink:href="#MS-Gothic-30" x="250"/>
      <use xlink:href="#MS-Gothic-32" x="300"/>
      <use xlink:href="#MS-Gothic-31" x="350"/>
      <use xlink:href="#MS-Gothic-5e74" x="400"/>
     </g>
    </g>
   </g>
   <g id="matplotlib.axis_2">
    <g id="ytick_1">
     <g id="line2d_26">
      <path d="M 79.97 380.188276 
L 853.2 380.188276 
" clip-path="url(#p93ba7b050c)" style="fill: none; stroke: #808080; stroke-width: 0.334; stroke-linecap: square"/>
     </g>
     <g id="line2d_27">
      <defs>
       <path id="meae564789a" d="M 0 0 
L -3.5 0 
" style="stroke: #000000; stroke-width: 0.8"/>
      </defs>
      <g>
       <use xlink:href="#meae564789a" x="67.97" y="380.188276" style="stroke: #000000; stroke-width: 0.8"/>
      </g>
     </g>
     <g id="text_27">
      <!-- 26.0 -->
      <g transform="translate(38.704375 383.987495)scale(0.1 -0.1)">
       <defs>
        <path id="DejaVuSans-2e" d="M 684 794 
L 1344 794 
L 1344 0 
L 684 0 
L 684 794 
z
" transform="scale(0.015625)"/>
       </defs>
       <use xlink:href="#DejaVuSans-32"/>
       <use xlink:href="#DejaVuSans-36" x="63.623047"/>
       <use xlink:href="#DejaVuSans-2e" x="127.246094"/>
       <use xlink:href="#DejaVuSans-30" x="159.033203"/>
      </g>
     </g>
    </g>
    <g id="ytick_2">
     <g id="line2d_28">
      <path d="M 79.97 266.477184 
L 853.2 266.477184 
" clip-path="url(#p93ba7b050c)" style="fill: none; stroke: #808080; stroke-width: 0.334; stroke-linecap: square"/>
     </g>
     <g id="line2d_29">
      <g>
       <use xlink:href="#meae564789a" x="67.97" y="266.477184" style="stroke: #000000; stroke-width: 0.8"/>
      </g>
     </g>
     <g id="text_28">
      <!-- 27.0 -->
      <g transform="translate(38.704375 270.276403)scale(0.1 -0.1)">
       <use xlink:href="#DejaVuSans-32"/>
       <use xlink:href="#DejaVuSans-37" x="63.623047"/>
       <use xlink:href="#DejaVuSans-2e" x="127.246094"/>
       <use xlink:href="#DejaVuSans-30" x="159.033203"/>
      </g>
     </g>
    </g>
    <g id="ytick_3">
     <g id="line2d_30">
      <path d="M 79.97 152.766092 
L 853.2 152.766092 
" clip-path="url(#p93ba7b050c)" style="fill: none; stroke: #808080; stroke-width: 0.334; stroke-linecap: square"/>
     </g>
     <g id="line2d_31">
      <g>
       <use xlink:href="#meae564789a" x="67.97" y="152.766092" style="stroke: #000000; stroke-width: 0.8"/>
      </g>
     </g>
     <g id="text_29">
      <!-- 28.0 -->
      <g transform="translate(38.704375 156.565311)scale(0.1 -0.1)">
       <use xlink:href="#DejaVuSans-32"/>
       <use xlink:href="#DejaVuSans-38" x="63.623047"/>
       <use xlink:href="#DejaVuSans-2e" x="127.246094"/>
       <use xlink:href="#DejaVuSans-30" x="159.033203"/>
      </g>
     </g>
    </g>
    <g id="ytick_4">
     <g id="line2d_32">
      <path d="M 79.97 39.055 
L 853.2 39.055 
" clip-path="url(#p93ba7b050c)" style="fill: none; stroke: #808080; stroke-width: 0.334; stroke-linecap: square"/>
     </g>
     <g id="line2d_33">
      <g>
       <use xlink:href="#meae564789a" x="67.97" y="39.055" style="stroke: #000000; stroke-width: 0.8"/>
      </g>
     </g>
     <g id="text_30">
      <!-- 29.0 -->
      <g transform="translate(38.704375 42.854219)scale(0.1 -0.1)">
       <use xlink:href="#DejaVuSans-32"/>
       <use xlink:href="#DejaVuSans-39" x="63.623047"/>
       <use xlink:href="#DejaVuSans-2e" x="127.246094"/>
       <use xlink:href="#DejaVuSans-30" x="159.033203"/>
      </g>
     </g>
    </g>
    <g id="text_31">
     <!-- 温 -->
     <g transform="translate(10.704375 176.047419)scale(0.15 -0.15)">
      <defs>
       <path id="MS-Gothic-6e29" d="M 875 -250 
Q 875 -500 750 -400 
L 275 25 
Q 900 800 1275 1750 
L 1700 1425 
Q 1275 375 875 -250 
z
M 2775 3950 
L 4825 3950 
L 4825 4500 
L 2775 4500 
L 2775 3950 
z
M 2775 2950 
L 4825 2950 
L 4825 3550 
L 2775 3550 
L 2775 2950 
z
M 5325 4900 
L 5325 2550 
L 2275 2550 
L 2275 4900 
L 5325 4900 
z
M 2075 1975 
L 5575 1975 
L 5575 50 
L 6075 50 
L 6075 -425 
L 1575 -425 
L 1575 50 
L 2075 50 
L 2075 1975 
z
M 2575 1575 
L 2575 50 
L 3125 50 
L 3125 1575 
L 2575 1575 
z
M 3550 50 
L 4100 50 
L 4100 1575 
L 3550 1575 
L 3550 50 
z
M 5075 50 
L 5075 1575 
L 4525 1575 
L 4525 50 
L 5075 50 
z
M 1050 4875 
Q 1550 4650 1900 4275 
L 1550 3825 
Q 1225 4200 725 4475 
L 1050 4875 
z
M 1275 2375 
Q 925 2775 475 3025 
L 800 3425 
Q 1200 3300 1650 2825 
L 1275 2375 
z
" transform="scale(0.015625)"/>
      </defs>
      <use xlink:href="#MS-Gothic-6e29"/>
     </g>
     <!-- 度 -->
     <g transform="translate(10.704375 191.902888)scale(0.15 -0.15)">
      <defs>
       <path id="MS-Gothic-5ea6" d="M 5850 -575 
Q 4650 -425 3725 50 
Q 2850 -475 1625 -600 
L 1425 -75 
Q 2550 25 3300 400 
Q 2900 800 2575 1250 
L 1875 1250 
L 1875 1650 
L 4800 1650 
L 4875 1725 
L 5250 1425 
Q 5350 1275 5150 1300 
Q 4725 800 4125 375 
Q 5000 75 5975 0 
L 5850 -575 
z
M 3575 4525 
L 5825 4525 
L 5825 4050 
L 1400 4050 
L 1400 1850 
Q 1400 450 775 -500 
L 325 -125 
Q 900 650 900 1950 
L 900 4525 
L 3000 4525 
L 3000 5175 
L 3550 5175 
Q 3750 5150 3575 5025 
L 3575 4525 
z
M 3725 650 
Q 4025 850 4425 1250 
L 3125 1250 
Q 3375 950 3725 650 
z
M 4625 2000 
L 4125 2000 
L 4125 2150 
L 3050 2150 
L 3050 1975 
L 2550 1975 
L 2550 2975 
L 1550 2975 
L 1550 3375 
L 2550 3375 
L 2550 3850 
L 3025 3850 
Q 3225 3825 3050 3700 
L 3050 3375 
L 4125 3375 
L 4125 3900 
L 4600 3900 
Q 4800 3875 4625 3750 
L 4625 3375 
L 5825 3375 
L 5825 2975 
L 4625 2975 
L 4625 2000 
z
M 4125 2975 
L 3050 2975 
L 3050 2550 
L 4125 2550 
L 4125 2975 
z
" transform="scale(0.015625)"/>
      </defs>
      <use xlink:href="#MS-Gothic-5ea6"/>
     </g>
     <!-- ℃ -->
     <g transform="translate(10.704375 207.688044)scale(0.15 -0.15)">
      <defs>
       <path id="MS-Gothic-2103" d="M 1875 4825 
Q 2150 4550 2150 4175 
Q 2150 3775 1875 3500 
Q 1600 3225 1200 3225 
Q 800 3225 525 3500 
Q 250 3775 250 4175 
Q 250 4550 525 4825 
Q 800 5100 1200 5100 
Q 1600 5100 1875 4825 
z
M 1650 3725 
Q 1850 3925 1850 4175 
Q 1850 4425 1650 4625 
Q 1450 4825 1200 4825 
Q 950 4825 750 4625 
Q 575 4450 575 4175 
Q 575 3900 750 3725 
Q 950 3525 1200 3525 
Q 1450 3525 1650 3725 
z
M 2200 2200 
Q 2200 3250 2800 3850 
Q 3325 4375 4175 4375 
Q 5025 4375 5500 3900 
Q 5850 3550 6050 3050 
L 5375 3050 
Q 5225 3325 5025 3525 
Q 4725 3825 4175 3825 
Q 3625 3825 3275 3475 
Q 2875 3075 2875 2200 
Q 2875 1350 3300 925 
Q 3650 575 4225 575 
Q 4675 575 5025 925 
Q 5275 1175 5400 1575 
L 6075 1575 
Q 5900 950 5500 550 
Q 4975 25 4225 25 
Q 3350 25 2875 500 
Q 2200 1175 2200 2200 
z
" transform="scale(0.015625)"/>
      </defs>
      <use xlink:href="#MS-Gothic-2103"/>
     </g>
    </g>
   </g>
   <g id="line2d_34">
    <path d="M 115.116818 130.023874 
L 144.405833 141.394983 
L 173.694848 130.023874 
L 202.983864 130.023874 
L 232.272879 130.023874 
L 261.561894 130.023874 
L 290.850909 141.394983 
L 320.139924 141.394983 
L 349.428939 141.394983 
L 378.717955 130.023874 
L 408.00697 130.023874 
L 437.295985 130.023874 
L 466.585 130.023874 
L 495.874015 130.023874 
L 525.16303 130.023874 
L 554.452045 130.023874 
L 583.741061 130.023874 
L 613.030076 152.766092 
L 642.319091 164.137201 
L 671.608106 164.137201 
L 700.897121 186.87942 
L 730.186136 198.250529 
L 759.475152 209.621638 
L 788.764167 220.992747 
L 818.053182 277.848293 
" style="fill: none; stroke: #0d0887; stroke-width: 2; stroke-linecap: square"/>
    <defs>
     <path id="mef464e6720" d="M 0 4 
C 1.060812 4 2.078319 3.578535 2.828427 2.828427 
C 3.578535 2.078319 4 1.060812 4 0 
C 4 -1.060812 3.578535 -2.078319 2.828427 -2.828427 
C 2.078319 -3.578535 1.060812 -4 0 -4 
C -1.060812 -4 -2.078319 -3.578535 -2.828427 -2.828427 
C -3.578535 -2.078319 -4 -1.060812 -4 0 
C -4 1.060812 -3.578535 2.078319 -2.828427 2.828427 
C -2.078319 3.578535 -1.060812 4 0 4 
z
" style="stroke: #0000ff"/>
    </defs>
    <g>
     <use xlink:href="#mef464e6720" x="115.116818" y="130.023874" style="fill: #4caf80; stroke: #0000ff"/>
     <use xlink:href="#mef464e6720" x="144.405833" y="141.394983" style="fill: #4caf80; stroke: #0000ff"/>
     <use xlink:href="#mef464e6720" x="173.694848" y="130.023874" style="fill: #4caf80; stroke: #0000ff"/>
     <use xlink:href="#mef464e6720" x="202.983864" y="130.023874" style="fill: #4caf80; stroke: #0000ff"/>
     <use xlink:href="#mef464e6720" x="232.272879" y="130.023874" style="fill: #4caf80; stroke: #0000ff"/>
     <use xlink:href="#mef464e6720" x="261.561894" y="130.023874" style="fill: #4caf80; stroke: #0000ff"/>
     <use xlink:href="#mef464e6720" x="290.850909" y="141.394983" style="fill: #4caf80; stroke: #0000ff"/>
     <use xlink:href="#mef464e6720" x="320.139924" y="141.394983" style="fill: #4caf80; stroke: #0000ff"/>
     <use xlink:href="#mef464e6720" x="349.428939" y="141.394983" style="fill: #4caf80; stroke: #0000ff"/>
     <use xlink:href="#mef464e6720" x="378.717955" y="130.023874" style="fill: #4caf80; stroke: #0000ff"/>
     <use xlink:href="#mef464e6720" x="408.00697" y="130.023874" style="fill: #4caf80; stroke: #0000ff"/>
     <use xlink:href="#mef464e6720" x="437.295985" y="130.023874" style="fill: #4caf80; stroke: #0000ff"/>
     <use xlink:href="#mef464e6720" x="466.585" y="130.023874" style="fill: #4caf80; stroke: #0000ff"/>
     <use xlink:href="#mef464e6720" x="495.874015" y="130.023874" style="fill: #4caf80; stroke: #0000ff"/>
     <use xlink:href="#mef464e6720" x="525.16303" y="130.023874" style="fill: #4caf80; stroke: #0000ff"/>
     <use xlink:href="#mef464e6720" x="554.452045" y="130.023874" style="fill: #4caf80; stroke: #0000ff"/>
     <use xlink:href="#mef464e6720" x="583.741061" y="130.023874" style="fill: #4caf80; stroke: #0000ff"/>
     <use xlink:href="#mef464e6720" x="613.030076" y="152.766092" style="fill: #4caf80; stroke: #0000ff"/>
     <use xlink:href="#mef464e6720" x="642.319091" y="164.137201" style="fill: #4caf80; stroke: #0000ff"/>
     <use xlink:href="#mef464e6720" x="671.608106" y="164.137201" style="fill: #4caf80; stroke: #0000ff"/>
     <use xlink:href="#mef464e6720" x="700.897121" y="186.87942" style="fill: #4caf80; stroke: #0000ff"/>
     <use xlink:href="#mef464e6720" x="730.186136" y="198.250529" style="fill: #4caf80; stroke: #0000ff"/>
     <use xlink:href="#mef464e6720" x="759.475152" y="209.621638" style="fill: #4caf80; stroke: #0000ff"/>
     <use xlink:href="#mef464e6720" x="788.764167" y="220.992747" style="fill: #4caf80; stroke: #0000ff"/>
     <use xlink:href="#mef464e6720" x="818.053182" y="277.848293" style="fill: #4caf80; stroke: #0000ff"/>
    </g>
   </g>
   <g id="patch_3">
    <path d="M 67.97 380.188276 
L 67.97 39.055 
" style="fill: none; stroke: #000000; stroke-width: 0.8; stroke-linejoin: miter; stroke-linecap: square"/>
   </g>
   <g id="patch_4">
    <path d="M 79.97 392.188276 
L 853.2 392.188276 
" style="fill: none; stroke: #000000; stroke-width: 0.8; stroke-linejoin: miter; stroke-linecap: square"/>
   </g>
   <g id="text_32">
    <!-- 高知県の水産業の温度[℃] -->
    <g transform="translate(352.585 26.055)scale(0.19 -0.19)">
     <defs>
      <path id="MS-Gothic-9ad8" d="M 3425 5225 
Q 3675 5175 3450 5025 
L 3450 4625 
L 5950 4625 
L 5950 4150 
L 375 4150 
L 375 4625 
L 2875 4625 
L 2875 5225 
L 3425 5225 
z
M 4375 3425 
L 1975 3425 
L 1975 2900 
L 4375 2900 
L 4375 3425 
z
M 1550 2500 
L 1550 3825 
L 4800 3825 
L 4800 2500 
L 1550 2500 
z
M 5650 -100 
Q 5650 -500 5250 -500 
L 4775 -500 
L 4675 -25 
L 5050 -25 
Q 5150 -25 5150 75 
L 5150 1675 
L 1200 1675 
L 1200 -575 
L 700 -575 
L 700 2150 
L 5650 2150 
L 5650 -100 
z
M 2325 100 
L 2325 -175 
L 1900 -175 
L 1900 1375 
L 4450 1375 
L 4450 100 
L 2325 100 
z
M 2325 500 
L 4025 500 
L 4025 975 
L 2325 975 
L 2325 500 
z
" transform="scale(0.015625)"/>
      <path id="MS-Gothic-77e5" d="M 425 2200 
L 425 2675 
L 1725 2675 
L 1725 3700 
L 1400 3700 
Q 1175 3250 775 2900 
L 400 3275 
Q 1150 3900 1450 5125 
L 1950 4975 
Q 2100 4900 1875 4825 
Q 1775 4525 1600 4175 
L 3175 4175 
L 3175 3700 
L 2225 3700 
L 2225 2675 
L 3475 2675 
L 3475 2200 
L 2225 2200 
Q 2225 1875 2175 1550 
Q 2700 1175 3425 375 
L 3075 -100 
Q 2375 775 2050 1125 
Q 1775 250 775 -400 
L 425 50 
Q 1725 675 1725 2200 
L 425 2200 
z
M 5750 4350 
L 5750 -150 
L 5250 -150 
L 5250 250 
L 4200 250 
L 4200 -225 
L 3700 -225 
L 3700 4350 
L 5750 4350 
z
M 5250 3875 
L 4200 3875 
L 4200 725 
L 5250 725 
L 5250 3875 
z
" transform="scale(0.015625)"/>
      <path id="MS-Gothic-770c" d="M 4475 1150 
Q 4975 650 5950 150 
L 5650 -375 
Q 4800 25 4050 775 
L 4475 1150 
z
M 2300 700 
Q 1875 100 1000 -475 
L 625 0 
Q 1425 475 1900 1125 
L 2375 850 
Q 2500 750 2300 700 
z
M 1275 1350 
L 1275 1100 
L 775 1100 
L 775 4700 
L 1250 4700 
Q 1450 4675 1275 4550 
L 1275 1825 
L 5875 1825 
L 5875 1350 
L 3550 1350 
L 3550 -575 
L 2975 -575 
L 2975 1350 
L 1275 1350 
z
M 2375 2550 
L 4550 2550 
L 4550 3025 
L 2375 3025 
L 2375 2550 
z
M 2375 3425 
L 4550 3425 
L 4550 3825 
L 2375 3825 
L 2375 3425 
z
M 2375 4225 
L 4550 4225 
L 4550 4625 
L 2375 4625 
L 2375 4225 
z
M 1875 2150 
L 1875 5025 
L 5050 5025 
L 5050 2150 
L 1875 2150 
z
" transform="scale(0.015625)"/>
      <path id="MS-Gothic-306e" d="M 3450 3525 
Q 3025 1025 2425 425 
Q 2100 100 1750 100 
Q 1350 100 1125 325 
Q 525 925 525 1825 
Q 525 2925 1300 3700 
Q 2150 4550 3375 4550 
Q 4475 4550 5100 3925 
Q 5800 3225 5800 2275 
Q 5800 1250 5150 600 
Q 4725 175 3850 -225 
L 3325 300 
Q 4200 575 4700 1075 
Q 5175 1550 5175 2225 
Q 5175 3025 4650 3550 
Q 4125 4075 3000 4025 
L 3450 3800 
Q 3750 3675 3450 3525 
z
M 2875 4000 
Q 2225 3850 1750 3375 
Q 1100 2725 1100 1775 
Q 1100 1200 1475 825 
Q 1550 750 1700 750 
Q 1850 750 2025 925 
Q 2600 1500 2875 4000 
z
" transform="scale(0.015625)"/>
      <path id="MS-Gothic-6c34" d="M 5775 -100 
Q 4300 900 3500 2800 
L 3500 -75 
Q 3500 -475 3100 -475 
L 2500 -475 
L 2400 0 
L 2900 0 
Q 3000 0 3000 100 
L 3000 5125 
L 3475 5125 
Q 3675 5100 3500 4975 
L 3500 4250 
Q 3500 3700 3925 2950 
Q 4500 3350 5200 4200 
L 5650 3750 
Q 5775 3550 5500 3600 
Q 4900 3050 4150 2525 
Q 4875 1250 6075 475 
L 5775 -100 
z
M 2650 3350 
Q 2250 975 575 -100 
L 300 425 
Q 1675 1200 2100 3200 
L 650 3200 
L 650 3675 
L 2100 3675 
L 2250 3875 
L 2675 3575 
Q 2850 3475 2650 3350 
z
" transform="scale(0.015625)"/>
      <path id="MS-Gothic-7523" d="M 1975 4100 
L 900 4100 
L 900 4500 
L 3050 4500 
L 3050 5225 
L 3525 5225 
Q 3775 5175 3550 5075 
L 3550 4500 
L 5725 4500 
L 5725 4100 
L 4725 4100 
L 4300 3400 
L 5875 3400 
L 5875 3000 
L 1425 3000 
L 1425 1375 
Q 1425 200 675 -575 
L 300 -100 
Q 925 400 925 1700 
L 925 3400 
L 2275 3400 
L 1975 4100 
z
M 2825 3400 
L 3800 3400 
L 4125 4100 
L 2550 4100 
L 2825 3400 
z
M 1450 -375 
L 1450 25 
L 3500 25 
L 3500 725 
L 2275 725 
L 2275 1125 
L 3500 1125 
L 3500 1700 
L 2550 1700 
Q 2300 1300 1950 950 
L 1600 1350 
Q 2150 1800 2500 2750 
L 2975 2575 
Q 3175 2500 2900 2400 
L 2750 2100 
L 3500 2100 
L 3500 2775 
L 3975 2775 
Q 4200 2725 4000 2625 
L 4000 2100 
L 5550 2100 
L 5550 1700 
L 4000 1700 
L 4000 1125 
L 5225 1125 
L 5225 725 
L 4000 725 
L 4000 25 
L 6000 25 
L 6000 -375 
L 1450 -375 
z
" transform="scale(0.015625)"/>
      <path id="MS-Gothic-696d" d="M 550 175 
Q 1950 500 2750 1250 
L 550 1250 
L 550 1650 
L 2975 1650 
L 2975 2025 
L 1350 2025 
L 1350 2425 
L 2975 2425 
L 2975 2825 
L 1075 2825 
L 1075 3225 
L 2375 3225 
L 2100 3700 
L 550 3700 
L 550 4100 
L 1725 4100 
Q 1550 4350 1275 4575 
L 1650 4875 
Q 1950 4700 2225 4325 
L 1950 4100 
L 2475 4100 
L 2475 5150 
L 2950 5150 
Q 3150 5125 2975 5000 
L 2975 4100 
L 3450 4100 
L 3450 5150 
L 3925 5150 
Q 4125 5125 3950 5000 
L 3950 4100 
L 4550 4100 
L 4275 4300 
Q 4525 4650 4725 4950 
L 5100 4700 
Q 5275 4600 5075 4575 
Q 4950 4350 4725 4100 
L 5925 4100 
L 5925 3700 
L 4350 3700 
L 4075 3225 
L 5450 3225 
L 5450 2825 
L 3475 2825 
L 3475 2425 
L 5150 2425 
L 5150 2025 
L 3475 2025 
L 3475 1650 
L 5950 1650 
L 5950 1250 
L 3775 1250 
Q 4650 475 5975 200 
L 5775 -325 
Q 4400 25 3475 875 
L 3475 -525 
L 2975 -525 
L 2975 825 
Q 2100 50 750 -325 
L 550 175 
z
M 2850 3225 
L 3625 3225 
L 3875 3700 
L 2575 3700 
L 2850 3225 
z
" transform="scale(0.015625)"/>
      <path id="MS-Gothic-5b" d="M 1275 5125 
L 2850 5125 
L 2850 4725 
L 1700 4725 
L 1700 -150 
L 2850 -150 
L 2850 -550 
L 1275 -550 
L 1275 5125 
z
" transform="scale(0.015625)"/>
      <path id="MS-Gothic-5d" d="M 325 4725 
L 325 5125 
L 1900 5125 
L 1900 -550 
L 325 -550 
L 325 -150 
L 1475 -150 
L 1475 4725 
L 325 4725 
z
" transform="scale(0.015625)"/>
     </defs>
     <use xlink:href="#MS-Gothic-9ad8"/>
     <use xlink:href="#MS-Gothic-77e5" x="100"/>
     <use xlink:href="#MS-Gothic-770c" x="200"/>
     <use xlink:href="#MS-Gothic-306e" x="300"/>
     <use xlink:href="#MS-Gothic-6c34" x="400"/>
     <use xlink:href="#MS-Gothic-7523" x="500"/>
     <use xlink:href="#MS-Gothic-696d" x="600"/>
     <use xlink:href="#MS-Gothic-306e" x="700"/>
     <use xlink:href="#MS-Gothic-6e29" x="800"/>
     <use xlink:href="#MS-Gothic-5ea6" x="900"/>
     <use xlink:href="#MS-Gothic-5b" x="1000"/>
     <use xlink:href="#MS-Gothic-2103" x="1050"/>
     <use xlink:href="#MS-Gothic-5d" x="1150"/>
    </g>
   </g>
  </g>
 </g>
 <defs>
  <clipPath id="p93ba7b050c">
   <rect x="79.97" y="39.055" width="773.23" height="341.133276"/>
  </clipPath>
 </defs>
</svg>
