<?xml version="1.0" encoding="utf-8" standalone="no"?>
<!DOCTYPE svg PUBLIC "-//W3C//DTD SVG 1.1//EN"
  "http://www.w3.org/Graphics/SVG/1.1/DTD/svg11.dtd">
<svg xmlns:xlink="http://www.w3.org/1999/xlink" width="460.8pt" height="345.6pt" viewBox="0 0 460.8 345.6" xmlns="http://www.w3.org/2000/svg" version="1.1">
 <metadata>
  <rdf:RDF xmlns:dc="http://purl.org/dc/elements/1.1/" xmlns:cc="http://creativecommons.org/ns#" xmlns:rdf="http://www.w3.org/1999/02/22-rdf-syntax-ns#">
   <cc:Work>
    <dc:type rdf:resource="http://purl.org/dc/dcmitype/StillImage"/>
    <dc:date>2022-09-01T21:56:28.049070</dc:date>
    <dc:format>image/svg+xml</dc:format>
    <dc:creator>
     <cc:Agent>
      <dc:title>Matplotlib v3.5.3, https://matplotlib.org/</dc:title>
     </cc:Agent>
    </dc:creator>
   </cc:Work>
  </rdf:RDF>
 </metadata>
 <defs>
  <style type="text/css">*{stroke-linejoin: round; stroke-linecap: butt}</style>
 </defs>
 <g id="figure_1">
  <g id="patch_1">
   <path d="M 0 345.6 
L 460.8 345.6 
L 460.8 0 
L 0 0 
z
" style="fill: #ffffff"/>
  </g>
  <g id="axes_1">
   <g id="patch_2">
    <path d="M 57.6 307.584 
L 414.72 307.584 
L 414.72 41.472 
L 57.6 41.472 
z
" style="fill: #ffffff"/>
   </g>
   <g id="matplotlib.axis_1">
    <g id="xtick_1">
     <g id="line2d_1">
      <defs>
       <path id="md7a393f0ee" d="M 0 0 
L 0 3.5 
" style="stroke: #000000; stroke-width: 0.8"/>
      </defs>
      <g>
       <use xlink:href="#md7a393f0ee" x="73.832727" y="307.584" style="stroke: #000000; stroke-width: 0.8"/>
      </g>
     </g>
     <g id="text_1">
      <!-- 0 -->
      <g transform="translate(70.651477 322.182437)scale(0.1 -0.1)">
       <defs>
        <path id="DejaVuSans-30" d="M 2034 4250 
Q 1547 4250 1301 3770 
Q 1056 3291 1056 2328 
Q 1056 1369 1301 889 
Q 1547 409 2034 409 
Q 2525 409 2770 889 
Q 3016 1369 3016 2328 
Q 3016 3291 2770 3770 
Q 2525 4250 2034 4250 
z
M 2034 4750 
Q 2819 4750 3233 4129 
Q 3647 3509 3647 2328 
Q 3647 1150 3233 529 
Q 2819 -91 2034 -91 
Q 1250 -91 836 529 
Q 422 1150 422 2328 
Q 422 3509 836 4129 
Q 1250 4750 2034 4750 
z
" transform="scale(0.015625)"/>
       </defs>
       <use xlink:href="#DejaVuSans-30"/>
      </g>
     </g>
    </g>
    <g id="xtick_2">
     <g id="line2d_2">
      <g>
       <use xlink:href="#md7a393f0ee" x="141.469091" y="307.584" style="stroke: #000000; stroke-width: 0.8"/>
      </g>
     </g>
     <g id="text_2">
      <!-- 5 -->
      <g transform="translate(138.287841 322.182437)scale(0.1 -0.1)">
       <defs>
        <path id="DejaVuSans-35" d="M 691 4666 
L 3169 4666 
L 3169 4134 
L 1269 4134 
L 1269 2991 
Q 1406 3038 1543 3061 
Q 1681 3084 1819 3084 
Q 2600 3084 3056 2656 
Q 3513 2228 3513 1497 
Q 3513 744 3044 326 
Q 2575 -91 1722 -91 
Q 1428 -91 1123 -41 
Q 819 9 494 109 
L 494 744 
Q 775 591 1075 516 
Q 1375 441 1709 441 
Q 2250 441 2565 725 
Q 2881 1009 2881 1497 
Q 2881 1984 2565 2268 
Q 2250 2553 1709 2553 
Q 1456 2553 1204 2497 
Q 953 2441 691 2322 
L 691 4666 
z
" transform="scale(0.015625)"/>
       </defs>
       <use xlink:href="#DejaVuSans-35"/>
      </g>
     </g>
    </g>
    <g id="xtick_3">
     <g id="line2d_3">
      <g>
       <use xlink:href="#md7a393f0ee" x="209.105455" y="307.584" style="stroke: #000000; stroke-width: 0.8"/>
      </g>
     </g>
     <g id="text_3">
      <!-- 10 -->
      <g transform="translate(202.742955 322.182437)scale(0.1 -0.1)">
       <defs>
        <path id="DejaVuSans-31" d="M 794 531 
L 1825 531 
L 1825 4091 
L 703 3866 
L 703 4441 
L 1819 4666 
L 2450 4666 
L 2450 531 
L 3481 531 
L 3481 0 
L 794 0 
L 794 531 
z
" transform="scale(0.015625)"/>
       </defs>
       <use xlink:href="#DejaVuSans-31"/>
       <use xlink:href="#DejaVuSans-30" x="63.623047"/>
      </g>
     </g>
    </g>
    <g id="xtick_4">
     <g id="line2d_4">
      <g>
       <use xlink:href="#md7a393f0ee" x="276.741818" y="307.584" style="stroke: #000000; stroke-width: 0.8"/>
      </g>
     </g>
     <g id="text_4">
      <!-- 15 -->
      <g transform="translate(270.379318 322.182437)scale(0.1 -0.1)">
       <use xlink:href="#DejaVuSans-31"/>
       <use xlink:href="#DejaVuSans-35" x="63.623047"/>
      </g>
     </g>
    </g>
    <g id="xtick_5">
     <g id="line2d_5">
      <g>
       <use xlink:href="#md7a393f0ee" x="344.378182" y="307.584" style="stroke: #000000; stroke-width: 0.8"/>
      </g>
     </g>
     <g id="text_5">
      <!-- 20 -->
      <g transform="translate(338.015682 322.182437)scale(0.1 -0.1)">
       <defs>
        <path id="DejaVuSans-32" d="M 1228 531 
L 3431 531 
L 3431 0 
L 469 0 
L 469 531 
Q 828 903 1448 1529 
Q 2069 2156 2228 2338 
Q 2531 2678 2651 2914 
Q 2772 3150 2772 3378 
Q 2772 3750 2511 3984 
Q 2250 4219 1831 4219 
Q 1534 4219 1204 4116 
Q 875 4013 500 3803 
L 500 4441 
Q 881 4594 1212 4672 
Q 1544 4750 1819 4750 
Q 2544 4750 2975 4387 
Q 3406 4025 3406 3419 
Q 3406 3131 3298 2873 
Q 3191 2616 2906 2266 
Q 2828 2175 2409 1742 
Q 1991 1309 1228 531 
z
" transform="scale(0.015625)"/>
       </defs>
       <use xlink:href="#DejaVuSans-32"/>
       <use xlink:href="#DejaVuSans-30" x="63.623047"/>
      </g>
     </g>
    </g>
    <g id="xtick_6">
     <g id="line2d_6">
      <g>
       <use xlink:href="#md7a393f0ee" x="412.014545" y="307.584" style="stroke: #000000; stroke-width: 0.8"/>
      </g>
     </g>
     <g id="text_6">
      <!-- 25 -->
      <g transform="translate(405.652045 322.182437)scale(0.1 -0.1)">
       <use xlink:href="#DejaVuSans-32"/>
       <use xlink:href="#DejaVuSans-35" x="63.623047"/>
      </g>
     </g>
    </g>
   </g>
   <g id="matplotlib.axis_2">
    <g id="ytick_1">
     <g id="line2d_7">
      <defs>
       <path id="m2fdb8ffa0d" d="M 0 0 
L -3.5 0 
" style="stroke: #000000; stroke-width: 0.8"/>
      </defs>
      <g>
       <use xlink:href="#m2fdb8ffa0d" x="57.6" y="295.637149" style="stroke: #000000; stroke-width: 0.8"/>
      </g>
     </g>
     <g id="text_7">
      <!-- 0 -->
      <g transform="translate(44.2375 299.436368)scale(0.1 -0.1)">
       <use xlink:href="#DejaVuSans-30"/>
      </g>
     </g>
    </g>
    <g id="ytick_2">
     <g id="line2d_8">
      <g>
       <use xlink:href="#m2fdb8ffa0d" x="57.6" y="241.203247" style="stroke: #000000; stroke-width: 0.8"/>
      </g>
     </g>
     <g id="text_8">
      <!-- 10000 -->
      <g transform="translate(18.7875 245.002466)scale(0.1 -0.1)">
       <use xlink:href="#DejaVuSans-31"/>
       <use xlink:href="#DejaVuSans-30" x="63.623047"/>
       <use xlink:href="#DejaVuSans-30" x="127.246094"/>
       <use xlink:href="#DejaVuSans-30" x="190.869141"/>
       <use xlink:href="#DejaVuSans-30" x="254.492188"/>
      </g>
     </g>
    </g>
    <g id="ytick_3">
     <g id="line2d_9">
      <g>
       <use xlink:href="#m2fdb8ffa0d" x="57.6" y="186.769345" style="stroke: #000000; stroke-width: 0.8"/>
      </g>
     </g>
     <g id="text_9">
      <!-- 20000 -->
      <g transform="translate(18.7875 190.568564)scale(0.1 -0.1)">
       <use xlink:href="#DejaVuSans-32"/>
       <use xlink:href="#DejaVuSans-30" x="63.623047"/>
       <use xlink:href="#DejaVuSans-30" x="127.246094"/>
       <use xlink:href="#DejaVuSans-30" x="190.869141"/>
       <use xlink:href="#DejaVuSans-30" x="254.492188"/>
      </g>
     </g>
    </g>
    <g id="ytick_4">
     <g id="line2d_10">
      <g>
       <use xlink:href="#m2fdb8ffa0d" x="57.6" y="132.335444" style="stroke: #000000; stroke-width: 0.8"/>
      </g>
     </g>
     <g id="text_10">
      <!-- 30000 -->
      <g transform="translate(18.7875 136.134662)scale(0.1 -0.1)">
       <defs>
        <path id="DejaVuSans-33" d="M 2597 2516 
Q 3050 2419 3304 2112 
Q 3559 1806 3559 1356 
Q 3559 666 3084 287 
Q 2609 -91 1734 -91 
Q 1441 -91 1130 -33 
Q 819 25 488 141 
L 488 750 
Q 750 597 1062 519 
Q 1375 441 1716 441 
Q 2309 441 2620 675 
Q 2931 909 2931 1356 
Q 2931 1769 2642 2001 
Q 2353 2234 1838 2234 
L 1294 2234 
L 1294 2753 
L 1863 2753 
Q 2328 2753 2575 2939 
Q 2822 3125 2822 3475 
Q 2822 3834 2567 4026 
Q 2313 4219 1838 4219 
Q 1578 4219 1281 4162 
Q 984 4106 628 3988 
L 628 4550 
Q 988 4650 1302 4700 
Q 1616 4750 1894 4750 
Q 2613 4750 3031 4423 
Q 3450 4097 3450 3541 
Q 3450 3153 3228 2886 
Q 3006 2619 2597 2516 
z
" transform="scale(0.015625)"/>
       </defs>
       <use xlink:href="#DejaVuSans-33"/>
       <use xlink:href="#DejaVuSans-30" x="63.623047"/>
       <use xlink:href="#DejaVuSans-30" x="127.246094"/>
       <use xlink:href="#DejaVuSans-30" x="190.869141"/>
       <use xlink:href="#DejaVuSans-30" x="254.492188"/>
      </g>
     </g>
    </g>
    <g id="ytick_5">
     <g id="line2d_11">
      <g>
       <use xlink:href="#m2fdb8ffa0d" x="57.6" y="77.901542" style="stroke: #000000; stroke-width: 0.8"/>
      </g>
     </g>
     <g id="text_11">
      <!-- 40000 -->
      <g transform="translate(18.7875 81.700761)scale(0.1 -0.1)">
       <defs>
        <path id="DejaVuSans-34" d="M 2419 4116 
L 825 1625 
L 2419 1625 
L 2419 4116 
z
M 2253 4666 
L 3047 4666 
L 3047 1625 
L 3713 1625 
L 3713 1100 
L 3047 1100 
L 3047 0 
L 2419 0 
L 2419 1100 
L 313 1100 
L 313 1709 
L 2253 4666 
z
" transform="scale(0.015625)"/>
       </defs>
       <use xlink:href="#DejaVuSans-34"/>
       <use xlink:href="#DejaVuSans-30" x="63.623047"/>
       <use xlink:href="#DejaVuSans-30" x="127.246094"/>
       <use xlink:href="#DejaVuSans-30" x="190.869141"/>
       <use xlink:href="#DejaVuSans-30" x="254.492188"/>
      </g>
     </g>
    </g>
    <g id="text_12">
     <!-- 温度[℃] -->
     <g transform="translate(12.505937 200.974875)rotate(-90)scale(0.14 -0.14)">
      <defs>
       <path id="KaishoMCBK1Pro-DeBold-6e29" d="M 845 826 
C 800 832 736 902 698 941 
C 634 1005 614 1005 442 1005 
C 397 1005 378 1005 358 909 
C 454 806 486 570 486 525 
C 486 506 448 410 448 390 
L 435 384 
C 461 288 749 -230 1018 -230 
C 1235 -230 1274 -51 1280 -13 
C 1280 83 1280 102 1306 141 
C 1318 134 1389 64 1408 51 
C 1702 -154 1869 -262 2003 -262 
C 2022 -262 2118 -224 2138 -218 
L 2195 -218 
C 2221 -218 2317 -179 2342 -179 
C 2349 -173 2406 -173 2419 -173 
C 2464 -166 2662 -102 2714 -96 
L 3277 -38 
L 3373 -19 
L 3930 -6 
L 4038 -13 
L 4678 -19 
L 5357 -102 
L 5901 -192 
C 5920 -192 6054 -179 6112 -166 
C 6125 -160 6202 -38 6221 -19 
C 6221 0 6227 90 6227 96 
C 6227 205 6189 230 5850 480 
C 5811 506 5677 608 5645 608 
C 5638 608 5389 544 5338 544 
C 5338 550 5517 1178 5600 1261 
C 5715 1370 5741 1389 5741 1478 
C 5741 1517 5728 1568 5709 1594 
C 5690 1613 5402 1837 5370 1882 
C 5216 2067 5197 2086 5146 2125 
C 5107 2144 4896 2176 4851 2189 
C 4826 2150 4819 2144 4781 2118 
L 4397 2106 
L 3251 2016 
L 2720 1946 
L 2618 1926 
L 2093 1875 
C 2022 1869 1984 1850 1926 1798 
L 1875 1792 
L 1862 1811 
C 1869 1850 1952 2163 1933 2227 
C 1869 2195 1856 2182 1830 2150 
C 1811 2125 1702 1971 1677 1939 
C 1562 1818 1542 1792 1395 1574 
L 1082 1120 
L 845 826 
z
M 3091 493 
C 3008 474 2899 467 2854 467 
C 2835 467 2816 493 2803 525 
C 2797 538 2797 800 2797 813 
C 2797 858 2771 1248 2752 1299 
C 2746 1312 2726 1357 2720 1370 
C 2720 1408 2784 1414 2797 1414 
C 2835 1382 2938 1376 2982 1389 
L 2989 1312 
L 3008 787 
C 3008 781 3072 544 3091 518 
L 3091 493 
z
M 2182 813 
C 2182 774 2240 454 2240 416 
C 2240 371 2131 371 2106 371 
C 2061 371 1824 333 1766 339 
C 1754 339 1613 352 1600 352 
C 1574 352 1453 326 1440 326 
C 1434 326 1395 333 1382 339 
L 1562 845 
C 1574 877 1581 909 1587 934 
C 1594 979 1702 1171 1709 1222 
C 1734 1318 1734 1331 1760 1370 
C 1766 1402 1786 1549 1792 1587 
C 1798 1600 1824 1632 1862 1690 
C 1894 1658 2042 1530 2074 1478 
L 2112 1459 
L 2138 1382 
L 2182 813 
z
M 3552 1376 
C 3552 1382 3565 1402 3565 1408 
C 3565 1414 3533 1453 3533 1459 
C 3533 1498 3699 1536 3789 1549 
C 3827 1549 3872 1510 3891 1491 
L 3917 1395 
C 3898 1325 3878 1267 3872 1139 
C 3859 947 3853 845 3763 550 
C 3750 506 3744 499 3648 499 
C 3597 499 3578 506 3539 525 
L 3578 614 
L 3578 1171 
L 3552 1376 
z
M 4275 531 
C 4275 538 4275 563 4282 576 
C 4301 627 4365 685 4390 736 
C 4410 762 4570 1325 4570 1331 
C 4570 1382 4397 1568 4365 1613 
C 4397 1626 4570 1626 4608 1638 
C 4685 1658 4691 1658 4710 1658 
C 4768 1658 4813 1619 4813 1581 
C 4813 1568 4787 1498 4787 1491 
C 4787 1414 4742 1082 4730 973 
C 4723 915 4659 646 4646 582 
C 4634 512 4602 512 4320 512 
L 4275 531 
z
M 3347 4998 
C 3290 4998 2688 4896 2637 4896 
C 2611 4896 2400 4934 2355 4934 
C 2342 4922 2330 4909 2330 4877 
C 2330 4858 2336 4845 2349 4832 
C 2592 4608 2624 4582 2624 4467 
L 2630 3782 
L 2618 3200 
C 2605 3117 2598 3110 2598 3098 
C 2598 3091 2605 3053 2611 3021 
L 2592 2989 
C 2592 2976 2592 2944 2598 2925 
C 2598 2899 2682 2803 2688 2784 
C 2758 2618 2848 2413 3014 2413 
C 3059 2413 3098 2426 3136 2451 
C 3238 2534 3347 2598 3520 2611 
L 3763 2630 
L 4019 2650 
L 4070 2650 
C 4224 2573 4237 2566 4365 2470 
C 4397 2451 4429 2445 4486 2445 
C 4563 2445 4614 2483 4755 2598 
C 4845 2669 4864 2694 4954 2835 
C 4960 2835 4986 3149 4986 3168 
C 4986 3232 4992 3482 4998 3552 
L 5037 4019 
C 5043 4064 5050 4288 5050 4301 
C 5050 4307 5158 4378 5178 4397 
L 5197 4397 
L 5235 4442 
C 5229 4474 5222 4653 5222 4659 
C 5171 4762 4806 5005 4486 5114 
C 4467 5120 4358 5139 4333 5146 
L 4250 5075 
C 4141 5037 4134 5030 4070 5030 
C 4038 5030 3891 5011 3859 5011 
L 3347 4998 
z
M 3315 4058 
C 3309 4102 3315 4346 3296 4397 
C 3290 4410 3238 4467 3238 4474 
C 3238 4499 3475 4499 3514 4499 
C 3533 4499 3616 4518 3642 4525 
C 3654 4531 4179 4602 4186 4602 
C 4224 4602 4243 4570 4243 4538 
C 4243 4499 4230 4320 4230 4282 
C 4230 4134 4224 4115 4198 4058 
C 4154 4064 4147 4070 4083 4096 
C 4000 4128 3770 4173 3706 4173 
C 3674 4173 3584 4134 3546 4115 
C 3450 4077 3386 4058 3322 4045 
L 3315 4058 
z
M 4186 3194 
C 4160 3200 4090 3226 4064 3226 
C 4013 3226 3654 3123 3578 3110 
C 3558 3104 3398 3078 3341 3078 
C 3296 3078 3270 3091 3270 3130 
C 3270 3155 3270 3174 3277 3194 
C 3290 3251 3290 3277 3296 3514 
C 3296 3565 3354 3565 3469 3565 
C 3565 3565 4051 3661 4083 3661 
C 4128 3661 4154 3642 4192 3610 
L 4198 3206 
L 4186 3194 
z
M 563 4819 
C 602 4774 614 4762 755 4666 
C 768 4653 998 4422 1030 4384 
C 1062 4339 1197 4128 1229 4102 
C 1248 4083 1357 3981 1382 3955 
C 1587 3706 1837 3699 1869 3699 
C 1907 3699 1952 3718 1990 3744 
C 2003 3763 2080 3853 2093 3872 
C 2106 3885 2138 4006 2138 4013 
C 2138 4038 2099 4154 2093 4179 
C 2074 4288 2074 4294 2016 4384 
C 2003 4403 1952 4506 1933 4525 
C 1901 4557 1850 4608 1818 4640 
C 1709 4742 1184 4928 941 4928 
C 845 4928 640 4928 563 4819 
z
M 352 3008 
C 333 2989 333 2982 333 2957 
C 358 2925 512 2810 544 2778 
C 589 2739 864 2605 870 2592 
C 1133 2317 1510 2240 1587 2227 
C 1734 2227 1920 2355 1920 2630 
C 1920 2835 1613 3014 1498 3053 
C 1229 3136 1222 3136 1050 3136 
C 1018 3136 813 3117 768 3117 
C 608 3117 525 3098 358 3027 
L 352 3008 
z
" transform="scale(0.015625)"/>
       <path id="KaishoMCBK1Pro-DeBold-5ea6" d="M 435 218 
C 333 26 314 13 275 -19 
C 250 -45 83 -224 70 -250 
C 192 -256 371 -224 435 -205 
C 448 -198 858 77 864 77 
L 864 26 
C 979 -77 1466 -224 1850 -224 
C 2131 -224 2707 -6 2771 38 
C 2778 45 2810 77 2816 77 
L 3334 358 
L 3366 371 
C 3411 339 3418 333 3462 294 
C 3507 250 3763 77 3821 32 
C 3866 0 4115 -154 4173 -192 
C 4250 -250 4403 -307 4493 -358 
C 4518 -378 4698 -410 4736 -429 
L 5280 -397 
L 5357 -378 
L 5926 -294 
C 5933 -294 6317 -122 6323 -115 
C 6170 -13 6150 0 6035 26 
C 5946 51 5907 64 5619 192 
C 5568 218 5299 288 5242 314 
L 4710 525 
L 4211 755 
L 4077 806 
L 4141 896 
C 4205 922 4288 992 4326 1043 
C 4416 1158 4422 1171 4486 1222 
C 4512 1222 4640 1286 4672 1293 
C 4691 1299 4774 1325 4794 1331 
C 4819 1338 4826 1350 4915 1498 
C 4902 1587 4890 1683 4787 1766 
C 4518 1997 4499 2016 4320 2061 
C 4250 2138 4198 2182 4179 2189 
L 4058 2189 
L 4045 2163 
L 3994 2144 
C 3981 2112 3974 2099 3942 2074 
L 3910 2061 
L 3341 1971 
C 3168 1946 3002 1920 2829 1882 
L 2381 1779 
C 2214 1741 2144 1728 1958 1728 
C 1926 1709 1811 1696 1786 1696 
C 1773 1696 1754 1722 1754 1741 
C 1754 1773 1798 1907 1798 1920 
C 1798 1939 1792 2022 1792 2029 
C 1792 2086 1907 2349 1914 2400 
C 1914 2419 1914 2509 1920 2522 
C 1926 2554 1997 2694 2003 2726 
C 2029 2867 2035 2886 2074 2950 
L 2086 2950 
C 2099 2944 2362 2803 2368 2797 
C 2368 2765 2355 2592 2355 2554 
C 2355 2394 2445 2304 2528 2202 
C 2630 2086 2637 2067 2694 2067 
C 2720 2067 3238 2182 3258 2182 
L 3808 2214 
C 3814 2214 3853 2234 3866 2234 
C 3910 2234 4154 2246 4205 2246 
C 4211 2246 4256 2272 4262 2272 
C 4339 2278 4435 2304 4435 2400 
C 4435 2419 4390 2528 4390 2554 
C 4474 2656 4480 2694 4563 3072 
C 4858 3104 4890 3104 5107 3104 
C 5286 3104 5555 3213 5555 3437 
C 5555 3610 4992 3795 4883 3795 
C 4870 3795 4826 3750 4813 3744 
C 4787 3738 4678 3731 4653 3725 
L 4634 3738 
C 4634 3821 4582 3898 4525 3962 
C 4499 3987 4365 4083 4339 4109 
C 4410 4122 4435 4128 4454 4128 
C 4493 4128 4685 4115 4730 4115 
C 4781 4115 5037 4058 5094 4058 
C 5478 4058 5574 4301 5574 4339 
C 5574 4365 5523 4467 5517 4493 
C 5510 4538 5453 4582 5427 4602 
C 5363 4646 5005 4800 4928 4832 
C 4896 4838 4762 4851 4736 4851 
C 4710 4851 4691 4845 4659 4826 
L 4627 4774 
L 4595 4774 
L 4589 4749 
C 4557 4736 4557 4730 4544 4723 
C 4416 4653 4410 4646 4307 4634 
L 3834 4570 
C 3750 4557 3686 4557 3616 4570 
C 3622 4627 3629 4646 3635 4672 
C 3642 4691 3725 4755 3738 4768 
C 3750 4787 3808 4864 3808 4909 
C 3808 4941 3802 4966 3776 5030 
C 3718 5069 3706 5088 3661 5146 
C 3616 5165 3610 5165 3558 5184 
C 3526 5190 3494 5216 3443 5261 
C 3322 5312 3277 5331 3232 5344 
C 3181 5350 2970 5402 2944 5421 
C 2880 5459 2874 5459 2778 5459 
C 2650 5459 2624 5453 2387 5395 
C 2362 5389 2182 5370 2144 5370 
C 2144 5338 2144 5338 2131 5318 
C 2144 5293 2157 5261 2176 5242 
C 2176 5235 2266 5171 2285 5158 
C 2304 5139 2432 5114 2451 5101 
C 2630 4986 2656 4883 2669 4826 
C 2675 4794 2669 4634 2669 4595 
C 2669 4544 2669 4531 2701 4448 
C 2669 4442 2381 4397 2298 4390 
L 1856 4346 
L 1715 4333 
L 1190 4275 
C 1114 4269 902 4243 826 4237 
C 749 4269 742 4269 723 4269 
C 678 4262 672 4262 627 4269 
L 608 4243 
L 582 4243 
L 582 4224 
C 614 4186 787 4058 826 4026 
C 1030 3827 1139 3725 1280 3725 
C 1280 3693 1286 3526 1286 3488 
C 1286 3462 1286 3322 1280 3302 
L 1210 2758 
C 1210 2746 1101 2170 1094 2150 
C 1075 2080 1024 1907 1005 1830 
C 960 1632 941 1562 877 1331 
C 851 1242 762 928 717 800 
L 678 691 
L 435 218 
z
M 3053 3494 
C 3046 3539 3046 3546 3046 3610 
C 3046 3744 2957 3872 2867 3930 
L 2874 3974 
L 2995 3955 
L 3654 4026 
C 3674 4026 3827 4000 3827 3834 
C 3827 3802 3802 3629 3795 3565 
L 3757 3552 
L 3053 3494 
z
M 2016 3814 
C 2086 3821 2150 3827 2189 3827 
C 2278 3827 2349 3686 2355 3661 
C 2374 3610 2368 3462 2368 3411 
C 2349 3405 2253 3366 2227 3366 
C 2221 3366 2138 3386 2125 3392 
C 2125 3424 2118 3424 2080 3456 
C 2067 3462 2035 3533 2029 3546 
C 2016 3571 1875 3642 1850 3661 
C 1824 3680 1677 3744 1645 3763 
L 1670 3782 
C 1779 3789 1798 3789 1984 3834 
L 2016 3814 
z
M 3053 2611 
L 3059 2931 
L 3219 2976 
L 3763 3014 
C 3821 3021 3821 3002 3821 2874 
C 3821 2854 3802 2829 3795 2816 
L 3814 2778 
L 3770 2669 
C 3757 2669 3546 2643 3520 2637 
C 3501 2637 3418 2656 3398 2656 
C 3386 2656 3238 2630 3206 2630 
C 3187 2630 3085 2592 3066 2592 
L 3053 2611 
z
M 1421 851 
C 1427 858 1434 864 1434 870 
C 1466 954 1536 1069 1568 1152 
C 1574 1184 1619 1338 1632 1370 
C 1683 1523 1683 1542 1734 1600 
C 1760 1574 1888 1459 1894 1453 
C 1965 1408 2061 1318 2138 1286 
C 2163 1274 2310 1254 2330 1235 
C 2509 1120 2534 1088 2560 1062 
C 2598 1024 2810 826 2810 813 
C 2810 659 1267 96 877 102 
C 947 179 1120 371 1165 442 
L 1421 851 
z
M 3533 1587 
C 3616 1606 3629 1613 3725 1626 
C 3738 1498 3302 1152 3258 1152 
C 3213 1152 2912 1363 2848 1402 
L 2848 1414 
C 2874 1427 2989 1446 3014 1453 
L 3533 1587 
z
" transform="scale(0.015625)"/>
       <path id="KaishoMCBK1Pro-DeBold-5b" d="M 621 -1043 
L 2080 -1043 
C 2208 -1043 2291 -941 2291 -838 
C 2291 -736 2208 -634 2080 -634 
L 1171 -634 
L 1171 4262 
L 2080 4262 
C 2208 4262 2291 4365 2291 4467 
C 2291 4563 2208 4672 2080 4672 
L 621 4672 
L 621 -1043 
z
" transform="scale(0.015625)"/>
       <path id="KaishoMCBK1Pro-DeBold-2103" d="M 4467 3475 
C 4506 3046 4832 2912 5062 2912 
C 5453 2912 5747 3206 5747 3629 
C 5747 3750 5747 4794 4109 4794 
C 3488 4794 2880 4698 2278 4160 
C 1466 3443 1414 2554 1414 2125 
C 1414 518 2432 -122 3603 -122 
C 5293 -122 5843 1158 5843 1658 
C 5843 1766 5811 1811 5734 1811 
C 5651 1811 5632 1779 5472 1472 
C 5414 1363 4992 538 3866 538 
C 3712 538 3168 538 2701 992 
C 2496 1190 2298 1453 2298 2202 
C 2298 3437 2944 4301 4064 4301 
C 4448 4301 4845 4205 4845 3776 
C 4845 3539 4698 3450 4570 3450 
C 4531 3450 4506 3456 4467 3475 
z
M 1069 5318 
C 589 5318 198 4934 198 4448 
C 198 3968 589 3578 1069 3578 
C 1549 3578 1939 3968 1939 4448 
C 1939 4934 1542 5318 1069 5318 
z
M 1069 4947 
C 1338 4947 1562 4730 1562 4448 
C 1562 4173 1338 3955 1069 3955 
C 794 3955 570 4173 570 4448 
C 570 4730 794 4947 1069 4947 
z
" transform="scale(0.015625)"/>
       <path id="KaishoMCBK1Pro-DeBold-5d" d="M 1869 -1043 
L 1869 4672 
L 410 4672 
C 282 4672 198 4570 198 4467 
C 198 4365 275 4262 410 4262 
L 1318 4262 
L 1318 -634 
L 410 -634 
C 282 -634 198 -736 198 -838 
C 198 -941 275 -1043 410 -1043 
L 1869 -1043 
z
" transform="scale(0.015625)"/>
      </defs>
      <use xlink:href="#KaishoMCBK1Pro-DeBold-6e29"/>
      <use xlink:href="#KaishoMCBK1Pro-DeBold-5ea6" x="99.999985"/>
      <use xlink:href="#KaishoMCBK1Pro-DeBold-5b" x="199.999969"/>
      <use xlink:href="#KaishoMCBK1Pro-DeBold-2103" x="238.899963"/>
      <use xlink:href="#KaishoMCBK1Pro-DeBold-5d" x="338.899948"/>
     </g>
    </g>
   </g>
   <g id="line2d_12">
    <path d="M 73.832727 53.573443 
L 87.36 53.573217 
L 100.887273 53.57299 
L 114.414545 53.572763 
L 127.941818 53.572536 
L 141.469091 53.572309 
L 154.996364 53.572083 
L 168.523636 53.571856 
L 182.050909 53.571629 
L 195.578182 53.571402 
L 209.105455 53.571175 
L 222.632727 53.570949 
L 236.16 53.570722 
L 249.687273 53.570495 
L 263.214545 53.570268 
L 276.741818 53.570041 
L 290.269091 53.569814 
L 303.796364 53.569588 
L 317.323636 53.569361 
L 330.850909 53.569134 
L 344.378182 53.568907 
L 357.905455 53.56868 
L 371.432727 53.568454 
L 384.96 53.568227 
L 398.487273 53.568 
" clip-path="url(#p34e3862114)" style="fill: none; stroke: #1f77b4; stroke-width: 1.5; stroke-linecap: square"/>
   </g>
   <g id="line2d_13">
    <path d="M 73.832727 295.48419 
L 87.36 295.48419 
L 100.887273 295.483645 
L 114.414545 295.483645 
L 127.941818 295.483645 
L 141.469091 295.483645 
L 154.996364 295.48419 
L 168.523636 295.48419 
L 182.050909 295.48419 
L 195.578182 295.483645 
L 209.105455 295.483645 
L 222.632727 295.483645 
L 236.16 295.483645 
L 249.687273 295.483645 
L 263.214545 295.483645 
L 276.741818 295.483645 
L 290.269091 295.483645 
L 303.796364 295.484734 
L 317.323636 295.485278 
L 330.850909 295.485278 
L 344.378182 295.486367 
L 357.905455 295.486911 
L 371.432727 295.487456 
L 384.96 295.488 
L 398.487273 295.488 
" clip-path="url(#p34e3862114)" style="fill: none; stroke: #ff7f0e; stroke-width: 1.5; stroke-linecap: square"/>
   </g>
   <g id="patch_3">
    <path d="M 57.6 307.584 
L 57.6 41.472 
" style="fill: none; stroke: #000000; stroke-width: 0.8; stroke-linejoin: miter; stroke-linecap: square"/>
   </g>
   <g id="patch_4">
    <path d="M 414.72 307.584 
L 414.72 41.472 
" style="fill: none; stroke: #000000; stroke-width: 0.8; stroke-linejoin: miter; stroke-linecap: square"/>
   </g>
   <g id="patch_5">
    <path d="M 57.6 307.584 
L 414.72 307.584 
" style="fill: none; stroke: #000000; stroke-width: 0.8; stroke-linejoin: miter; stroke-linecap: square"/>
   </g>
   <g id="patch_6">
    <path d="M 57.6 41.472 
L 414.72 41.472 
" style="fill: none; stroke: #000000; stroke-width: 0.8; stroke-linejoin: miter; stroke-linecap: square"/>
   </g>
   <g id="text_13">
    <!-- 高知県の水産業の温度[℃] -->
    <g transform="translate(118.37875 35.472)scale(0.2 -0.2)">
     <defs>
      <path id="KaishoMCBK1Pro-DeBold-9ad8" d="M 4838 2381 
C 4685 2317 4666 2317 4467 2317 
C 4378 2317 3930 2330 3834 2330 
C 3667 2330 2605 2266 2304 2214 
C 2227 2202 1837 2157 1747 2144 
C 1587 2112 1267 2054 1114 2054 
C 1107 2054 1056 2080 1030 2086 
C 973 2099 909 2106 896 2106 
C 864 2106 717 2086 685 2086 
C 678 2086 582 2080 544 2029 
L 576 1978 
C 602 1965 819 1837 832 1805 
C 864 1722 947 1344 941 1235 
L 915 691 
C 909 614 890 538 845 480 
C 851 461 858 403 858 384 
C 858 371 845 294 845 269 
C 845 -19 1350 -320 1453 -320 
C 1530 -320 1613 -282 1670 -243 
C 1683 -211 1779 -26 1779 51 
C 1779 70 1766 115 1766 134 
L 1722 832 
L 1715 922 
L 1606 1453 
C 1600 1498 1472 1600 1440 1619 
L 1427 1690 
C 1562 1638 1690 1587 1773 1587 
C 1792 1587 2458 1741 2534 1766 
C 2579 1766 3168 1869 3290 1875 
L 3738 1894 
L 3949 1894 
C 4026 1907 4045 1907 4237 1907 
C 4262 1907 4314 1920 4333 1920 
C 4365 1920 4512 1914 4544 1914 
C 4570 1914 4870 1862 4883 1837 
C 4890 1824 4928 1587 4928 1523 
C 4928 1434 4909 1216 4902 1158 
L 4838 634 
L 4768 339 
C 4659 326 4442 326 4320 326 
C 4301 326 4256 333 4224 339 
C 4250 422 4256 499 4262 640 
C 4243 653 4237 666 4237 685 
C 4237 710 4467 947 4493 1011 
C 4499 1030 4518 1056 4525 1075 
C 4627 1126 4755 1203 4755 1286 
C 4755 1382 4608 1466 4531 1510 
L 4499 1555 
C 4461 1568 4282 1677 4243 1696 
C 4205 1715 3866 1798 3840 1798 
C 3827 1798 3795 1792 3776 1786 
C 3744 1696 3731 1683 3706 1670 
C 3642 1638 3174 1594 3123 1587 
L 2515 1504 
C 2496 1498 2394 1466 2374 1466 
C 2342 1466 2214 1510 2182 1510 
C 2150 1510 1990 1498 1952 1498 
C 1907 1491 1862 1459 1837 1440 
C 1933 1363 1946 1350 2029 1242 
C 2067 1190 2106 794 2131 710 
C 2240 326 2323 141 2611 51 
C 2752 102 2771 115 2829 166 
C 2848 173 2931 166 2950 166 
C 3066 186 3322 230 3456 256 
C 3514 256 3782 250 3840 250 
C 3872 250 3878 250 3936 262 
C 3949 262 4019 250 4032 250 
C 4045 250 4096 192 4115 192 
C 4154 179 4301 134 4326 102 
C 4422 -13 4435 -26 4493 -51 
C 4723 -333 4762 -397 4832 -525 
C 4851 -557 4909 -621 4960 -621 
C 4992 -621 5139 -589 5171 -582 
C 5446 -422 5606 -333 5670 224 
L 5747 864 
C 5766 1011 5792 1408 5856 1504 
C 5882 1542 6067 1722 6067 1773 
C 6067 1830 5997 1920 5952 1978 
C 5933 2003 5702 2189 5683 2214 
C 5536 2291 5504 2310 5421 2336 
C 5376 2349 5165 2445 5114 2458 
C 5088 2464 4973 2483 4947 2496 
L 4877 2458 
L 4877 2426 
L 4838 2381 
z
M 2861 672 
C 2854 762 2842 890 2790 1082 
C 2784 1094 2778 1120 2784 1139 
L 2861 1184 
L 3533 1280 
L 3610 1286 
L 3629 1267 
C 3648 1267 3686 1254 3686 1216 
C 3686 1171 3571 813 3558 774 
C 3539 742 3526 742 3411 730 
L 2874 666 
L 2861 672 
z
M 1293 3661 
C 1293 3648 1299 3635 1299 3622 
C 1306 3603 1402 3558 1414 3546 
C 1459 3507 1517 3443 1536 3405 
C 1651 3302 1683 3053 1690 2989 
C 1728 2752 1728 2726 1830 2522 
C 1875 2464 2042 2298 2240 2323 
L 2374 2374 
C 2419 2445 2438 2470 2541 2483 
C 2592 2483 2867 2509 2925 2515 
L 3450 2573 
C 3482 2579 3526 2579 3584 2579 
C 3610 2579 3712 2598 3738 2598 
C 3814 2598 4186 2586 4269 2586 
C 4339 2586 4570 2592 4570 2688 
C 4570 2707 4493 2803 4493 2822 
C 4493 2861 4781 3168 4832 3219 
C 4941 3245 4954 3245 5037 3302 
C 5056 3533 5024 3552 4717 3770 
C 4646 3821 4282 3968 4218 4019 
C 4173 4019 4058 4032 4026 4032 
C 3981 4032 3942 4019 3917 4013 
C 3885 4000 3744 3930 3712 3923 
C 3680 3917 3488 3923 3456 3923 
L 2989 3878 
C 2931 3878 2662 3814 2598 3814 
C 2579 3808 2502 3814 2483 3808 
L 1997 3725 
C 1984 3718 1926 3738 1914 3744 
C 1843 3757 1658 3770 1594 3770 
L 1549 3770 
C 1510 3763 1318 3674 1293 3661 
z
M 2515 2957 
C 2470 3008 2464 3021 2438 3149 
C 2432 3181 2381 3347 2381 3360 
C 2381 3373 2394 3392 2413 3392 
C 2432 3392 2534 3360 2554 3360 
C 2579 3360 3046 3456 3142 3462 
C 3238 3469 3693 3488 3744 3488 
C 3789 3443 3802 3411 3802 3366 
C 3802 3277 3725 3021 3603 3021 
C 3578 3021 3456 3040 3430 3040 
C 3270 3040 2701 3002 2515 2957 
z
M 429 4384 
C 422 4358 416 4333 461 4333 
C 608 4134 1005 3821 1062 3802 
C 1094 3789 1254 3757 1286 3744 
C 1408 3776 1427 3782 1510 3834 
C 1530 3846 1811 3930 1862 3936 
L 2400 4006 
L 2618 4019 
L 3245 4090 
L 3789 4160 
C 3827 4160 3885 4166 4230 4166 
C 4288 4166 4595 4134 4640 4128 
L 5293 4032 
C 5318 4026 5434 3981 5459 3981 
C 5536 3981 5626 4000 5696 4038 
C 5843 4102 5894 4205 5946 4314 
C 5926 4422 5875 4518 5754 4563 
L 5248 4755 
C 5222 4768 5184 4781 5139 4781 
C 5075 4781 5037 4762 5011 4749 
L 4896 4762 
C 4877 4742 4870 4736 4832 4730 
C 4800 4634 4781 4634 4614 4634 
C 4570 4634 4352 4614 4339 4614 
L 3757 4595 
L 3642 4595 
C 3648 4640 3654 4710 3674 4742 
C 3738 4858 3744 4870 3744 4890 
C 3744 5114 3238 5286 3213 5293 
C 3187 5318 3162 5338 3142 5350 
C 3110 5363 2963 5421 2931 5440 
C 2848 5421 2714 5402 2656 5389 
C 2611 5402 2522 5421 2502 5427 
C 2464 5434 2387 5446 2368 5453 
C 2323 5427 2298 5414 2259 5414 
C 2272 5389 2330 5248 2349 5222 
C 2362 5203 2464 5133 2483 5107 
C 2515 5082 2656 4909 2694 4877 
C 2714 4851 2733 4570 2739 4518 
L 2214 4474 
L 1216 4378 
L 1069 4371 
L 506 4371 
L 429 4384 
z
" transform="scale(0.015625)"/>
      <path id="KaishoMCBK1Pro-DeBold-77e5" d="M 51 -262 
C 122 -275 154 -282 307 -282 
C 749 -282 870 -224 1101 -64 
C 1446 173 1498 243 1619 442 
C 1632 461 1728 563 1747 589 
L 2054 1056 
L 2067 1069 
C 2163 966 2240 768 2246 755 
C 2304 608 2419 365 2445 314 
L 2662 -64 
C 2701 -115 2810 -218 2944 -218 
C 3002 -218 3078 -205 3200 -96 
C 3264 -45 3334 186 3334 262 
C 3334 371 3245 570 3200 646 
C 3149 730 2803 1050 2656 1133 
C 2650 1139 2202 1453 2195 1466 
C 2208 1517 2336 1997 2368 2003 
L 2931 2080 
C 3078 2099 3270 2272 3270 2374 
C 3270 2477 3226 2502 3142 2547 
C 3059 2598 2752 2688 2733 2688 
C 2726 2688 2714 2688 2701 2682 
C 2624 2624 2611 2624 2522 2611 
L 2509 2618 
C 2502 2624 2502 2758 2502 2771 
C 2502 2810 2426 2918 2387 2963 
C 2362 2989 2234 3104 2208 3136 
L 2285 3162 
L 2970 3328 
C 3104 3360 3290 3430 3373 3507 
C 3418 3546 3424 3603 3418 3731 
C 3366 3789 3315 3840 3155 3891 
C 3104 3904 2694 4026 2669 4026 
C 2643 4026 2624 4026 2586 4013 
L 2573 3994 
C 2528 3994 2522 3987 2502 3968 
C 2464 3846 2438 3789 2227 3738 
L 1722 3610 
L 1613 3610 
C 1613 3648 1722 3802 1734 3846 
C 1754 3917 1760 3923 1805 3981 
C 1824 4000 1869 4141 1888 4166 
C 1990 4371 2067 4640 2067 4678 
C 2067 4813 2010 4864 1914 4954 
C 1619 5216 1395 5312 1312 5312 
C 1299 5312 1222 5325 1203 5325 
C 1158 5325 947 5274 896 5280 
C 864 5248 858 5229 858 5216 
C 858 5210 1082 4928 1120 4896 
C 1158 4864 1229 4806 1229 4781 
C 1229 4755 1216 4646 1216 4621 
C 1216 4608 1216 4518 1210 4506 
L 1094 3994 
C 1082 3955 1043 3866 1018 3827 
C 1005 3795 960 3654 947 3622 
L 736 3123 
C 704 3046 602 2867 480 2739 
L 480 2726 
C 512 2726 659 2803 698 2816 
C 710 2822 813 2848 832 2854 
C 851 2861 934 2931 947 2944 
C 966 2957 1069 3014 1088 3027 
C 1126 3053 1293 3245 1344 3245 
C 1350 3245 1363 3238 1370 3238 
C 1491 3162 1504 3155 1638 3130 
C 1728 3117 1728 2848 1728 2784 
C 1728 2701 1715 2611 1690 2483 
L 1670 2464 
L 1139 2368 
L 986 2336 
L 442 2259 
C 422 2259 333 2266 314 2266 
C 294 2266 230 2246 211 2246 
C 179 2253 102 2278 83 2278 
L 64 2246 
C 134 2048 845 1677 979 1677 
C 1018 1677 1453 1830 1542 1850 
L 1555 1837 
C 1517 1658 1491 1555 1338 1267 
L 1107 838 
C 998 640 678 205 493 77 
C 320 -45 301 -58 205 -147 
C 192 -166 90 -211 70 -224 
L 51 -262 
z
M 2931 3155 
C 2944 3149 3008 3110 3021 3104 
C 3046 3091 3130 2976 3155 2963 
C 3290 2880 3341 2848 3366 2515 
L 3411 1997 
L 3418 1837 
L 3386 1184 
C 3379 998 3706 442 3917 442 
C 3949 442 3981 448 4045 467 
L 4154 614 
C 4147 640 4147 646 4160 685 
L 4218 704 
L 4691 749 
C 4730 755 4909 755 4954 762 
C 5114 781 5133 787 5171 787 
C 5235 787 5574 768 5587 768 
C 5606 768 5645 774 5670 800 
C 5722 858 5728 864 5773 883 
C 5818 928 5907 1011 5907 1114 
C 5907 1165 5875 1229 5824 1267 
C 5792 1293 5709 1370 5709 1395 
C 5709 1440 5786 1658 5798 1709 
L 5907 2246 
C 5907 2253 5920 2285 5926 2291 
C 5933 2330 5952 2413 5958 2451 
C 6189 2592 6240 2624 6240 2701 
C 6240 2867 6003 3117 5939 3162 
L 5510 3450 
C 5459 3482 5312 3526 5299 3526 
C 5286 3526 5274 3507 5274 3501 
L 5197 3501 
L 5190 3482 
C 5133 3469 5120 3462 5094 3405 
C 5011 3386 4998 3386 4902 3379 
C 4870 3379 4710 3354 4672 3347 
L 4096 3290 
L 3558 3194 
C 3526 3187 3360 3187 3315 3187 
C 3277 3187 3194 3206 3142 3213 
C 3110 3200 2970 3174 2938 3162 
L 2931 3155 
z
M 4320 1280 
C 4198 1267 4186 1261 4141 1267 
C 4128 1389 4128 1421 4128 1696 
C 4128 1798 4109 2323 4109 2438 
C 4109 2496 3981 2688 3917 2765 
C 3936 2790 3942 2803 3962 2803 
C 4006 2816 4205 2829 4250 2835 
C 4275 2842 4403 2854 4435 2854 
L 4998 2931 
L 5018 2918 
L 5018 2650 
L 4998 2099 
C 4992 2067 4960 1869 4966 1824 
C 4954 1798 4954 1760 4954 1709 
C 4954 1702 4941 1606 4934 1594 
C 4928 1562 4922 1382 4922 1344 
L 4870 1325 
L 4320 1280 
z
" transform="scale(0.015625)"/>
      <path id="KaishoMCBK1Pro-DeBold-770c" d="M 1555 5030 
L 1626 4877 
C 1645 4864 1728 4781 1734 4774 
C 1830 4730 1843 4723 1958 4653 
L 1965 4608 
L 1990 3597 
L 1978 3027 
C 1978 3014 1952 2950 1952 2944 
C 1952 2925 1965 2861 1965 2848 
C 1965 2835 1952 2778 1952 2765 
C 1952 2656 2208 2221 2438 2259 
L 2547 2234 
C 2579 2291 2598 2304 2618 2310 
C 2630 2317 2995 2374 3021 2381 
C 3168 2419 3187 2419 3341 2419 
C 3354 2419 3411 2445 3424 2445 
L 3578 2445 
C 3597 2445 3667 2464 3686 2470 
C 3763 2483 3840 2490 3923 2490 
C 3942 2496 3974 2502 3987 2502 
C 4006 2502 4019 2502 4026 2496 
C 4237 2336 4262 2317 4346 2317 
C 4378 2317 4608 2387 4621 2394 
C 4646 2406 4851 2624 4877 2797 
C 4890 2848 4896 3123 4909 3174 
C 4928 3258 4928 3270 4928 3398 
C 4928 3405 4941 3680 4941 3686 
C 4954 3750 4966 3782 4966 3795 
C 4966 3827 4947 3974 4947 4006 
C 4947 4045 4979 4211 4986 4250 
C 5011 4480 5018 4531 5030 4550 
C 5165 4659 5178 4672 5178 4717 
C 5178 4787 4960 4954 4896 4992 
L 4435 5293 
C 4384 5325 4282 5331 4237 5338 
C 4218 5312 4211 5312 4154 5312 
C 4115 5312 4090 5312 4038 5254 
L 3475 5190 
L 3277 5158 
L 2739 5088 
L 2573 5056 
L 1984 4998 
L 1568 5069 
L 1555 5030 
z
M 2829 3526 
C 2797 3526 2643 3507 2637 3507 
C 2618 3507 2598 3514 2586 3520 
C 2586 3603 2586 3846 2611 3846 
C 2624 3846 2778 3821 2784 3821 
C 2797 3821 2931 3846 2957 3853 
C 3002 3859 3232 3866 3277 3872 
C 3296 3878 3411 3910 3430 3910 
C 3648 3910 3923 4000 3974 4045 
L 4109 4045 
C 4109 4000 4115 3770 4115 3718 
C 4115 3654 4115 3622 4109 3571 
C 3840 3674 3706 3725 3507 3725 
C 3482 3725 3354 3686 3322 3680 
C 3104 3629 3085 3603 2842 3565 
L 2829 3526 
z
M 3814 4454 
C 3680 4454 3661 4461 3526 4486 
C 3290 4403 2701 4262 2694 4262 
C 2662 4262 2630 4262 2560 4275 
C 2554 4314 2522 4486 2502 4518 
C 2522 4525 2586 4563 2605 4570 
C 2618 4582 3213 4672 3283 4678 
L 3840 4723 
L 4083 4723 
L 4102 4666 
L 4115 4422 
L 4096 4371 
L 4064 4397 
L 3814 4454 
z
M 3341 2912 
C 3142 2886 2906 2854 2752 2854 
C 2688 2854 2637 2848 2592 2842 
C 2573 2854 2566 2880 2566 2906 
C 2566 2938 2579 3072 2586 3104 
C 2624 3104 2650 3104 2694 3091 
C 2707 3091 2771 3072 2790 3072 
C 2822 3085 2918 3098 2944 3110 
C 2976 3123 3450 3155 3546 3174 
C 3578 3181 3744 3226 3782 3232 
C 3827 3245 4045 3360 4102 3373 
L 4115 3366 
C 4128 3110 4122 3085 4096 3002 
L 3898 2989 
L 3341 2912 
z
M 819 2573 
C 819 2554 813 2509 806 2458 
C 794 2381 794 2355 794 2131 
C 794 2093 755 2016 685 1984 
C 685 1978 672 1952 666 1933 
C 646 1888 486 1715 480 1709 
C 506 1690 518 1677 589 1562 
C 602 1536 723 1421 800 1389 
C 934 1331 954 1318 992 1267 
C 1011 1254 1152 1210 1171 1210 
C 1203 1210 1651 1357 1741 1382 
C 1747 1299 1754 1293 1747 1267 
C 1715 1126 1434 717 1344 659 
C 1254 608 1248 595 1178 512 
C 1171 499 1126 461 1126 448 
C 1126 429 1139 365 1139 352 
C 1139 326 1126 147 1126 109 
C 1126 38 1146 -64 1158 -160 
C 1267 -346 1370 -365 1408 -365 
C 1568 -365 1651 -256 1722 -160 
C 1850 0 2144 390 2144 845 
C 2144 890 2093 1229 1965 1434 
C 2022 1440 2317 1478 2381 1491 
L 2906 1594 
L 2938 1581 
C 2950 1523 2957 1485 2957 1421 
C 2957 1363 2925 1101 2925 1037 
L 2918 531 
C 2918 493 2880 307 2880 269 
L 2880 141 
L 2854 122 
C 2842 70 2880 -96 2982 -230 
C 3008 -410 3270 -550 3290 -563 
L 3392 -570 
C 3610 -378 3616 -320 3661 26 
C 3667 51 3706 186 3706 205 
C 3706 326 3706 499 3699 627 
L 3680 1165 
C 3686 1184 3699 1331 3699 1338 
C 3699 1382 3693 1408 3674 1440 
C 3654 1472 3539 1606 3526 1645 
C 3725 1690 3770 1683 4173 1677 
L 4826 1670 
L 5357 1581 
C 5363 1581 5472 1587 5491 1587 
C 5504 1587 5779 1645 5818 1677 
C 5894 1741 5978 1824 5978 1933 
C 5978 2061 5382 2477 5139 2458 
L 5107 2381 
C 4998 2336 4992 2336 4979 2278 
C 4915 2240 4883 2240 4595 2240 
C 4512 2240 4499 2240 4403 2221 
C 4339 2208 4045 2202 3981 2195 
L 3526 2163 
L 2816 2118 
C 2579 2106 1670 1990 1651 1978 
C 1606 1952 1600 1946 1574 1939 
C 1491 1997 1485 1997 1485 2035 
C 1485 2074 1498 2259 1498 2304 
C 1498 2317 1510 2445 1510 2470 
C 1510 2509 1498 2720 1498 2752 
L 1510 3366 
C 1510 3386 1536 3488 1536 3507 
C 1536 3558 1555 3814 1555 3872 
C 1555 3904 1389 4077 1293 4096 
C 1261 4141 1235 4173 1184 4192 
C 1107 4224 896 4339 883 4346 
C 742 4358 730 4358 646 4333 
C 570 4301 346 4269 256 4262 
C 256 4192 352 4166 422 4147 
C 435 4147 493 4096 499 4090 
C 666 3981 742 3930 755 3757 
L 794 3155 
L 819 2573 
z
M 4800 326 
C 4934 102 5094 -160 5434 -160 
C 5594 -160 5709 147 5709 307 
C 5709 416 5702 422 5389 832 
C 5370 845 4909 1184 4755 1280 
C 4710 1306 4486 1389 4442 1408 
C 4211 1523 4186 1536 4077 1536 
C 4077 1510 4077 1498 4122 1472 
C 4147 1459 4333 1152 4378 1094 
C 4403 1056 4493 838 4518 794 
L 4800 326 
z
" transform="scale(0.015625)"/>
      <path id="KaishoMCBK1Pro-DeBold-306e" d="M 602 2246 
C 589 2189 582 2144 582 2106 
C 582 2067 602 1914 614 1824 
C 634 1696 749 1587 774 1574 
C 922 1504 1062 1434 1120 1280 
L 1306 774 
C 1376 589 1427 550 1491 512 
C 1690 410 1728 390 1818 390 
C 1939 390 2086 474 2182 557 
C 2221 595 2368 819 2406 870 
C 2432 896 2650 1178 2656 1190 
L 2976 1741 
L 3162 2144 
C 3181 2176 3270 2330 3290 2368 
C 3309 2400 3379 2586 3398 2630 
L 3584 3014 
C 3744 3347 3814 3693 3814 3789 
C 3814 3821 3770 3987 3763 4026 
C 3776 4045 3789 4051 3814 4051 
C 4134 4051 4941 3718 4941 2630 
C 4941 2541 4902 2259 4877 2074 
C 4851 1926 4710 1638 4704 1632 
L 4390 1190 
C 4179 890 3437 442 3181 378 
C 3034 346 3008 320 3008 262 
C 3008 134 3366 90 3526 90 
C 4282 90 5165 762 5280 915 
C 5664 1446 5818 1658 5818 2566 
C 5818 3469 5216 4218 4723 4429 
L 4275 4621 
L 4128 4666 
C 3923 4730 3674 4730 3610 4730 
C 3136 4730 2342 4429 1939 4134 
L 1619 3904 
C 1120 3546 653 2810 608 2253 
L 602 2246 
z
M 1824 1530 
C 1766 1562 1741 1574 1709 1594 
C 1670 1613 1530 1766 1491 1792 
C 1459 1818 1261 1914 1261 1958 
C 1261 1978 1338 2246 1350 2278 
L 1587 2758 
L 1741 3014 
L 2112 3379 
C 2368 3635 2950 3923 2982 3923 
C 3027 3923 3027 3898 3027 3680 
C 3027 3578 2829 3200 2822 3187 
L 2579 2765 
L 2534 2707 
L 2176 2086 
L 2138 2029 
L 1856 1555 
L 1824 1530 
z
" transform="scale(0.015625)"/>
      <path id="KaishoMCBK1Pro-DeBold-6c34" d="M 109 582 
L 141 563 
L 141 544 
C 186 531 288 493 352 474 
C 378 474 486 461 499 461 
C 698 461 1190 742 1210 755 
C 1229 768 1280 819 1293 832 
C 1517 979 1798 1306 1888 1427 
L 2163 1798 
C 2259 1926 2310 2022 2368 2138 
L 2560 2528 
C 2579 2566 2714 2758 2733 2803 
C 2771 2899 2778 2918 2829 2982 
L 2835 2784 
L 2829 2214 
L 2829 1696 
C 2829 1658 2816 1472 2816 1434 
C 2816 1370 2822 1222 2822 1152 
C 2822 1133 2803 1082 2803 1069 
C 2803 1056 2816 922 2816 896 
C 2816 883 2765 742 2726 742 
L 2176 736 
L 2157 723 
L 1901 768 
C 1997 627 2195 550 2323 499 
C 2368 480 2669 115 2707 64 
C 2726 38 2784 -102 2803 -134 
C 2976 -422 3014 -486 3142 -486 
C 3162 -486 3309 -371 3341 -352 
C 3379 -301 3552 -26 3584 38 
C 3616 96 3654 173 3654 314 
C 3654 346 3622 493 3622 525 
C 3616 544 3629 653 3629 678 
L 3622 1261 
L 3610 1306 
L 3616 2234 
L 3622 2304 
L 3648 2310 
L 3674 2272 
L 3712 2266 
C 3750 2221 3891 1997 3904 1978 
C 3917 1965 3974 1907 3981 1894 
C 4000 1862 4096 1696 4102 1690 
L 4429 1184 
L 4454 1146 
C 4493 1126 4499 1120 4538 1043 
C 4570 986 4787 774 4947 672 
C 5005 659 5146 640 5235 627 
C 5299 627 5466 640 5517 640 
C 5536 640 5619 634 5638 634 
L 6278 634 
C 6362 634 6413 659 6470 698 
C 6438 755 6426 768 6304 864 
L 5907 1165 
L 5408 1542 
L 4864 1978 
C 4838 1997 4742 2106 4717 2125 
C 4576 2240 4563 2253 4506 2285 
L 4486 2323 
C 4474 2336 4141 2726 4128 2746 
C 4262 2765 4454 2829 4493 2842 
C 4550 2861 4781 3014 4832 3040 
C 4960 3110 5139 3200 5216 3251 
C 5235 3264 5306 3341 5325 3347 
C 5357 3366 5530 3373 5562 3386 
C 5715 3424 5766 3437 5766 3539 
C 5766 3712 5741 3750 5626 3891 
L 5357 4224 
C 5280 4288 5267 4294 5254 4314 
C 5222 4320 5043 4378 5005 4378 
C 4986 4378 4890 4358 4870 4358 
C 4832 4358 4736 4365 4704 4378 
C 4640 4397 4595 4422 4576 4422 
C 4525 4422 4525 4339 4525 4288 
C 4525 4237 4538 4205 4653 4083 
C 4678 4051 4710 4013 4710 3974 
C 4710 3910 4461 3654 4397 3584 
L 4032 3213 
L 3878 3104 
L 3840 3136 
C 3821 3181 3667 3373 3667 3398 
C 3667 3430 3693 3712 3693 3776 
C 3693 3853 3750 4352 3770 4416 
C 3782 4454 3878 4653 3878 4704 
C 3878 4800 3757 4896 3430 5146 
C 3405 5165 3034 5325 2854 5325 
C 2810 5318 2726 5312 2682 5299 
C 2669 5293 2598 5248 2579 5248 
C 2547 5242 2432 5216 2400 5216 
C 2381 5216 2310 5235 2291 5235 
L 2291 5216 
C 2342 5184 2349 5171 2355 5107 
C 2394 5082 2752 4890 2778 4864 
C 2797 4845 2861 4589 2861 4454 
C 2861 4435 2829 4352 2829 4333 
C 2835 4269 2842 4051 2842 3994 
C 2842 3936 2829 3654 2829 3590 
C 2829 3552 2829 3533 2810 3482 
C 2714 3590 2496 3680 2362 3725 
L 2170 3718 
C 2157 3706 2144 3680 2131 3674 
C 2029 3571 2016 3546 1971 3469 
C 1901 3437 1536 3322 1459 3290 
C 1427 3277 1274 3232 1242 3219 
C 1069 3149 1050 3149 858 3149 
C 800 3149 531 3245 461 3245 
L 461 3181 
C 467 3149 570 3040 589 3014 
C 614 2976 691 2842 710 2810 
C 755 2778 947 2605 992 2566 
C 1018 2541 1184 2496 1210 2496 
C 1274 2496 1722 2701 1766 2720 
C 1786 2720 1811 2707 1811 2675 
C 1811 2669 1517 2061 1242 1734 
C 1229 1709 1126 1523 1101 1485 
L 781 1101 
C 614 896 365 704 109 602 
L 109 582 
z
" transform="scale(0.015625)"/>
      <path id="KaishoMCBK1Pro-DeBold-7523" d="M 13 -301 
C 38 -333 307 -371 339 -371 
C 467 -371 512 -333 704 -198 
C 1094 83 1235 256 1338 518 
C 1363 576 1530 845 1549 902 
C 1594 1024 1594 1037 1658 1120 
C 1702 1114 1741 1107 1779 1107 
C 1805 1107 1914 1133 1939 1139 
C 2061 1146 2093 1158 2342 1280 
C 2387 1299 2534 1466 2573 1498 
C 2637 1453 2765 1421 2816 1421 
C 2880 1421 3155 1491 3206 1498 
L 3213 1222 
C 3194 1197 3187 1184 3149 1165 
C 3117 1165 2957 1139 2931 1139 
L 2080 1011 
C 1997 1011 1990 1011 1914 979 
C 1958 934 1971 928 2074 870 
L 2080 845 
C 2227 723 2726 544 2816 544 
C 2835 544 2925 582 2944 589 
C 3027 602 3085 608 3162 595 
C 3168 538 3187 442 3187 397 
C 3149 384 2630 320 2592 314 
C 2534 307 2253 288 2221 282 
L 1734 230 
C 1715 230 1632 218 1613 218 
C 1613 218 1453 243 1427 250 
C 1402 250 1389 250 1299 243 
L 1299 218 
L 1280 211 
C 1286 109 1318 83 1466 -26 
L 1741 -230 
C 1926 -371 2131 -397 2163 -397 
C 2259 -397 2362 -358 2426 -333 
C 2509 -301 3072 -198 3130 -192 
L 3584 -141 
L 3898 -122 
L 4422 -115 
C 4486 -134 4813 -179 4890 -198 
C 4915 -205 5152 -269 5158 -269 
L 5670 -339 
L 5760 -339 
L 5882 -301 
C 5933 -243 5984 -205 6003 -154 
C 6010 -134 6054 -45 6054 -26 
C 6054 -13 6054 13 6042 45 
C 6035 58 5869 262 5862 262 
C 5728 358 5338 557 5306 557 
C 5254 544 5171 506 5133 486 
C 5082 493 5075 486 5043 467 
L 4928 448 
L 4314 422 
C 4122 416 4090 416 3994 435 
C 3994 467 4000 614 4000 646 
C 4000 691 4013 698 4141 717 
L 4634 800 
C 4678 813 4890 832 4934 845 
C 4979 851 4992 864 5126 954 
L 5171 1069 
C 5126 1171 5107 1197 5056 1254 
C 4902 1331 4710 1427 4582 1427 
C 4570 1427 4499 1389 4486 1382 
C 4467 1376 4166 1318 4115 1318 
C 4096 1318 4077 1318 4038 1331 
C 4038 1357 4051 1478 4051 1510 
C 4051 1536 4045 1549 4045 1568 
C 4058 1581 4064 1594 4077 1594 
C 4083 1594 4166 1600 4192 1606 
C 4198 1600 4230 1587 4250 1587 
C 4262 1587 4288 1600 4294 1600 
C 4333 1613 4397 1619 4461 1626 
L 5062 1677 
C 5069 1683 5242 1734 5267 1747 
C 5318 1773 5350 1818 5408 1894 
L 5382 1914 
C 5376 2042 5222 2195 5082 2234 
C 4749 2336 4710 2342 4576 2342 
C 4544 2304 4518 2259 4429 2246 
C 4390 2234 4173 2176 4160 2176 
C 4141 2176 4109 2189 4102 2189 
L 4077 2176 
C 4064 2234 4064 2253 4064 2285 
C 4064 2310 4128 2445 4128 2477 
C 4128 2586 4051 2662 3981 2720 
C 3981 2726 3680 2906 3654 2925 
L 3866 2944 
L 4442 2976 
C 4461 2982 4576 2970 4602 2970 
C 4614 2970 4794 2989 4806 2989 
C 4826 2989 5050 2970 5094 2970 
C 5120 2970 5158 2970 5178 2963 
L 5696 2886 
C 5734 2880 5766 2874 5856 2899 
C 5875 2906 5952 2970 5971 2982 
C 5990 2995 6048 3200 6048 3206 
C 6048 3219 6035 3322 5888 3482 
C 5862 3488 5485 3648 5440 3648 
C 5408 3648 5146 3693 5088 3693 
L 5082 3642 
C 5043 3622 5037 3616 5011 3584 
C 4896 3565 4640 3546 4461 3546 
C 4416 3546 4179 3520 4128 3520 
L 4128 3539 
C 4134 3546 4147 3571 4166 3590 
C 4256 3680 4307 3725 4307 3782 
C 4326 3821 4326 3846 4326 3853 
C 4326 3872 4294 3981 4288 4006 
C 4275 4026 4192 4141 4179 4166 
C 4237 4179 4282 4186 4358 4186 
C 4397 4186 4589 4173 4627 4173 
C 4672 4173 5005 4230 5043 4250 
C 5062 4262 5133 4365 5158 4384 
C 5158 4538 5075 4602 4947 4698 
C 4883 4749 4499 4813 4467 4813 
C 4384 4813 4326 4781 4275 4762 
L 4262 4717 
C 4115 4672 3987 4653 3718 4646 
C 3699 4672 3699 4678 3706 4704 
C 3789 4774 3802 4832 3802 4966 
C 3802 5037 3501 5248 3494 5248 
C 3290 5344 3264 5357 3258 5357 
C 3072 5491 3021 5523 2829 5523 
C 2778 5523 2573 5478 2528 5478 
C 2522 5478 2451 5510 2413 5530 
C 2400 5542 2355 5536 2342 5530 
L 2323 5517 
C 2317 5478 2374 5350 2394 5306 
C 2477 5120 2586 5018 2714 4890 
C 2720 4883 2778 4653 2778 4634 
C 2778 4621 2778 4602 2765 4589 
C 2733 4557 1997 4480 1926 4474 
L 1459 4435 
C 1312 4422 1293 4416 1178 4416 
C 1133 4416 1088 4410 1043 4403 
C 1056 4358 1062 4352 1126 4275 
C 1152 4243 1325 4122 1363 4096 
C 1376 4090 1510 4038 1536 4026 
C 1677 3955 1741 3923 1869 3923 
C 1882 3923 1914 3936 1926 3942 
L 1958 3930 
L 1958 3898 
C 1990 3846 1990 3827 1990 3680 
C 1990 3667 2022 3590 2022 3578 
C 2035 3430 2035 3418 2112 3322 
C 2054 3302 1997 3283 1894 3277 
C 1837 3277 1498 3251 1478 3251 
L 973 3162 
C 954 3155 883 3162 864 3162 
C 570 3162 486 3130 422 3104 
C 435 3066 461 3021 512 2995 
C 544 2963 736 2861 781 2835 
C 979 2707 1005 2688 1184 2637 
L 1203 2592 
L 1190 2573 
C 1203 2528 1216 2502 1216 2470 
C 1216 2445 1203 2323 1210 2298 
C 1203 2291 1171 2163 1171 2150 
L 1024 1549 
L 947 1357 
L 749 806 
C 723 736 531 429 493 352 
C 461 275 154 -147 70 -198 
L 70 -230 
L 19 -256 
L 13 -301 
z
M 1677 1178 
C 1702 1216 1715 1242 1741 1286 
C 1754 1312 1786 1459 1805 1491 
C 1805 1504 1850 1562 1856 1581 
C 1862 1600 1882 1722 1888 1747 
C 1984 2010 1997 2035 1997 2086 
C 1997 2202 1894 2381 1824 2464 
C 1805 2490 1645 2573 1613 2598 
L 1626 2611 
C 1658 2611 1664 2618 1709 2643 
C 1798 2694 2061 2733 2163 2746 
L 2707 2810 
C 2726 2816 2739 2816 2778 2816 
C 2816 2816 3002 2842 3040 2842 
C 3059 2842 3174 2739 3181 2720 
C 3194 2694 3200 2291 3200 2253 
C 3200 2202 3194 2067 3168 2010 
C 3123 2003 3110 1997 3002 1965 
C 2989 1965 2944 1971 2925 1971 
C 2938 1990 2963 2029 2970 2048 
C 2976 2150 2976 2150 2989 2189 
C 2982 2208 2970 2291 2963 2310 
C 2963 2317 2931 2349 2925 2362 
C 2861 2470 2784 2579 2650 2618 
C 2605 2630 2413 2733 2362 2733 
C 2342 2733 2310 2733 2278 2720 
C 2112 2662 2099 2656 2042 2656 
L 1997 2630 
L 2010 2605 
C 2086 2573 2099 2554 2118 2502 
C 2176 2464 2208 2342 2208 2336 
C 2208 2323 2176 2157 2170 2125 
C 2157 2010 2086 1792 2048 1664 
C 2003 1523 1824 1267 1811 1261 
C 1734 1210 1728 1203 1696 1178 
L 1677 1178 
z
M 2406 3968 
C 2458 3994 2784 4032 2797 4032 
L 3328 4064 
L 3507 4083 
C 3514 3974 3418 3802 3328 3629 
C 3315 3603 3283 3456 3264 3430 
C 3168 3392 2938 3392 2810 3392 
C 2810 3520 2810 3610 2778 3661 
C 2643 3853 2579 3885 2432 3942 
L 2406 3968 
z
" transform="scale(0.015625)"/>
      <path id="KaishoMCBK1Pro-DeBold-696d" d="M 64 3552 
C 115 3520 122 3514 186 3443 
C 205 3418 717 3123 838 3117 
C 909 3078 922 3078 1056 3066 
C 1120 3104 1139 3104 1197 3098 
C 1235 3136 1254 3155 1318 3174 
C 1382 3194 1728 3258 1805 3283 
C 1830 3283 1958 3309 1978 3309 
C 2061 3309 2106 3206 2138 3123 
C 2157 3085 2259 2931 2278 2893 
C 2240 2886 2163 2874 2125 2861 
C 2112 2854 2035 2854 2016 2854 
L 1491 2790 
C 1434 2784 1037 2726 1037 2688 
C 1037 2637 1286 2515 1331 2483 
C 1472 2362 1574 2285 1766 2285 
C 1805 2285 1997 2336 2042 2342 
L 2490 2438 
C 2598 2464 2771 2496 2822 2496 
C 2886 2496 2886 2387 2886 2362 
C 2886 2304 2880 2234 2874 2189 
L 2842 2176 
L 2400 2099 
C 2035 2035 1933 2042 1696 2042 
C 1498 2042 1453 2022 1382 1978 
C 1408 1926 1427 1907 1453 1901 
C 1568 1837 1581 1830 1677 1747 
C 1805 1638 2074 1523 2189 1523 
C 2221 1523 2362 1594 2394 1600 
C 2445 1613 2803 1690 2861 1696 
C 2867 1658 2874 1613 2874 1568 
C 2874 1555 2874 1504 2848 1491 
C 2842 1485 2630 1453 2611 1446 
L 1939 1344 
L 1850 1325 
L 1152 1235 
C 1133 1229 1030 1203 1011 1203 
C 1005 1203 902 1210 896 1210 
C 883 1210 851 1203 838 1203 
L 832 1158 
C 845 1152 883 1088 896 1075 
C 973 1005 1402 800 1658 800 
C 1677 800 1766 787 1786 787 
C 1805 787 2048 902 2086 922 
C 2106 934 2214 934 2246 934 
C 2195 845 2029 691 1920 602 
L 1446 211 
C 1434 198 1395 173 1389 173 
C 1325 134 1229 90 1165 51 
L 710 -218 
L 627 -256 
L 627 -269 
C 659 -275 819 -307 858 -307 
C 902 -307 1101 -269 1146 -269 
C 1338 -243 1363 -237 1594 -166 
C 1824 -96 2528 346 2624 435 
C 2854 634 2874 659 2886 723 
L 2906 691 
L 2861 115 
C 2861 96 2810 -64 2810 -102 
C 2810 -307 3053 -621 3226 -621 
C 3328 -621 3603 -493 3603 -230 
C 3603 -205 3597 -173 3590 -147 
C 3584 -109 3584 38 3584 70 
L 3584 717 
L 3603 717 
C 3635 691 3770 525 3808 493 
C 3878 435 4090 262 4154 218 
L 4493 -19 
C 4531 -38 4704 -141 4742 -173 
C 4762 -186 4851 -250 4954 -250 
C 5075 -250 5670 -147 5811 -134 
C 6074 -102 6106 -102 6106 -64 
C 6106 -51 6003 64 5939 90 
L 5357 326 
L 5216 384 
L 4499 749 
L 4032 1011 
C 3942 1062 3930 1062 3898 1101 
C 3885 1114 3866 1126 3846 1139 
L 3846 1158 
C 3878 1165 4134 1165 4211 1165 
C 4282 1165 4294 1165 4403 1146 
L 4902 1069 
C 4928 1062 5088 1043 5094 1043 
C 5222 1043 5293 1165 5357 1274 
L 5376 1389 
C 5350 1434 5338 1446 5248 1510 
C 5229 1530 5133 1600 5107 1613 
C 5050 1658 4979 1715 4826 1715 
C 4800 1715 4672 1645 4646 1638 
C 4640 1638 4435 1632 4397 1626 
L 4154 1619 
L 3603 1600 
L 3565 1613 
C 3571 1830 3603 1837 3853 1843 
L 4397 1862 
C 4595 1869 4614 1869 4685 1933 
C 4774 1946 4794 2061 4794 2099 
C 4794 2157 4781 2170 4691 2304 
C 4646 2310 4454 2400 4403 2400 
C 4390 2400 4301 2438 4282 2438 
C 4262 2438 4134 2477 4102 2477 
C 4077 2477 4051 2470 4006 2413 
L 3942 2406 
C 3885 2330 3686 2310 3629 2310 
C 3603 2310 3597 2317 3533 2406 
C 3514 2432 3392 2534 3366 2560 
L 3366 2579 
C 3418 2586 3686 2624 3750 2630 
C 3859 2643 4141 2669 4243 2669 
L 4678 2656 
C 4851 2650 5165 2688 5216 2835 
C 5222 2842 5242 2861 5242 2874 
C 5222 2912 5171 2982 5146 3021 
C 5146 3027 5139 3059 5133 3066 
C 5126 3072 5101 3078 5088 3078 
L 5069 3104 
C 5050 3110 5030 3117 5018 3123 
C 4954 3162 4947 3162 4883 3168 
L 4870 3194 
C 4845 3200 4710 3238 4704 3238 
C 4666 3238 4582 3232 4538 3194 
C 4512 3187 4397 3142 4365 3130 
C 4346 3123 4096 3104 4077 3104 
C 4070 3104 4045 3110 4032 3117 
C 4134 3226 4141 3232 4205 3277 
C 4211 3283 4333 3392 4333 3443 
C 4333 3507 4288 3546 4256 3584 
C 4262 3584 4301 3603 4314 3603 
C 4691 3603 4819 3590 4826 3590 
L 5306 3552 
C 5357 3546 5606 3507 5664 3507 
C 6061 3507 6086 3616 6118 3738 
C 6112 3763 6099 3821 6093 3853 
C 6042 3942 6035 3955 6022 3994 
C 6003 4006 5926 4070 5907 4083 
C 5882 4109 5728 4134 5696 4154 
C 5549 4243 5536 4250 5498 4250 
C 5446 4250 5216 4134 5165 4122 
L 4934 4122 
C 4902 4122 4717 4109 4678 4109 
L 4160 4102 
L 4032 4083 
C 4013 4083 3910 4077 3885 4077 
C 3872 4077 3840 4083 3827 4090 
C 3834 4096 3840 4122 3859 4128 
C 3885 4134 4006 4160 4038 4173 
C 4314 4275 4576 4358 4730 4358 
C 4742 4358 4794 4378 4806 4384 
C 4832 4390 4979 4384 5005 4390 
C 5018 4390 5082 4422 5094 4429 
C 5190 4461 5280 4640 5280 4653 
C 5280 4832 5216 4864 5133 4915 
C 5107 4941 4973 5050 4941 5075 
C 4787 5229 4781 5235 4576 5235 
C 4563 5235 4416 5146 4403 5133 
L 4403 5120 
C 4506 5062 4518 5056 4518 5024 
C 4518 5005 4486 4966 4467 4947 
L 4109 4557 
C 4051 4499 4026 4480 3962 4435 
L 3942 4442 
C 3949 4486 3981 4710 3987 4762 
C 3987 4774 4019 4845 4019 4858 
C 4019 4864 4013 4883 4006 4890 
C 4026 4934 4045 4986 4045 5043 
C 4045 5075 4038 5107 4026 5126 
C 4019 5139 3968 5210 3962 5229 
C 3904 5267 3603 5446 3533 5491 
C 3494 5517 3405 5517 3296 5517 
C 3277 5517 3174 5536 3168 5536 
C 3149 5536 3053 5510 3034 5504 
L 3046 5472 
L 3014 5459 
C 3066 5382 3181 5299 3264 5254 
L 3290 5165 
L 3283 4397 
L 3296 4013 
C 3238 3981 3046 3974 3002 3974 
C 2976 3974 2957 3974 2957 3994 
C 2950 4051 2950 4122 2950 4192 
C 2950 4205 2970 4346 2970 4352 
C 2970 4371 2970 4384 2950 4467 
C 2963 4518 2970 4582 2970 4672 
C 2970 4774 2963 4794 2925 4883 
C 2918 4902 2925 4941 2931 4954 
C 2893 5056 2707 5146 2611 5190 
C 2400 5293 2374 5306 2112 5306 
C 2080 5306 2029 5306 1990 5286 
C 1920 5254 1920 5254 1882 5242 
L 1875 5222 
C 1926 5190 2202 5030 2221 5018 
C 2240 4998 2285 4870 2304 4678 
L 2355 4115 
C 2355 4083 2400 3936 2400 3898 
C 2374 3891 2176 3859 2157 3859 
C 2144 3859 2138 3885 2138 3891 
C 2138 3910 2150 3936 2157 3949 
C 2163 3974 2163 3987 2163 3994 
C 2163 4006 2131 4070 2131 4090 
C 2131 4128 2138 4147 2138 4173 
C 2144 4218 2003 4429 1984 4480 
C 1971 4480 1939 4493 1920 4506 
C 1888 4518 1734 4570 1728 4576 
C 1626 4634 1594 4653 1446 4653 
C 1286 4653 1146 4614 998 4538 
L 998 4518 
C 1139 4435 1152 4422 1235 4390 
C 1370 4339 1485 4102 1491 4083 
C 1542 3904 1549 3878 1638 3808 
L 1638 3789 
L 1542 3776 
L 1018 3693 
C 934 3680 467 3578 397 3584 
L 64 3584 
L 64 3552 
z
M 2720 3424 
C 2720 3443 2714 3456 2726 3462 
C 2797 3494 3264 3558 3430 3558 
C 3462 3558 3494 3552 3494 3520 
C 3494 3507 3379 3213 3373 3206 
C 3290 3085 3283 3072 3264 3034 
C 3232 3021 2906 2970 2867 2970 
C 2854 2970 2842 2970 2829 2982 
C 2835 3014 2848 3085 2848 3117 
C 2829 3174 2797 3290 2778 3347 
C 2778 3373 2746 3398 2720 3424 
z
" transform="scale(0.015625)"/>
     </defs>
     <use xlink:href="#KaishoMCBK1Pro-DeBold-9ad8"/>
     <use xlink:href="#KaishoMCBK1Pro-DeBold-77e5" x="99.999985"/>
     <use xlink:href="#KaishoMCBK1Pro-DeBold-770c" x="199.999969"/>
     <use xlink:href="#KaishoMCBK1Pro-DeBold-306e" x="299.999954"/>
     <use xlink:href="#KaishoMCBK1Pro-DeBold-6c34" x="399.999939"/>
     <use xlink:href="#KaishoMCBK1Pro-DeBold-7523" x="499.999924"/>
     <use xlink:href="#KaishoMCBK1Pro-DeBold-696d" x="599.999908"/>
     <use xlink:href="#KaishoMCBK1Pro-DeBold-306e" x="699.999893"/>
     <use xlink:href="#KaishoMCBK1Pro-DeBold-6e29" x="799.999878"/>
     <use xlink:href="#KaishoMCBK1Pro-DeBold-5ea6" x="899.999863"/>
     <use xlink:href="#KaishoMCBK1Pro-DeBold-5b" x="999.999847"/>
     <use xlink:href="#KaishoMCBK1Pro-DeBold-2103" x="1038.899841"/>
     <use xlink:href="#KaishoMCBK1Pro-DeBold-5d" x="1138.899826"/>
    </g>
   </g>
   <g id="legend_1">
    <g id="patch_7">
     <path d="M 363.716875 190.706125 
L 407.72 190.706125 
Q 409.72 190.706125 409.72 188.706125 
L 409.72 160.349875 
Q 409.72 158.349875 407.72 158.349875 
L 363.716875 158.349875 
Q 361.716875 158.349875 361.716875 160.349875 
L 361.716875 188.706125 
Q 361.716875 190.706125 363.716875 190.706125 
z
" style="fill: #ffffff; opacity: 0.8; stroke: #cccccc; stroke-linejoin: miter"/>
    </g>
    <g id="line2d_14">
     <path d="M 365.716875 166.448312 
L 375.716875 166.448312 
L 385.716875 166.448312 
" style="fill: none; stroke: #1f77b4; stroke-width: 1.5; stroke-linecap: square"/>
    </g>
    <g id="text_14">
     <!-- 日時 -->
     <g transform="translate(393.716875 169.948312)scale(0.1 -0.1)">
      <defs>
       <path id="DejaVuSans-65e5" d="M 319 -1131 
L 319 4513 
L 3519 4513 
L 3519 -1131 
L 319 -1131 
z
M 678 -775 
L 3163 -775 
L 3163 4153 
L 678 4153 
L 678 -775 
z
" transform="scale(0.015625)"/>
       <path id="DejaVuSans-6642" d="M 319 -1131 
L 319 4513 
L 3519 4513 
L 3519 -1131 
L 319 -1131 
z
M 678 -775 
L 3163 -775 
L 3163 4153 
L 678 4153 
L 678 -775 
z
" transform="scale(0.015625)"/>
      </defs>
      <use xlink:href="#DejaVuSans-65e5"/>
      <use xlink:href="#DejaVuSans-6642" x="60.009766"/>
     </g>
    </g>
    <g id="line2d_15">
     <path d="M 365.716875 181.126437 
L 375.716875 181.126437 
L 385.716875 181.126437 
" style="fill: none; stroke: #ff7f0e; stroke-width: 1.5; stroke-linecap: square"/>
    </g>
    <g id="text_15">
     <!-- 温度 -->
     <g transform="translate(393.716875 184.626437)scale(0.1 -0.1)">
      <defs>
       <path id="DejaVuSans-6e29" d="M 319 -1131 
L 319 4513 
L 3519 4513 
L 3519 -1131 
L 319 -1131 
z
M 678 -775 
L 3163 -775 
L 3163 4153 
L 678 4153 
L 678 -775 
z
" transform="scale(0.015625)"/>
       <path id="DejaVuSans-5ea6" d="M 319 -1131 
L 319 4513 
L 3519 4513 
L 3519 -1131 
L 319 -1131 
z
M 678 -775 
L 3163 -775 
L 3163 4153 
L 678 4153 
L 678 -775 
z
" transform="scale(0.015625)"/>
      </defs>
      <use xlink:href="#DejaVuSans-6e29"/>
      <use xlink:href="#DejaVuSans-5ea6" x="60.009766"/>
     </g>
    </g>
   </g>
  </g>
 </g>
 <defs>
  <clipPath id="p34e3862114">
   <rect x="57.6" y="41.472" width="357.12" height="266.112"/>
  </clipPath>
 </defs>
</svg>
