<?xml version="1.0" encoding="utf-8" standalone="no"?>
<!DOCTYPE svg PUBLIC "-//W3C//DTD SVG 1.1//EN"
  "http://www.w3.org/Graphics/SVG/1.1/DTD/svg11.dtd">
<svg xmlns:xlink="http://www.w3.org/1999/xlink" width="216pt" height="216pt" viewBox="0 0 216 216" xmlns="http://www.w3.org/2000/svg" version="1.1">
 <metadata>
  <rdf:RDF xmlns:dc="http://purl.org/dc/elements/1.1/" xmlns:cc="http://creativecommons.org/ns#" xmlns:rdf="http://www.w3.org/1999/02/22-rdf-syntax-ns#">
   <cc:Work>
    <dc:type rdf:resource="http://purl.org/dc/dcmitype/StillImage"/>
    <dc:date>2022-09-10T14:14:59.469444</dc:date>
    <dc:format>image/svg+xml</dc:format>
    <dc:creator>
     <cc:Agent>
      <dc:title>Matplotlib v3.5.3, https://matplotlib.org/</dc:title>
     </cc:Agent>
    </dc:creator>
   </cc:Work>
  </rdf:RDF>
 </metadata>
 <defs>
  <style type="text/css">*{stroke-linejoin: round; stroke-linecap: butt}</style>
 </defs>
 <g id="figure_1">
  <g id="patch_1">
   <path d="M 0 216 
L 216 216 
L 216 0 
L 0 0 
z
" style="fill: #ffffff"/>
  </g>
  <g id="axes_1">
   <g id="patch_2">
    <path d="M 65.99 152.96725 
L 202.729091 152.96725 
L 202.729091 39.055 
L 65.99 39.055 
z
" style="fill: #ffffff"/>
   </g>
   <g id="matplotlib.axis_1">
    <g id="xtick_1">
     <g id="line2d_1">
      <path d="M 69.859974 152.96725 
L 69.859974 39.055 
" clip-path="url(#peba4f43240)" style="fill: none; stroke: #808080; stroke-width: 0.25; stroke-linecap: square"/>
     </g>
     <g id="line2d_2">
      <defs>
       <path id="m622d3ada0b" d="M 0 0 
L 0 3.5 
" style="stroke: #000000; stroke-width: 0.8"/>
      </defs>
      <g>
       <use xlink:href="#m622d3ada0b" x="69.859974" y="152.96725" style="stroke: #000000; stroke-width: 0.8"/>
      </g>
     </g>
     <g id="text_1">
      <!-- 9/30 -->
      <g transform="translate(59.859974 168.014125)scale(0.1 -0.1)">
       <defs>
        <path id="MS-Gothic-39" d="M 2250 4625 
Q 2825 4050 2825 2550 
Q 2825 1025 2150 350 
Q 1850 50 1400 50 
Q 1025 50 800 275 
Q 400 675 375 1175 
L 950 1175 
Q 950 850 1175 625 
Q 1275 525 1450 525 
Q 1625 525 1775 675 
Q 2150 1050 2250 2250 
Q 1975 1675 1400 1675 
Q 1025 1675 725 1975 
Q 325 2375 325 3300 
Q 325 4150 775 4600 
Q 1100 4925 1525 4925 
Q 1950 4925 2250 4625 
z
M 1875 4325 
Q 1725 4475 1500 4475 
Q 1350 4475 1175 4300 
Q 900 4025 900 3300 
Q 900 2525 1150 2275 
Q 1300 2125 1500 2125 
Q 1725 2125 1900 2300 
Q 2200 2600 2200 3200 
Q 2200 4000 1875 4325 
z
" transform="scale(0.015625)"/>
        <path id="MS-Gothic-2f" d="M 125 -550 
L 2775 5275 
L 3025 5125 
L 375 -700 
L 125 -550 
z
" transform="scale(0.015625)"/>
        <path id="MS-Gothic-33" d="M 850 1500 
Q 825 950 1075 700 
Q 1250 525 1550 525 
Q 1800 525 2025 750 
Q 2250 975 2250 1500 
Q 2250 1900 1975 2175 
Q 1775 2375 1375 2350 
L 1375 2775 
Q 1775 2800 1975 3000 
Q 2175 3200 2175 3600 
Q 2175 4100 1950 4325 
Q 1800 4475 1575 4475 
Q 1350 4475 1200 4325 
Q 950 4075 925 3575 
L 375 3575 
Q 400 4225 800 4625 
Q 1100 4925 1575 4925 
Q 2075 4925 2375 4625 
Q 2725 4275 2725 3700 
Q 2725 3175 2450 2900 
Q 2200 2650 1975 2575 
Q 2300 2475 2475 2300 
Q 2825 1950 2825 1450 
Q 2825 800 2425 400 
Q 2075 50 1550 50 
Q 975 50 650 375 
Q 275 750 275 1500 
L 850 1500 
z
" transform="scale(0.015625)"/>
        <path id="MS-Gothic-30" d="M 200 2500 
Q 200 3975 800 4575 
Q 1150 4925 1575 4925 
Q 2000 4925 2350 4575 
Q 2950 3975 2950 2500 
Q 2950 1000 2350 400 
Q 2000 50 1575 50 
Q 1150 50 800 400 
Q 200 1000 200 2500 
z
M 2375 2500 
Q 2375 3825 1900 4300 
Q 1750 4450 1575 4450 
Q 1400 4450 1250 4300 
Q 775 3800 775 2500 
Q 775 1150 1250 675 
Q 1400 525 1575 525 
Q 1750 525 1900 675 
Q 2375 1150 2375 2500 
z
" transform="scale(0.015625)"/>
       </defs>
       <use xlink:href="#MS-Gothic-39"/>
       <use xlink:href="#MS-Gothic-2f" x="50"/>
       <use xlink:href="#MS-Gothic-33" x="100"/>
       <use xlink:href="#MS-Gothic-30" x="150"/>
      </g>
      <!-- 7:00 -->
      <g transform="translate(59.859974 178.537563)scale(0.1 -0.1)">
       <defs>
        <path id="MS-Gothic-37" d="M 1025 50 
L 2250 4450 
L 400 4450 
L 400 4925 
L 2775 4925 
L 2775 4400 
L 1600 50 
L 1025 50 
z
" transform="scale(0.015625)"/>
        <path id="MS-Gothic-3a" d="M 1850 675 
L 1275 675 
L 1275 1225 
L 1850 1225 
L 1850 675 
z
M 1275 3475 
L 1275 4025 
L 1850 4025 
L 1850 3475 
L 1275 3475 
z
" transform="scale(0.015625)"/>
       </defs>
       <use xlink:href="#MS-Gothic-37"/>
       <use xlink:href="#MS-Gothic-3a" x="50"/>
       <use xlink:href="#MS-Gothic-30" x="100"/>
       <use xlink:href="#MS-Gothic-30" x="150"/>
      </g>
     </g>
    </g>
    <g id="xtick_2">
     <g id="line2d_3">
      <path d="M 102.10976 152.96725 
L 102.10976 39.055 
" clip-path="url(#peba4f43240)" style="fill: none; stroke: #808080; stroke-width: 0.25; stroke-linecap: square"/>
     </g>
     <g id="line2d_4">
      <g>
       <use xlink:href="#m622d3ada0b" x="102.10976" y="152.96725" style="stroke: #000000; stroke-width: 0.8"/>
      </g>
     </g>
     <g id="text_2">
      <!-- 9/30 -->
      <g transform="translate(92.10976 168.014125)scale(0.1 -0.1)">
       <use xlink:href="#MS-Gothic-39"/>
       <use xlink:href="#MS-Gothic-2f" x="50"/>
       <use xlink:href="#MS-Gothic-33" x="100"/>
       <use xlink:href="#MS-Gothic-30" x="150"/>
      </g>
      <!-- 13:00 -->
      <g transform="translate(89.60976 178.537563)scale(0.1 -0.1)">
       <defs>
        <path id="MS-Gothic-31" d="M 1375 50 
L 1375 2000 
L 1375 3925 
L 625 3925 
L 625 4225 
Q 1500 4225 1650 4925 
L 1950 4925 
L 1950 50 
L 1375 50 
z
" transform="scale(0.015625)"/>
       </defs>
       <use xlink:href="#MS-Gothic-31"/>
       <use xlink:href="#MS-Gothic-33" x="50"/>
       <use xlink:href="#MS-Gothic-3a" x="100"/>
       <use xlink:href="#MS-Gothic-30" x="150"/>
       <use xlink:href="#MS-Gothic-30" x="200"/>
      </g>
     </g>
    </g>
    <g id="xtick_3">
     <g id="line2d_5">
      <path d="M 134.359545 152.96725 
L 134.359545 39.055 
" clip-path="url(#peba4f43240)" style="fill: none; stroke: #808080; stroke-width: 0.25; stroke-linecap: square"/>
     </g>
     <g id="line2d_6">
      <g>
       <use xlink:href="#m622d3ada0b" x="134.359545" y="152.96725" style="stroke: #000000; stroke-width: 0.8"/>
      </g>
     </g>
     <g id="text_3">
      <!-- 9/30 -->
      <g transform="translate(124.359545 168.014125)scale(0.1 -0.1)">
       <use xlink:href="#MS-Gothic-39"/>
       <use xlink:href="#MS-Gothic-2f" x="50"/>
       <use xlink:href="#MS-Gothic-33" x="100"/>
       <use xlink:href="#MS-Gothic-30" x="150"/>
      </g>
      <!-- 19:00 -->
      <g transform="translate(121.859545 178.537563)scale(0.1 -0.1)">
       <use xlink:href="#MS-Gothic-31"/>
       <use xlink:href="#MS-Gothic-39" x="50"/>
       <use xlink:href="#MS-Gothic-3a" x="100"/>
       <use xlink:href="#MS-Gothic-30" x="150"/>
       <use xlink:href="#MS-Gothic-30" x="200"/>
      </g>
     </g>
    </g>
    <g id="xtick_4">
     <g id="line2d_7">
      <path d="M 166.609331 152.96725 
L 166.609331 39.055 
" clip-path="url(#peba4f43240)" style="fill: none; stroke: #808080; stroke-width: 0.25; stroke-linecap: square"/>
     </g>
     <g id="line2d_8">
      <g>
       <use xlink:href="#m622d3ada0b" x="166.609331" y="152.96725" style="stroke: #000000; stroke-width: 0.8"/>
      </g>
     </g>
     <g id="text_4">
      <!-- 10/1 -->
      <g transform="translate(156.609331 168.014125)scale(0.1 -0.1)">
       <use xlink:href="#MS-Gothic-31"/>
       <use xlink:href="#MS-Gothic-30" x="50"/>
       <use xlink:href="#MS-Gothic-2f" x="100"/>
       <use xlink:href="#MS-Gothic-31" x="150"/>
      </g>
      <!-- 1:00 -->
      <g transform="translate(156.609331 178.537563)scale(0.1 -0.1)">
       <use xlink:href="#MS-Gothic-31"/>
       <use xlink:href="#MS-Gothic-3a" x="50"/>
       <use xlink:href="#MS-Gothic-30" x="100"/>
       <use xlink:href="#MS-Gothic-30" x="150"/>
      </g>
     </g>
    </g>
    <g id="xtick_5">
     <g id="line2d_9">
      <path d="M 198.859117 152.96725 
L 198.859117 39.055 
" clip-path="url(#peba4f43240)" style="fill: none; stroke: #808080; stroke-width: 0.25; stroke-linecap: square"/>
     </g>
     <g id="line2d_10">
      <g>
       <use xlink:href="#m622d3ada0b" x="198.859117" y="152.96725" style="stroke: #000000; stroke-width: 0.8"/>
      </g>
     </g>
     <g id="text_5">
      <!-- 10/1 -->
      <g transform="translate(188.859117 168.014125)scale(0.1 -0.1)">
       <use xlink:href="#MS-Gothic-31"/>
       <use xlink:href="#MS-Gothic-30" x="50"/>
       <use xlink:href="#MS-Gothic-2f" x="100"/>
       <use xlink:href="#MS-Gothic-31" x="150"/>
      </g>
      <!-- 7:00 -->
      <g transform="translate(188.859117 178.537563)scale(0.1 -0.1)">
       <use xlink:href="#MS-Gothic-37"/>
       <use xlink:href="#MS-Gothic-3a" x="50"/>
       <use xlink:href="#MS-Gothic-30" x="100"/>
       <use xlink:href="#MS-Gothic-30" x="150"/>
      </g>
     </g>
    </g>
    <g id="text_6">
     <!-- 日時2021年 -->
     <g transform="translate(96.859545 201.369594)scale(0.15 -0.15)">
      <defs>
       <path id="MS-Gothic-65e5" d="M 1825 -225 
L 1250 -225 
L 1250 4600 
L 5175 4600 
L 5175 -125 
L 4600 -125 
L 4600 225 
L 1825 225 
L 1825 -225 
z
M 4600 2700 
L 4600 4125 
L 1825 4125 
L 1825 2700 
L 4600 2700 
z
M 4600 700 
L 4600 2225 
L 1825 2225 
L 1825 700 
L 4600 700 
z
" transform="scale(0.015625)"/>
       <path id="MS-Gothic-6642" d="M 3575 300 
Q 3275 825 3075 1050 
L 3500 1350 
Q 3700 1125 4025 625 
L 3575 300 
z
M 4550 -50 
Q 4650 -50 4650 50 
L 4650 1525 
L 2550 1525 
L 2550 2000 
L 4650 2000 
L 4650 2650 
L 2275 2650 
L 2275 275 
L 1850 275 
L 1850 475 
L 1000 475 
L 1000 25 
L 575 25 
L 575 4625 
L 2275 4625 
L 2275 3125 
L 3800 3125 
L 3800 3850 
L 2725 3850 
L 2725 4325 
L 3800 4325 
L 3800 5175 
L 4275 5175 
Q 4475 5150 4300 5025 
L 4300 4325 
L 5575 4325 
L 5575 3850 
L 4300 3850 
L 4300 3125 
L 6050 3125 
L 6050 2650 
L 5150 2650 
L 5150 2000 
L 5900 2000 
L 5900 1525 
L 5150 1525 
L 5150 -125 
Q 5150 -525 4750 -525 
L 4225 -525 
L 4125 -50 
L 4550 -50 
z
M 1000 2875 
L 1850 2875 
L 1850 4150 
L 1000 4150 
L 1000 2875 
z
M 1000 950 
L 1850 950 
L 1850 2400 
L 1000 2400 
L 1000 950 
z
" transform="scale(0.015625)"/>
       <path id="MS-Gothic-32" d="M 2850 525 
L 2850 50 
L 300 50 
L 300 450 
Q 875 1525 1725 2500 
Q 2200 3050 2200 3650 
Q 2200 4075 1975 4300 
Q 1825 4450 1575 4450 
Q 1375 4450 1175 4250 
Q 950 4025 950 3325 
L 400 3325 
Q 425 4225 825 4625 
Q 1125 4925 1625 4925 
Q 2100 4925 2425 4600 
Q 2775 4250 2775 3625 
Q 2775 2900 2100 2125 
Q 1375 1300 900 525 
L 2850 525 
z
" transform="scale(0.015625)"/>
       <path id="MS-Gothic-5e74" d="M 2000 3900 
Q 1525 3075 825 2525 
L 475 2975 
Q 1500 3725 1875 5150 
L 2450 5000 
Q 2550 4900 2375 4875 
L 2175 4375 
L 5700 4375 
L 5700 3900 
L 3875 3900 
L 3875 3050 
L 5375 3050 
L 5375 2575 
L 3875 2575 
L 3875 1450 
L 5975 1450 
L 5975 975 
L 3875 975 
L 3875 -525 
L 3375 -525 
L 3375 975 
L 500 975 
L 500 1450 
L 1625 1450 
L 1625 3050 
L 3375 3050 
L 3375 3900 
L 2000 3900 
z
M 2125 1450 
L 3375 1450 
L 3375 2575 
L 2125 2575 
L 2125 1450 
z
" transform="scale(0.015625)"/>
      </defs>
      <use xlink:href="#MS-Gothic-65e5"/>
      <use xlink:href="#MS-Gothic-6642" x="100"/>
      <use xlink:href="#MS-Gothic-32" x="200"/>
      <use xlink:href="#MS-Gothic-30" x="250"/>
      <use xlink:href="#MS-Gothic-32" x="300"/>
      <use xlink:href="#MS-Gothic-31" x="350"/>
      <use xlink:href="#MS-Gothic-5e74" x="400"/>
     </g>
    </g>
   </g>
   <g id="matplotlib.axis_2">
    <g id="ytick_1">
     <g id="line2d_11">
      <path d="M 65.99 152.96725 
L 202.729091 152.96725 
" clip-path="url(#peba4f43240)" style="fill: none; stroke: #808080; stroke-width: 0.334; stroke-linecap: square"/>
     </g>
     <g id="line2d_12">
      <defs>
       <path id="m3a31146dad" d="M 0 0 
L -3.5 0 
" style="stroke: #000000; stroke-width: 0.8"/>
      </defs>
      <g>
       <use xlink:href="#m3a31146dad" x="65.99" y="152.96725" style="stroke: #000000; stroke-width: 0.8"/>
      </g>
     </g>
     <g id="text_7">
      <!-- 10.0 -->
      <g transform="translate(38.99 156.814906)scale(0.1 -0.1)">
       <defs>
        <path id="MS-Gothic-2e" d="M 1100 600 
L 1100 50 
L 525 50 
L 525 600 
L 1100 600 
z
" transform="scale(0.015625)"/>
       </defs>
       <use xlink:href="#MS-Gothic-31"/>
       <use xlink:href="#MS-Gothic-30" x="50"/>
       <use xlink:href="#MS-Gothic-2e" x="100"/>
       <use xlink:href="#MS-Gothic-30" x="150"/>
      </g>
     </g>
    </g>
    <g id="ytick_2">
     <g id="line2d_13">
      <path d="M 65.99 130.1848 
L 202.729091 130.1848 
" clip-path="url(#peba4f43240)" style="fill: none; stroke: #808080; stroke-width: 0.334; stroke-linecap: square"/>
     </g>
     <g id="line2d_14">
      <g>
       <use xlink:href="#m3a31146dad" x="65.99" y="130.1848" style="stroke: #000000; stroke-width: 0.8"/>
      </g>
     </g>
     <g id="text_8">
      <!-- 15.0 -->
      <g transform="translate(38.99 134.032456)scale(0.1 -0.1)">
       <defs>
        <path id="MS-Gothic-35" d="M 850 1425 
Q 850 925 1100 675 
Q 1250 525 1525 525 
Q 1750 525 1950 725 
Q 2250 1025 2250 1725 
Q 2250 2375 2000 2625 
Q 1850 2775 1650 2775 
Q 1200 2775 925 2250 
L 425 2250 
L 575 4925 
L 2725 4925 
L 2725 4450 
L 1050 4450 
L 950 2825 
Q 1275 3200 1775 3200 
Q 2150 3200 2425 2925 
Q 2825 2525 2825 1725 
Q 2825 875 2350 400 
Q 2000 50 1500 50 
Q 975 50 675 350 
Q 300 725 275 1425 
L 850 1425 
z
" transform="scale(0.015625)"/>
       </defs>
       <use xlink:href="#MS-Gothic-31"/>
       <use xlink:href="#MS-Gothic-35" x="50"/>
       <use xlink:href="#MS-Gothic-2e" x="100"/>
       <use xlink:href="#MS-Gothic-30" x="150"/>
      </g>
     </g>
    </g>
    <g id="ytick_3">
     <g id="line2d_15">
      <path d="M 65.99 107.40235 
L 202.729091 107.40235 
" clip-path="url(#peba4f43240)" style="fill: none; stroke: #808080; stroke-width: 0.334; stroke-linecap: square"/>
     </g>
     <g id="line2d_16">
      <g>
       <use xlink:href="#m3a31146dad" x="65.99" y="107.40235" style="stroke: #000000; stroke-width: 0.8"/>
      </g>
     </g>
     <g id="text_9">
      <!-- 20.0 -->
      <g transform="translate(38.99 111.250006)scale(0.1 -0.1)">
       <use xlink:href="#MS-Gothic-32"/>
       <use xlink:href="#MS-Gothic-30" x="50"/>
       <use xlink:href="#MS-Gothic-2e" x="100"/>
       <use xlink:href="#MS-Gothic-30" x="150"/>
      </g>
     </g>
    </g>
    <g id="ytick_4">
     <g id="line2d_17">
      <path d="M 65.99 84.6199 
L 202.729091 84.6199 
" clip-path="url(#peba4f43240)" style="fill: none; stroke: #808080; stroke-width: 0.334; stroke-linecap: square"/>
     </g>
     <g id="line2d_18">
      <g>
       <use xlink:href="#m3a31146dad" x="65.99" y="84.6199" style="stroke: #000000; stroke-width: 0.8"/>
      </g>
     </g>
     <g id="text_10">
      <!-- 25.0 -->
      <g transform="translate(38.99 88.467556)scale(0.1 -0.1)">
       <use xlink:href="#MS-Gothic-32"/>
       <use xlink:href="#MS-Gothic-35" x="50"/>
       <use xlink:href="#MS-Gothic-2e" x="100"/>
       <use xlink:href="#MS-Gothic-30" x="150"/>
      </g>
     </g>
    </g>
    <g id="ytick_5">
     <g id="line2d_19">
      <path d="M 65.99 61.83745 
L 202.729091 61.83745 
" clip-path="url(#peba4f43240)" style="fill: none; stroke: #808080; stroke-width: 0.334; stroke-linecap: square"/>
     </g>
     <g id="line2d_20">
      <g>
       <use xlink:href="#m3a31146dad" x="65.99" y="61.83745" style="stroke: #000000; stroke-width: 0.8"/>
      </g>
     </g>
     <g id="text_11">
      <!-- 30.0 -->
      <g transform="translate(38.99 65.685106)scale(0.1 -0.1)">
       <use xlink:href="#MS-Gothic-33"/>
       <use xlink:href="#MS-Gothic-30" x="50"/>
       <use xlink:href="#MS-Gothic-2e" x="100"/>
       <use xlink:href="#MS-Gothic-30" x="150"/>
      </g>
     </g>
    </g>
    <g id="ytick_6">
     <g id="line2d_21">
      <path d="M 65.99 39.055 
L 202.729091 39.055 
" clip-path="url(#peba4f43240)" style="fill: none; stroke: #808080; stroke-width: 0.334; stroke-linecap: square"/>
     </g>
     <g id="line2d_22">
      <g>
       <use xlink:href="#m3a31146dad" x="65.99" y="39.055" style="stroke: #000000; stroke-width: 0.8"/>
      </g>
     </g>
     <g id="text_12">
      <!-- 35.0 -->
      <g transform="translate(38.99 42.902656)scale(0.1 -0.1)">
       <use xlink:href="#MS-Gothic-33"/>
       <use xlink:href="#MS-Gothic-35" x="50"/>
       <use xlink:href="#MS-Gothic-2e" x="100"/>
       <use xlink:href="#MS-Gothic-30" x="150"/>
      </g>
     </g>
    </g>
    <g id="text_13">
     <!-- 温 -->
     <g transform="translate(10.99 62.436906)scale(0.15 -0.15)">
      <defs>
       <path id="MS-Gothic-6e29" d="M 875 -250 
Q 875 -500 750 -400 
L 275 25 
Q 900 800 1275 1750 
L 1700 1425 
Q 1275 375 875 -250 
z
M 2775 3950 
L 4825 3950 
L 4825 4500 
L 2775 4500 
L 2775 3950 
z
M 2775 2950 
L 4825 2950 
L 4825 3550 
L 2775 3550 
L 2775 2950 
z
M 5325 4900 
L 5325 2550 
L 2275 2550 
L 2275 4900 
L 5325 4900 
z
M 2075 1975 
L 5575 1975 
L 5575 50 
L 6075 50 
L 6075 -425 
L 1575 -425 
L 1575 50 
L 2075 50 
L 2075 1975 
z
M 2575 1575 
L 2575 50 
L 3125 50 
L 3125 1575 
L 2575 1575 
z
M 3550 50 
L 4100 50 
L 4100 1575 
L 3550 1575 
L 3550 50 
z
M 5075 50 
L 5075 1575 
L 4525 1575 
L 4525 50 
L 5075 50 
z
M 1050 4875 
Q 1550 4650 1900 4275 
L 1550 3825 
Q 1225 4200 725 4475 
L 1050 4875 
z
M 1275 2375 
Q 925 2775 475 3025 
L 800 3425 
Q 1200 3300 1650 2825 
L 1275 2375 
z
" transform="scale(0.015625)"/>
      </defs>
      <use xlink:href="#MS-Gothic-6e29"/>
     </g>
     <!-- 度 -->
     <g transform="translate(10.99 78.292375)scale(0.15 -0.15)">
      <defs>
       <path id="MS-Gothic-5ea6" d="M 5850 -575 
Q 4650 -425 3725 50 
Q 2850 -475 1625 -600 
L 1425 -75 
Q 2550 25 3300 400 
Q 2900 800 2575 1250 
L 1875 1250 
L 1875 1650 
L 4800 1650 
L 4875 1725 
L 5250 1425 
Q 5350 1275 5150 1300 
Q 4725 800 4125 375 
Q 5000 75 5975 0 
L 5850 -575 
z
M 3575 4525 
L 5825 4525 
L 5825 4050 
L 1400 4050 
L 1400 1850 
Q 1400 450 775 -500 
L 325 -125 
Q 900 650 900 1950 
L 900 4525 
L 3000 4525 
L 3000 5175 
L 3550 5175 
Q 3750 5150 3575 5025 
L 3575 4525 
z
M 3725 650 
Q 4025 850 4425 1250 
L 3125 1250 
Q 3375 950 3725 650 
z
M 4625 2000 
L 4125 2000 
L 4125 2150 
L 3050 2150 
L 3050 1975 
L 2550 1975 
L 2550 2975 
L 1550 2975 
L 1550 3375 
L 2550 3375 
L 2550 3850 
L 3025 3850 
Q 3225 3825 3050 3700 
L 3050 3375 
L 4125 3375 
L 4125 3900 
L 4600 3900 
Q 4800 3875 4625 3750 
L 4625 3375 
L 5825 3375 
L 5825 2975 
L 4625 2975 
L 4625 2000 
z
M 4125 2975 
L 3050 2975 
L 3050 2550 
L 4125 2550 
L 4125 2975 
z
" transform="scale(0.015625)"/>
      </defs>
      <use xlink:href="#MS-Gothic-5ea6"/>
     </g>
     <!-- ℃ -->
     <g transform="translate(10.99 94.077531)scale(0.15 -0.15)">
      <defs>
       <path id="MS-Gothic-2103" d="M 1875 4825 
Q 2150 4550 2150 4175 
Q 2150 3775 1875 3500 
Q 1600 3225 1200 3225 
Q 800 3225 525 3500 
Q 250 3775 250 4175 
Q 250 4550 525 4825 
Q 800 5100 1200 5100 
Q 1600 5100 1875 4825 
z
M 1650 3725 
Q 1850 3925 1850 4175 
Q 1850 4425 1650 4625 
Q 1450 4825 1200 4825 
Q 950 4825 750 4625 
Q 575 4450 575 4175 
Q 575 3900 750 3725 
Q 950 3525 1200 3525 
Q 1450 3525 1650 3725 
z
M 2200 2200 
Q 2200 3250 2800 3850 
Q 3325 4375 4175 4375 
Q 5025 4375 5500 3900 
Q 5850 3550 6050 3050 
L 5375 3050 
Q 5225 3325 5025 3525 
Q 4725 3825 4175 3825 
Q 3625 3825 3275 3475 
Q 2875 3075 2875 2200 
Q 2875 1350 3300 925 
Q 3650 575 4225 575 
Q 4675 575 5025 925 
Q 5275 1175 5400 1575 
L 6075 1575 
Q 5900 950 5500 550 
Q 4975 25 4225 25 
Q 3350 25 2875 500 
Q 2200 1175 2200 2200 
z
" transform="scale(0.015625)"/>
      </defs>
      <use xlink:href="#MS-Gothic-2103"/>
     </g>
    </g>
   </g>
   <g id="line2d_23">
    <path d="M 69.859974 59.559205 
L 75.234939 70.494781 
L 80.609903 70.039132 
L 85.984867 70.039132 
L 91.359831 70.039132 
L 96.734796 70.039132 
L 102.10976 70.494781 
L 107.484724 70.494781 
L 112.859688 70.494781 
L 118.234653 70.039132 
L 123.609617 70.039132 
L 128.984581 70.039132 
L 134.359545 70.039132 
L 139.73451 70.039132 
L 145.109474 70.039132 
L 150.484438 70.039132 
L 155.859403 70.039132 
L 161.234367 70.95043 
L 166.609331 71.406079 
L 171.984295 71.406079 
L 177.35926 72.317377 
L 182.734224 72.773026 
L 188.109188 73.228675 
L 193.484152 73.684324 
L 198.859117 73.228675 
" style="fill: none; stroke: #0d0887; stroke-width: 2; stroke-linecap: square"/>
    <defs>
     <path id="m4c94569e4f" d="M 0 1.5 
C 0.397805 1.5 0.77937 1.341951 1.06066 1.06066 
C 1.341951 0.77937 1.5 0.397805 1.5 0 
C 1.5 -0.397805 1.341951 -0.77937 1.06066 -1.06066 
C 0.77937 -1.341951 0.397805 -1.5 0 -1.5 
C -0.397805 -1.5 -0.77937 -1.341951 -1.06066 -1.06066 
C -1.341951 -0.77937 -1.5 -0.397805 -1.5 0 
C -1.5 0.397805 -1.341951 0.77937 -1.06066 1.06066 
C -0.77937 1.341951 -0.397805 1.5 0 1.5 
z
" style="stroke: #0000ff"/>
    </defs>
    <g>
     <use xlink:href="#m4c94569e4f" x="69.859974" y="59.559205" style="fill: #4caf80; stroke: #0000ff"/>
     <use xlink:href="#m4c94569e4f" x="75.234939" y="70.494781" style="fill: #4caf80; stroke: #0000ff"/>
     <use xlink:href="#m4c94569e4f" x="80.609903" y="70.039132" style="fill: #4caf80; stroke: #0000ff"/>
     <use xlink:href="#m4c94569e4f" x="85.984867" y="70.039132" style="fill: #4caf80; stroke: #0000ff"/>
     <use xlink:href="#m4c94569e4f" x="91.359831" y="70.039132" style="fill: #4caf80; stroke: #0000ff"/>
     <use xlink:href="#m4c94569e4f" x="96.734796" y="70.039132" style="fill: #4caf80; stroke: #0000ff"/>
     <use xlink:href="#m4c94569e4f" x="102.10976" y="70.494781" style="fill: #4caf80; stroke: #0000ff"/>
     <use xlink:href="#m4c94569e4f" x="107.484724" y="70.494781" style="fill: #4caf80; stroke: #0000ff"/>
     <use xlink:href="#m4c94569e4f" x="112.859688" y="70.494781" style="fill: #4caf80; stroke: #0000ff"/>
     <use xlink:href="#m4c94569e4f" x="118.234653" y="70.039132" style="fill: #4caf80; stroke: #0000ff"/>
     <use xlink:href="#m4c94569e4f" x="123.609617" y="70.039132" style="fill: #4caf80; stroke: #0000ff"/>
     <use xlink:href="#m4c94569e4f" x="128.984581" y="70.039132" style="fill: #4caf80; stroke: #0000ff"/>
     <use xlink:href="#m4c94569e4f" x="134.359545" y="70.039132" style="fill: #4caf80; stroke: #0000ff"/>
     <use xlink:href="#m4c94569e4f" x="139.73451" y="70.039132" style="fill: #4caf80; stroke: #0000ff"/>
     <use xlink:href="#m4c94569e4f" x="145.109474" y="70.039132" style="fill: #4caf80; stroke: #0000ff"/>
     <use xlink:href="#m4c94569e4f" x="150.484438" y="70.039132" style="fill: #4caf80; stroke: #0000ff"/>
     <use xlink:href="#m4c94569e4f" x="155.859403" y="70.039132" style="fill: #4caf80; stroke: #0000ff"/>
     <use xlink:href="#m4c94569e4f" x="161.234367" y="70.95043" style="fill: #4caf80; stroke: #0000ff"/>
     <use xlink:href="#m4c94569e4f" x="166.609331" y="71.406079" style="fill: #4caf80; stroke: #0000ff"/>
     <use xlink:href="#m4c94569e4f" x="171.984295" y="71.406079" style="fill: #4caf80; stroke: #0000ff"/>
     <use xlink:href="#m4c94569e4f" x="177.35926" y="72.317377" style="fill: #4caf80; stroke: #0000ff"/>
     <use xlink:href="#m4c94569e4f" x="182.734224" y="72.773026" style="fill: #4caf80; stroke: #0000ff"/>
     <use xlink:href="#m4c94569e4f" x="188.109188" y="73.228675" style="fill: #4caf80; stroke: #0000ff"/>
     <use xlink:href="#m4c94569e4f" x="193.484152" y="73.684324" style="fill: #4caf80; stroke: #0000ff"/>
     <use xlink:href="#m4c94569e4f" x="198.859117" y="73.228675" style="fill: #4caf80; stroke: #0000ff"/>
    </g>
   </g>
   <g id="patch_3">
    <path d="M 65.99 152.96725 
L 65.99 39.055 
" style="fill: none; stroke: #000000; stroke-width: 0.8; stroke-linejoin: miter; stroke-linecap: square"/>
   </g>
   <g id="patch_4">
    <path d="M 65.99 152.96725 
L 202.729091 152.96725 
" style="fill: none; stroke: #000000; stroke-width: 0.8; stroke-linejoin: miter; stroke-linecap: square"/>
   </g>
   <g id="text_14">
    <!-- 高知県の水産業の温度[℃] -->
    <g transform="translate(20.359545 26.055)scale(0.19 -0.19)">
     <defs>
      <path id="MS-Gothic-9ad8" d="M 3425 5225 
Q 3675 5175 3450 5025 
L 3450 4625 
L 5950 4625 
L 5950 4150 
L 375 4150 
L 375 4625 
L 2875 4625 
L 2875 5225 
L 3425 5225 
z
M 4375 3425 
L 1975 3425 
L 1975 2900 
L 4375 2900 
L 4375 3425 
z
M 1550 2500 
L 1550 3825 
L 4800 3825 
L 4800 2500 
L 1550 2500 
z
M 5650 -100 
Q 5650 -500 5250 -500 
L 4775 -500 
L 4675 -25 
L 5050 -25 
Q 5150 -25 5150 75 
L 5150 1675 
L 1200 1675 
L 1200 -575 
L 700 -575 
L 700 2150 
L 5650 2150 
L 5650 -100 
z
M 2325 100 
L 2325 -175 
L 1900 -175 
L 1900 1375 
L 4450 1375 
L 4450 100 
L 2325 100 
z
M 2325 500 
L 4025 500 
L 4025 975 
L 2325 975 
L 2325 500 
z
" transform="scale(0.015625)"/>
      <path id="MS-Gothic-77e5" d="M 425 2200 
L 425 2675 
L 1725 2675 
L 1725 3700 
L 1400 3700 
Q 1175 3250 775 2900 
L 400 3275 
Q 1150 3900 1450 5125 
L 1950 4975 
Q 2100 4900 1875 4825 
Q 1775 4525 1600 4175 
L 3175 4175 
L 3175 3700 
L 2225 3700 
L 2225 2675 
L 3475 2675 
L 3475 2200 
L 2225 2200 
Q 2225 1875 2175 1550 
Q 2700 1175 3425 375 
L 3075 -100 
Q 2375 775 2050 1125 
Q 1775 250 775 -400 
L 425 50 
Q 1725 675 1725 2200 
L 425 2200 
z
M 5750 4350 
L 5750 -150 
L 5250 -150 
L 5250 250 
L 4200 250 
L 4200 -225 
L 3700 -225 
L 3700 4350 
L 5750 4350 
z
M 5250 3875 
L 4200 3875 
L 4200 725 
L 5250 725 
L 5250 3875 
z
" transform="scale(0.015625)"/>
      <path id="MS-Gothic-770c" d="M 4475 1150 
Q 4975 650 5950 150 
L 5650 -375 
Q 4800 25 4050 775 
L 4475 1150 
z
M 2300 700 
Q 1875 100 1000 -475 
L 625 0 
Q 1425 475 1900 1125 
L 2375 850 
Q 2500 750 2300 700 
z
M 1275 1350 
L 1275 1100 
L 775 1100 
L 775 4700 
L 1250 4700 
Q 1450 4675 1275 4550 
L 1275 1825 
L 5875 1825 
L 5875 1350 
L 3550 1350 
L 3550 -575 
L 2975 -575 
L 2975 1350 
L 1275 1350 
z
M 2375 2550 
L 4550 2550 
L 4550 3025 
L 2375 3025 
L 2375 2550 
z
M 2375 3425 
L 4550 3425 
L 4550 3825 
L 2375 3825 
L 2375 3425 
z
M 2375 4225 
L 4550 4225 
L 4550 4625 
L 2375 4625 
L 2375 4225 
z
M 1875 2150 
L 1875 5025 
L 5050 5025 
L 5050 2150 
L 1875 2150 
z
" transform="scale(0.015625)"/>
      <path id="MS-Gothic-306e" d="M 3450 3525 
Q 3025 1025 2425 425 
Q 2100 100 1750 100 
Q 1350 100 1125 325 
Q 525 925 525 1825 
Q 525 2925 1300 3700 
Q 2150 4550 3375 4550 
Q 4475 4550 5100 3925 
Q 5800 3225 5800 2275 
Q 5800 1250 5150 600 
Q 4725 175 3850 -225 
L 3325 300 
Q 4200 575 4700 1075 
Q 5175 1550 5175 2225 
Q 5175 3025 4650 3550 
Q 4125 4075 3000 4025 
L 3450 3800 
Q 3750 3675 3450 3525 
z
M 2875 4000 
Q 2225 3850 1750 3375 
Q 1100 2725 1100 1775 
Q 1100 1200 1475 825 
Q 1550 750 1700 750 
Q 1850 750 2025 925 
Q 2600 1500 2875 4000 
z
" transform="scale(0.015625)"/>
      <path id="MS-Gothic-6c34" d="M 5775 -100 
Q 4300 900 3500 2800 
L 3500 -75 
Q 3500 -475 3100 -475 
L 2500 -475 
L 2400 0 
L 2900 0 
Q 3000 0 3000 100 
L 3000 5125 
L 3475 5125 
Q 3675 5100 3500 4975 
L 3500 4250 
Q 3500 3700 3925 2950 
Q 4500 3350 5200 4200 
L 5650 3750 
Q 5775 3550 5500 3600 
Q 4900 3050 4150 2525 
Q 4875 1250 6075 475 
L 5775 -100 
z
M 2650 3350 
Q 2250 975 575 -100 
L 300 425 
Q 1675 1200 2100 3200 
L 650 3200 
L 650 3675 
L 2100 3675 
L 2250 3875 
L 2675 3575 
Q 2850 3475 2650 3350 
z
" transform="scale(0.015625)"/>
      <path id="MS-Gothic-7523" d="M 1975 4100 
L 900 4100 
L 900 4500 
L 3050 4500 
L 3050 5225 
L 3525 5225 
Q 3775 5175 3550 5075 
L 3550 4500 
L 5725 4500 
L 5725 4100 
L 4725 4100 
L 4300 3400 
L 5875 3400 
L 5875 3000 
L 1425 3000 
L 1425 1375 
Q 1425 200 675 -575 
L 300 -100 
Q 925 400 925 1700 
L 925 3400 
L 2275 3400 
L 1975 4100 
z
M 2825 3400 
L 3800 3400 
L 4125 4100 
L 2550 4100 
L 2825 3400 
z
M 1450 -375 
L 1450 25 
L 3500 25 
L 3500 725 
L 2275 725 
L 2275 1125 
L 3500 1125 
L 3500 1700 
L 2550 1700 
Q 2300 1300 1950 950 
L 1600 1350 
Q 2150 1800 2500 2750 
L 2975 2575 
Q 3175 2500 2900 2400 
L 2750 2100 
L 3500 2100 
L 3500 2775 
L 3975 2775 
Q 4200 2725 4000 2625 
L 4000 2100 
L 5550 2100 
L 5550 1700 
L 4000 1700 
L 4000 1125 
L 5225 1125 
L 5225 725 
L 4000 725 
L 4000 25 
L 6000 25 
L 6000 -375 
L 1450 -375 
z
" transform="scale(0.015625)"/>
      <path id="MS-Gothic-696d" d="M 550 175 
Q 1950 500 2750 1250 
L 550 1250 
L 550 1650 
L 2975 1650 
L 2975 2025 
L 1350 2025 
L 1350 2425 
L 2975 2425 
L 2975 2825 
L 1075 2825 
L 1075 3225 
L 2375 3225 
L 2100 3700 
L 550 3700 
L 550 4100 
L 1725 4100 
Q 1550 4350 1275 4575 
L 1650 4875 
Q 1950 4700 2225 4325 
L 1950 4100 
L 2475 4100 
L 2475 5150 
L 2950 5150 
Q 3150 5125 2975 5000 
L 2975 4100 
L 3450 4100 
L 3450 5150 
L 3925 5150 
Q 4125 5125 3950 5000 
L 3950 4100 
L 4550 4100 
L 4275 4300 
Q 4525 4650 4725 4950 
L 5100 4700 
Q 5275 4600 5075 4575 
Q 4950 4350 4725 4100 
L 5925 4100 
L 5925 3700 
L 4350 3700 
L 4075 3225 
L 5450 3225 
L 5450 2825 
L 3475 2825 
L 3475 2425 
L 5150 2425 
L 5150 2025 
L 3475 2025 
L 3475 1650 
L 5950 1650 
L 5950 1250 
L 3775 1250 
Q 4650 475 5975 200 
L 5775 -325 
Q 4400 25 3475 875 
L 3475 -525 
L 2975 -525 
L 2975 825 
Q 2100 50 750 -325 
L 550 175 
z
M 2850 3225 
L 3625 3225 
L 3875 3700 
L 2575 3700 
L 2850 3225 
z
" transform="scale(0.015625)"/>
      <path id="MS-Gothic-5b" d="M 1275 5125 
L 2850 5125 
L 2850 4725 
L 1700 4725 
L 1700 -150 
L 2850 -150 
L 2850 -550 
L 1275 -550 
L 1275 5125 
z
" transform="scale(0.015625)"/>
      <path id="MS-Gothic-5d" d="M 325 4725 
L 325 5125 
L 1900 5125 
L 1900 -550 
L 325 -550 
L 325 -150 
L 1475 -150 
L 1475 4725 
L 325 4725 
z
" transform="scale(0.015625)"/>
     </defs>
     <use xlink:href="#MS-Gothic-9ad8"/>
     <use xlink:href="#MS-Gothic-77e5" x="100"/>
     <use xlink:href="#MS-Gothic-770c" x="200"/>
     <use xlink:href="#MS-Gothic-306e" x="300"/>
     <use xlink:href="#MS-Gothic-6c34" x="400"/>
     <use xlink:href="#MS-Gothic-7523" x="500"/>
     <use xlink:href="#MS-Gothic-696d" x="600"/>
     <use xlink:href="#MS-Gothic-306e" x="700"/>
     <use xlink:href="#MS-Gothic-6e29" x="800"/>
     <use xlink:href="#MS-Gothic-5ea6" x="900"/>
     <use xlink:href="#MS-Gothic-5b" x="1000"/>
     <use xlink:href="#MS-Gothic-2103" x="1050"/>
     <use xlink:href="#MS-Gothic-5d" x="1150"/>
    </g>
   </g>
  </g>
 </g>
 <defs>
  <clipPath id="peba4f43240">
   <rect x="65.99" y="39.055" width="136.739091" height="113.91225"/>
  </clipPath>
 </defs>
</svg>
