<?xml version="1.0" encoding="utf-8" standalone="no"?>
<!DOCTYPE svg PUBLIC "-//W3C//DTD SVG 1.1//EN"
  "http://www.w3.org/Graphics/SVG/1.1/DTD/svg11.dtd">
<svg xmlns:xlink="http://www.w3.org/1999/xlink" width="460.8pt" height="345.6pt" viewBox="0 0 460.8 345.6" xmlns="http://www.w3.org/2000/svg" version="1.1">
 <metadata>
  <rdf:RDF xmlns:dc="http://purl.org/dc/elements/1.1/" xmlns:cc="http://creativecommons.org/ns#" xmlns:rdf="http://www.w3.org/1999/02/22-rdf-syntax-ns#">
   <cc:Work>
    <dc:type rdf:resource="http://purl.org/dc/dcmitype/StillImage"/>
    <dc:date>2022-09-02T14:37:44.577313</dc:date>
    <dc:format>image/svg+xml</dc:format>
    <dc:creator>
     <cc:Agent>
      <dc:title>Matplotlib v3.5.3, https://matplotlib.org/</dc:title>
     </cc:Agent>
    </dc:creator>
   </cc:Work>
  </rdf:RDF>
 </metadata>
 <defs>
  <style type="text/css">*{stroke-linejoin: round; stroke-linecap: butt}</style>
 </defs>
 <g id="figure_1">
  <g id="patch_1">
   <path d="M 0 345.6 
L 460.8 345.6 
L 460.8 0 
L 0 0 
z
" style="fill: #ffffff"/>
  </g>
  <g id="axes_1">
   <g id="patch_2">
    <path d="M 57.6 307.584 
L 414.72 307.584 
L 414.72 41.472 
L 57.6 41.472 
z
" style="fill: #ffffff"/>
   </g>
   <g id="matplotlib.axis_1">
    <g id="xtick_1">
     <g id="line2d_1">
      <defs>
       <path id="m3b42013d39" d="M 0 0 
L 0 3.5 
" style="stroke: #000000; stroke-width: 0.8"/>
      </defs>
      <g>
       <use xlink:href="#m3b42013d39" x="109.002554" y="307.584" style="stroke: #000000; stroke-width: 0.8"/>
      </g>
     </g>
     <g id="text_1">
      <!-- −0.6 -->
      <g transform="translate(96.861148 322.182437)scale(0.1 -0.1)">
       <defs>
        <path id="DejaVuSans-2212" d="M 678 2272 
L 4684 2272 
L 4684 1741 
L 678 1741 
L 678 2272 
z
" transform="scale(0.015625)"/>
        <path id="DejaVuSans-30" d="M 2034 4250 
Q 1547 4250 1301 3770 
Q 1056 3291 1056 2328 
Q 1056 1369 1301 889 
Q 1547 409 2034 409 
Q 2525 409 2770 889 
Q 3016 1369 3016 2328 
Q 3016 3291 2770 3770 
Q 2525 4250 2034 4250 
z
M 2034 4750 
Q 2819 4750 3233 4129 
Q 3647 3509 3647 2328 
Q 3647 1150 3233 529 
Q 2819 -91 2034 -91 
Q 1250 -91 836 529 
Q 422 1150 422 2328 
Q 422 3509 836 4129 
Q 1250 4750 2034 4750 
z
" transform="scale(0.015625)"/>
        <path id="DejaVuSans-2e" d="M 684 794 
L 1344 794 
L 1344 0 
L 684 0 
L 684 794 
z
" transform="scale(0.015625)"/>
        <path id="DejaVuSans-36" d="M 2113 2584 
Q 1688 2584 1439 2293 
Q 1191 2003 1191 1497 
Q 1191 994 1439 701 
Q 1688 409 2113 409 
Q 2538 409 2786 701 
Q 3034 994 3034 1497 
Q 3034 2003 2786 2293 
Q 2538 2584 2113 2584 
z
M 3366 4563 
L 3366 3988 
Q 3128 4100 2886 4159 
Q 2644 4219 2406 4219 
Q 1781 4219 1451 3797 
Q 1122 3375 1075 2522 
Q 1259 2794 1537 2939 
Q 1816 3084 2150 3084 
Q 2853 3084 3261 2657 
Q 3669 2231 3669 1497 
Q 3669 778 3244 343 
Q 2819 -91 2113 -91 
Q 1303 -91 875 529 
Q 447 1150 447 2328 
Q 447 3434 972 4092 
Q 1497 4750 2381 4750 
Q 2619 4750 2861 4703 
Q 3103 4656 3366 4563 
z
" transform="scale(0.015625)"/>
       </defs>
       <use xlink:href="#DejaVuSans-2212"/>
       <use xlink:href="#DejaVuSans-30" x="83.789062"/>
       <use xlink:href="#DejaVuSans-2e" x="147.412109"/>
       <use xlink:href="#DejaVuSans-36" x="179.199219"/>
      </g>
     </g>
    </g>
    <g id="xtick_2">
     <g id="line2d_2">
      <g>
       <use xlink:href="#m3b42013d39" x="173.933463" y="307.584" style="stroke: #000000; stroke-width: 0.8"/>
      </g>
     </g>
     <g id="text_2">
      <!-- −0.4 -->
      <g transform="translate(161.792057 322.182437)scale(0.1 -0.1)">
       <defs>
        <path id="DejaVuSans-34" d="M 2419 4116 
L 825 1625 
L 2419 1625 
L 2419 4116 
z
M 2253 4666 
L 3047 4666 
L 3047 1625 
L 3713 1625 
L 3713 1100 
L 3047 1100 
L 3047 0 
L 2419 0 
L 2419 1100 
L 313 1100 
L 313 1709 
L 2253 4666 
z
" transform="scale(0.015625)"/>
       </defs>
       <use xlink:href="#DejaVuSans-2212"/>
       <use xlink:href="#DejaVuSans-30" x="83.789062"/>
       <use xlink:href="#DejaVuSans-2e" x="147.412109"/>
       <use xlink:href="#DejaVuSans-34" x="179.199219"/>
      </g>
     </g>
    </g>
    <g id="xtick_3">
     <g id="line2d_3">
      <g>
       <use xlink:href="#m3b42013d39" x="238.864372" y="307.584" style="stroke: #000000; stroke-width: 0.8"/>
      </g>
     </g>
     <g id="text_3">
      <!-- −0.2 -->
      <g transform="translate(226.722966 322.182437)scale(0.1 -0.1)">
       <defs>
        <path id="DejaVuSans-32" d="M 1228 531 
L 3431 531 
L 3431 0 
L 469 0 
L 469 531 
Q 828 903 1448 1529 
Q 2069 2156 2228 2338 
Q 2531 2678 2651 2914 
Q 2772 3150 2772 3378 
Q 2772 3750 2511 3984 
Q 2250 4219 1831 4219 
Q 1534 4219 1204 4116 
Q 875 4013 500 3803 
L 500 4441 
Q 881 4594 1212 4672 
Q 1544 4750 1819 4750 
Q 2544 4750 2975 4387 
Q 3406 4025 3406 3419 
Q 3406 3131 3298 2873 
Q 3191 2616 2906 2266 
Q 2828 2175 2409 1742 
Q 1991 1309 1228 531 
z
" transform="scale(0.015625)"/>
       </defs>
       <use xlink:href="#DejaVuSans-2212"/>
       <use xlink:href="#DejaVuSans-30" x="83.789062"/>
       <use xlink:href="#DejaVuSans-2e" x="147.412109"/>
       <use xlink:href="#DejaVuSans-32" x="179.199219"/>
      </g>
     </g>
    </g>
    <g id="xtick_4">
     <g id="line2d_4">
      <g>
       <use xlink:href="#m3b42013d39" x="303.795281" y="307.584" style="stroke: #000000; stroke-width: 0.8"/>
      </g>
     </g>
     <g id="text_4">
      <!-- 0.0 -->
      <g transform="translate(295.843719 322.182437)scale(0.1 -0.1)">
       <use xlink:href="#DejaVuSans-30"/>
       <use xlink:href="#DejaVuSans-2e" x="63.623047"/>
       <use xlink:href="#DejaVuSans-30" x="95.410156"/>
      </g>
     </g>
    </g>
    <g id="xtick_5">
     <g id="line2d_5">
      <g>
       <use xlink:href="#m3b42013d39" x="368.726191" y="307.584" style="stroke: #000000; stroke-width: 0.8"/>
      </g>
     </g>
     <g id="text_5">
      <!-- 0.2 -->
      <g transform="translate(360.774628 322.182437)scale(0.1 -0.1)">
       <use xlink:href="#DejaVuSans-30"/>
       <use xlink:href="#DejaVuSans-2e" x="63.623047"/>
       <use xlink:href="#DejaVuSans-32" x="95.410156"/>
      </g>
     </g>
    </g>
    <g id="text_6">
     <!-- 日時 -->
     <g transform="translate(230.158437 335.860562)scale(0.1 -0.1)">
      <defs>
       <path id="DejaVuSans-65e5" d="M 319 -1131 
L 319 4513 
L 3519 4513 
L 3519 -1131 
L 319 -1131 
z
M 678 -775 
L 3163 -775 
L 3163 4153 
L 678 4153 
L 678 -775 
z
" transform="scale(0.015625)"/>
       <path id="DejaVuSans-6642" d="M 319 -1131 
L 319 4513 
L 3519 4513 
L 3519 -1131 
L 319 -1131 
z
M 678 -775 
L 3163 -775 
L 3163 4153 
L 678 4153 
L 678 -775 
z
" transform="scale(0.015625)"/>
      </defs>
      <use xlink:href="#DejaVuSans-65e5"/>
      <use xlink:href="#DejaVuSans-6642" x="60.009766"/>
     </g>
    </g>
    <g id="text_7">
     <!-- +4.447e4 -->
     <g transform="translate(365.196563 334.860562)scale(0.1 -0.1)">
      <defs>
       <path id="DejaVuSans-2b" d="M 2944 4013 
L 2944 2272 
L 4684 2272 
L 4684 1741 
L 2944 1741 
L 2944 0 
L 2419 0 
L 2419 1741 
L 678 1741 
L 678 2272 
L 2419 2272 
L 2419 4013 
L 2944 4013 
z
" transform="scale(0.015625)"/>
       <path id="DejaVuSans-37" d="M 525 4666 
L 3525 4666 
L 3525 4397 
L 1831 0 
L 1172 0 
L 2766 4134 
L 525 4134 
L 525 4666 
z
" transform="scale(0.015625)"/>
       <path id="DejaVuSans-65" d="M 3597 1894 
L 3597 1613 
L 953 1613 
Q 991 1019 1311 708 
Q 1631 397 2203 397 
Q 2534 397 2845 478 
Q 3156 559 3463 722 
L 3463 178 
Q 3153 47 2828 -22 
Q 2503 -91 2169 -91 
Q 1331 -91 842 396 
Q 353 884 353 1716 
Q 353 2575 817 3079 
Q 1281 3584 2069 3584 
Q 2775 3584 3186 3129 
Q 3597 2675 3597 1894 
z
M 3022 2063 
Q 3016 2534 2758 2815 
Q 2500 3097 2075 3097 
Q 1594 3097 1305 2825 
Q 1016 2553 972 2059 
L 3022 2063 
z
" transform="scale(0.015625)"/>
      </defs>
      <use xlink:href="#DejaVuSans-2b"/>
      <use xlink:href="#DejaVuSans-34" x="83.789062"/>
      <use xlink:href="#DejaVuSans-2e" x="147.412109"/>
      <use xlink:href="#DejaVuSans-34" x="179.199219"/>
      <use xlink:href="#DejaVuSans-34" x="242.822266"/>
      <use xlink:href="#DejaVuSans-37" x="306.445312"/>
      <use xlink:href="#DejaVuSans-65" x="370.068359"/>
      <use xlink:href="#DejaVuSans-34" x="431.591797"/>
     </g>
    </g>
   </g>
   <g id="matplotlib.axis_2">
    <g id="ytick_1">
     <g id="line2d_6">
      <defs>
       <path id="m034877237e" d="M 0 0 
L -3.5 0 
" style="stroke: #000000; stroke-width: 0.8"/>
      </defs>
      <g>
       <use xlink:href="#m034877237e" x="57.6" y="295.488" style="stroke: #000000; stroke-width: 0.8"/>
      </g>
     </g>
     <g id="text_8">
      <!-- 27.4 -->
      <g transform="translate(28.334375 299.287219)scale(0.1 -0.1)">
       <use xlink:href="#DejaVuSans-32"/>
       <use xlink:href="#DejaVuSans-37" x="63.623047"/>
       <use xlink:href="#DejaVuSans-2e" x="127.246094"/>
       <use xlink:href="#DejaVuSans-34" x="159.033203"/>
      </g>
     </g>
    </g>
    <g id="ytick_2">
     <g id="line2d_7">
      <g>
       <use xlink:href="#m034877237e" x="57.6" y="265.248" style="stroke: #000000; stroke-width: 0.8"/>
      </g>
     </g>
     <g id="text_9">
      <!-- 27.5 -->
      <g transform="translate(28.334375 269.047219)scale(0.1 -0.1)">
       <defs>
        <path id="DejaVuSans-35" d="M 691 4666 
L 3169 4666 
L 3169 4134 
L 1269 4134 
L 1269 2991 
Q 1406 3038 1543 3061 
Q 1681 3084 1819 3084 
Q 2600 3084 3056 2656 
Q 3513 2228 3513 1497 
Q 3513 744 3044 326 
Q 2575 -91 1722 -91 
Q 1428 -91 1123 -41 
Q 819 9 494 109 
L 494 744 
Q 775 591 1075 516 
Q 1375 441 1709 441 
Q 2250 441 2565 725 
Q 2881 1009 2881 1497 
Q 2881 1984 2565 2268 
Q 2250 2553 1709 2553 
Q 1456 2553 1204 2497 
Q 953 2441 691 2322 
L 691 4666 
z
" transform="scale(0.015625)"/>
       </defs>
       <use xlink:href="#DejaVuSans-32"/>
       <use xlink:href="#DejaVuSans-37" x="63.623047"/>
       <use xlink:href="#DejaVuSans-2e" x="127.246094"/>
       <use xlink:href="#DejaVuSans-35" x="159.033203"/>
      </g>
     </g>
    </g>
    <g id="ytick_3">
     <g id="line2d_8">
      <g>
       <use xlink:href="#m034877237e" x="57.6" y="235.008" style="stroke: #000000; stroke-width: 0.8"/>
      </g>
     </g>
     <g id="text_10">
      <!-- 27.6 -->
      <g transform="translate(28.334375 238.807219)scale(0.1 -0.1)">
       <use xlink:href="#DejaVuSans-32"/>
       <use xlink:href="#DejaVuSans-37" x="63.623047"/>
       <use xlink:href="#DejaVuSans-2e" x="127.246094"/>
       <use xlink:href="#DejaVuSans-36" x="159.033203"/>
      </g>
     </g>
    </g>
    <g id="ytick_4">
     <g id="line2d_9">
      <g>
       <use xlink:href="#m034877237e" x="57.6" y="204.768" style="stroke: #000000; stroke-width: 0.8"/>
      </g>
     </g>
     <g id="text_11">
      <!-- 27.7 -->
      <g transform="translate(28.334375 208.567219)scale(0.1 -0.1)">
       <use xlink:href="#DejaVuSans-32"/>
       <use xlink:href="#DejaVuSans-37" x="63.623047"/>
       <use xlink:href="#DejaVuSans-2e" x="127.246094"/>
       <use xlink:href="#DejaVuSans-37" x="159.033203"/>
      </g>
     </g>
    </g>
    <g id="ytick_5">
     <g id="line2d_10">
      <g>
       <use xlink:href="#m034877237e" x="57.6" y="174.528" style="stroke: #000000; stroke-width: 0.8"/>
      </g>
     </g>
     <g id="text_12">
      <!-- 27.8 -->
      <g transform="translate(28.334375 178.327219)scale(0.1 -0.1)">
       <defs>
        <path id="DejaVuSans-38" d="M 2034 2216 
Q 1584 2216 1326 1975 
Q 1069 1734 1069 1313 
Q 1069 891 1326 650 
Q 1584 409 2034 409 
Q 2484 409 2743 651 
Q 3003 894 3003 1313 
Q 3003 1734 2745 1975 
Q 2488 2216 2034 2216 
z
M 1403 2484 
Q 997 2584 770 2862 
Q 544 3141 544 3541 
Q 544 4100 942 4425 
Q 1341 4750 2034 4750 
Q 2731 4750 3128 4425 
Q 3525 4100 3525 3541 
Q 3525 3141 3298 2862 
Q 3072 2584 2669 2484 
Q 3125 2378 3379 2068 
Q 3634 1759 3634 1313 
Q 3634 634 3220 271 
Q 2806 -91 2034 -91 
Q 1263 -91 848 271 
Q 434 634 434 1313 
Q 434 1759 690 2068 
Q 947 2378 1403 2484 
z
M 1172 3481 
Q 1172 3119 1398 2916 
Q 1625 2713 2034 2713 
Q 2441 2713 2670 2916 
Q 2900 3119 2900 3481 
Q 2900 3844 2670 4047 
Q 2441 4250 2034 4250 
Q 1625 4250 1398 4047 
Q 1172 3844 1172 3481 
z
" transform="scale(0.015625)"/>
       </defs>
       <use xlink:href="#DejaVuSans-32"/>
       <use xlink:href="#DejaVuSans-37" x="63.623047"/>
       <use xlink:href="#DejaVuSans-2e" x="127.246094"/>
       <use xlink:href="#DejaVuSans-38" x="159.033203"/>
      </g>
     </g>
    </g>
    <g id="ytick_6">
     <g id="line2d_11">
      <g>
       <use xlink:href="#m034877237e" x="57.6" y="144.288" style="stroke: #000000; stroke-width: 0.8"/>
      </g>
     </g>
     <g id="text_13">
      <!-- 27.9 -->
      <g transform="translate(28.334375 148.087219)scale(0.1 -0.1)">
       <defs>
        <path id="DejaVuSans-39" d="M 703 97 
L 703 672 
Q 941 559 1184 500 
Q 1428 441 1663 441 
Q 2288 441 2617 861 
Q 2947 1281 2994 2138 
Q 2813 1869 2534 1725 
Q 2256 1581 1919 1581 
Q 1219 1581 811 2004 
Q 403 2428 403 3163 
Q 403 3881 828 4315 
Q 1253 4750 1959 4750 
Q 2769 4750 3195 4129 
Q 3622 3509 3622 2328 
Q 3622 1225 3098 567 
Q 2575 -91 1691 -91 
Q 1453 -91 1209 -44 
Q 966 3 703 97 
z
M 1959 2075 
Q 2384 2075 2632 2365 
Q 2881 2656 2881 3163 
Q 2881 3666 2632 3958 
Q 2384 4250 1959 4250 
Q 1534 4250 1286 3958 
Q 1038 3666 1038 3163 
Q 1038 2656 1286 2365 
Q 1534 2075 1959 2075 
z
" transform="scale(0.015625)"/>
       </defs>
       <use xlink:href="#DejaVuSans-32"/>
       <use xlink:href="#DejaVuSans-37" x="63.623047"/>
       <use xlink:href="#DejaVuSans-2e" x="127.246094"/>
       <use xlink:href="#DejaVuSans-39" x="159.033203"/>
      </g>
     </g>
    </g>
    <g id="ytick_7">
     <g id="line2d_12">
      <g>
       <use xlink:href="#m034877237e" x="57.6" y="114.048" style="stroke: #000000; stroke-width: 0.8"/>
      </g>
     </g>
     <g id="text_14">
      <!-- 28.0 -->
      <g transform="translate(28.334375 117.847219)scale(0.1 -0.1)">
       <use xlink:href="#DejaVuSans-32"/>
       <use xlink:href="#DejaVuSans-38" x="63.623047"/>
       <use xlink:href="#DejaVuSans-2e" x="127.246094"/>
       <use xlink:href="#DejaVuSans-30" x="159.033203"/>
      </g>
     </g>
    </g>
    <g id="ytick_8">
     <g id="line2d_13">
      <g>
       <use xlink:href="#m034877237e" x="57.6" y="83.808" style="stroke: #000000; stroke-width: 0.8"/>
      </g>
     </g>
     <g id="text_15">
      <!-- 28.1 -->
      <g transform="translate(28.334375 87.607219)scale(0.1 -0.1)">
       <defs>
        <path id="DejaVuSans-31" d="M 794 531 
L 1825 531 
L 1825 4091 
L 703 3866 
L 703 4441 
L 1819 4666 
L 2450 4666 
L 2450 531 
L 3481 531 
L 3481 0 
L 794 0 
L 794 531 
z
" transform="scale(0.015625)"/>
       </defs>
       <use xlink:href="#DejaVuSans-32"/>
       <use xlink:href="#DejaVuSans-38" x="63.623047"/>
       <use xlink:href="#DejaVuSans-2e" x="127.246094"/>
       <use xlink:href="#DejaVuSans-31" x="159.033203"/>
      </g>
     </g>
    </g>
    <g id="ytick_9">
     <g id="line2d_14">
      <g>
       <use xlink:href="#m034877237e" x="57.6" y="53.568" style="stroke: #000000; stroke-width: 0.8"/>
      </g>
     </g>
     <g id="text_16">
      <!-- 28.2 -->
      <g transform="translate(28.334375 57.367219)scale(0.1 -0.1)">
       <use xlink:href="#DejaVuSans-32"/>
       <use xlink:href="#DejaVuSans-38" x="63.623047"/>
       <use xlink:href="#DejaVuSans-2e" x="127.246094"/>
       <use xlink:href="#DejaVuSans-32" x="159.033203"/>
      </g>
     </g>
    </g>
    <g id="text_17">
     <!-- 温度[℃] -->
     <g transform="translate(22.271875 206.528)rotate(-90)scale(0.16 -0.16)">
      <defs>
       <path id="MS-Gothic-6e29" d="M 875 -250 
Q 875 -500 750 -400 
L 275 25 
Q 900 800 1275 1750 
L 1700 1425 
Q 1275 375 875 -250 
z
M 2775 3950 
L 4825 3950 
L 4825 4500 
L 2775 4500 
L 2775 3950 
z
M 2775 2950 
L 4825 2950 
L 4825 3550 
L 2775 3550 
L 2775 2950 
z
M 5325 4900 
L 5325 2550 
L 2275 2550 
L 2275 4900 
L 5325 4900 
z
M 2075 1975 
L 5575 1975 
L 5575 50 
L 6075 50 
L 6075 -425 
L 1575 -425 
L 1575 50 
L 2075 50 
L 2075 1975 
z
M 2575 1575 
L 2575 50 
L 3125 50 
L 3125 1575 
L 2575 1575 
z
M 3550 50 
L 4100 50 
L 4100 1575 
L 3550 1575 
L 3550 50 
z
M 5075 50 
L 5075 1575 
L 4525 1575 
L 4525 50 
L 5075 50 
z
M 1050 4875 
Q 1550 4650 1900 4275 
L 1550 3825 
Q 1225 4200 725 4475 
L 1050 4875 
z
M 1275 2375 
Q 925 2775 475 3025 
L 800 3425 
Q 1200 3300 1650 2825 
L 1275 2375 
z
" transform="scale(0.015625)"/>
       <path id="MS-Gothic-5ea6" d="M 5850 -575 
Q 4650 -425 3725 50 
Q 2850 -475 1625 -600 
L 1425 -75 
Q 2550 25 3300 400 
Q 2900 800 2575 1250 
L 1875 1250 
L 1875 1650 
L 4800 1650 
L 4875 1725 
L 5250 1425 
Q 5350 1275 5150 1300 
Q 4725 800 4125 375 
Q 5000 75 5975 0 
L 5850 -575 
z
M 3575 4525 
L 5825 4525 
L 5825 4050 
L 1400 4050 
L 1400 1850 
Q 1400 450 775 -500 
L 325 -125 
Q 900 650 900 1950 
L 900 4525 
L 3000 4525 
L 3000 5175 
L 3550 5175 
Q 3750 5150 3575 5025 
L 3575 4525 
z
M 3725 650 
Q 4025 850 4425 1250 
L 3125 1250 
Q 3375 950 3725 650 
z
M 4625 2000 
L 4125 2000 
L 4125 2150 
L 3050 2150 
L 3050 1975 
L 2550 1975 
L 2550 2975 
L 1550 2975 
L 1550 3375 
L 2550 3375 
L 2550 3850 
L 3025 3850 
Q 3225 3825 3050 3700 
L 3050 3375 
L 4125 3375 
L 4125 3900 
L 4600 3900 
Q 4800 3875 4625 3750 
L 4625 3375 
L 5825 3375 
L 5825 2975 
L 4625 2975 
L 4625 2000 
z
M 4125 2975 
L 3050 2975 
L 3050 2550 
L 4125 2550 
L 4125 2975 
z
" transform="scale(0.015625)"/>
       <path id="MS-Gothic-5b" d="M 1275 5125 
L 2850 5125 
L 2850 4725 
L 1700 4725 
L 1700 -150 
L 2850 -150 
L 2850 -550 
L 1275 -550 
L 1275 5125 
z
" transform="scale(0.015625)"/>
       <path id="MS-Gothic-2103" d="M 1875 4825 
Q 2150 4550 2150 4175 
Q 2150 3775 1875 3500 
Q 1600 3225 1200 3225 
Q 800 3225 525 3500 
Q 250 3775 250 4175 
Q 250 4550 525 4825 
Q 800 5100 1200 5100 
Q 1600 5100 1875 4825 
z
M 1650 3725 
Q 1850 3925 1850 4175 
Q 1850 4425 1650 4625 
Q 1450 4825 1200 4825 
Q 950 4825 750 4625 
Q 575 4450 575 4175 
Q 575 3900 750 3725 
Q 950 3525 1200 3525 
Q 1450 3525 1650 3725 
z
M 2200 2200 
Q 2200 3250 2800 3850 
Q 3325 4375 4175 4375 
Q 5025 4375 5500 3900 
Q 5850 3550 6050 3050 
L 5375 3050 
Q 5225 3325 5025 3525 
Q 4725 3825 4175 3825 
Q 3625 3825 3275 3475 
Q 2875 3075 2875 2200 
Q 2875 1350 3300 925 
Q 3650 575 4225 575 
Q 4675 575 5025 925 
Q 5275 1175 5400 1575 
L 6075 1575 
Q 5900 950 5500 550 
Q 4975 25 4225 25 
Q 3350 25 2875 500 
Q 2200 1175 2200 2200 
z
" transform="scale(0.015625)"/>
       <path id="MS-Gothic-5d" d="M 325 4725 
L 325 5125 
L 1900 5125 
L 1900 -550 
L 325 -550 
L 325 -150 
L 1475 -150 
L 1475 4725 
L 325 4725 
z
" transform="scale(0.015625)"/>
      </defs>
      <use xlink:href="#MS-Gothic-6e29"/>
      <use xlink:href="#MS-Gothic-5ea6" x="100"/>
      <use xlink:href="#MS-Gothic-5b" x="200"/>
      <use xlink:href="#MS-Gothic-2103" x="250"/>
      <use xlink:href="#MS-Gothic-5d" x="350"/>
     </g>
    </g>
   </g>
   <g id="line2d_15">
    <path d="M 73.832727 83.808 
L 87.357836 83.808 
L 100.886191 53.568 
L 114.414545 53.568 
L 127.939654 53.568 
L 141.468009 53.568 
L 154.996364 83.808 
L 168.521472 83.808 
L 182.049827 83.808 
L 195.578182 53.568 
L 209.10329 53.568 
L 222.631645 53.568 
L 236.16 53.568 
L 249.685108 53.568 
L 263.213463 53.568 
L 276.741818 53.568 
L 290.266927 53.568 
L 303.795281 114.048 
L 317.323636 144.288 
L 330.848745 144.288 
L 344.3771 204.768 
L 357.905455 235.008 
L 371.430563 265.248 
L 384.958918 295.488 
L 398.487273 295.488 
" clip-path="url(#p92fbfd7b27)" style="fill: none; stroke: #1f77b4; stroke-width: 1.5; stroke-linecap: square"/>
   </g>
   <g id="patch_3">
    <path d="M 57.6 307.584 
L 57.6 41.472 
" style="fill: none; stroke: #000000; stroke-width: 0.8; stroke-linejoin: miter; stroke-linecap: square"/>
   </g>
   <g id="patch_4">
    <path d="M 414.72 307.584 
L 414.72 41.472 
" style="fill: none; stroke: #000000; stroke-width: 0.8; stroke-linejoin: miter; stroke-linecap: square"/>
   </g>
   <g id="patch_5">
    <path d="M 57.6 307.584 
L 414.72 307.584 
" style="fill: none; stroke: #000000; stroke-width: 0.8; stroke-linejoin: miter; stroke-linecap: square"/>
   </g>
   <g id="patch_6">
    <path d="M 57.6 41.472 
L 414.72 41.472 
" style="fill: none; stroke: #000000; stroke-width: 0.8; stroke-linejoin: miter; stroke-linecap: square"/>
   </g>
   <g id="text_18">
    <!-- 高知県の水産業の温度[℃] -->
    <g transform="translate(122.16 35.472)scale(0.19 -0.19)">
     <defs>
      <path id="MS-Gothic-9ad8" d="M 3425 5225 
Q 3675 5175 3450 5025 
L 3450 4625 
L 5950 4625 
L 5950 4150 
L 375 4150 
L 375 4625 
L 2875 4625 
L 2875 5225 
L 3425 5225 
z
M 4375 3425 
L 1975 3425 
L 1975 2900 
L 4375 2900 
L 4375 3425 
z
M 1550 2500 
L 1550 3825 
L 4800 3825 
L 4800 2500 
L 1550 2500 
z
M 5650 -100 
Q 5650 -500 5250 -500 
L 4775 -500 
L 4675 -25 
L 5050 -25 
Q 5150 -25 5150 75 
L 5150 1675 
L 1200 1675 
L 1200 -575 
L 700 -575 
L 700 2150 
L 5650 2150 
L 5650 -100 
z
M 2325 100 
L 2325 -175 
L 1900 -175 
L 1900 1375 
L 4450 1375 
L 4450 100 
L 2325 100 
z
M 2325 500 
L 4025 500 
L 4025 975 
L 2325 975 
L 2325 500 
z
" transform="scale(0.015625)"/>
      <path id="MS-Gothic-77e5" d="M 425 2200 
L 425 2675 
L 1725 2675 
L 1725 3700 
L 1400 3700 
Q 1175 3250 775 2900 
L 400 3275 
Q 1150 3900 1450 5125 
L 1950 4975 
Q 2100 4900 1875 4825 
Q 1775 4525 1600 4175 
L 3175 4175 
L 3175 3700 
L 2225 3700 
L 2225 2675 
L 3475 2675 
L 3475 2200 
L 2225 2200 
Q 2225 1875 2175 1550 
Q 2700 1175 3425 375 
L 3075 -100 
Q 2375 775 2050 1125 
Q 1775 250 775 -400 
L 425 50 
Q 1725 675 1725 2200 
L 425 2200 
z
M 5750 4350 
L 5750 -150 
L 5250 -150 
L 5250 250 
L 4200 250 
L 4200 -225 
L 3700 -225 
L 3700 4350 
L 5750 4350 
z
M 5250 3875 
L 4200 3875 
L 4200 725 
L 5250 725 
L 5250 3875 
z
" transform="scale(0.015625)"/>
      <path id="MS-Gothic-770c" d="M 4475 1150 
Q 4975 650 5950 150 
L 5650 -375 
Q 4800 25 4050 775 
L 4475 1150 
z
M 2300 700 
Q 1875 100 1000 -475 
L 625 0 
Q 1425 475 1900 1125 
L 2375 850 
Q 2500 750 2300 700 
z
M 1275 1350 
L 1275 1100 
L 775 1100 
L 775 4700 
L 1250 4700 
Q 1450 4675 1275 4550 
L 1275 1825 
L 5875 1825 
L 5875 1350 
L 3550 1350 
L 3550 -575 
L 2975 -575 
L 2975 1350 
L 1275 1350 
z
M 2375 2550 
L 4550 2550 
L 4550 3025 
L 2375 3025 
L 2375 2550 
z
M 2375 3425 
L 4550 3425 
L 4550 3825 
L 2375 3825 
L 2375 3425 
z
M 2375 4225 
L 4550 4225 
L 4550 4625 
L 2375 4625 
L 2375 4225 
z
M 1875 2150 
L 1875 5025 
L 5050 5025 
L 5050 2150 
L 1875 2150 
z
" transform="scale(0.015625)"/>
      <path id="MS-Gothic-306e" d="M 3450 3525 
Q 3025 1025 2425 425 
Q 2100 100 1750 100 
Q 1350 100 1125 325 
Q 525 925 525 1825 
Q 525 2925 1300 3700 
Q 2150 4550 3375 4550 
Q 4475 4550 5100 3925 
Q 5800 3225 5800 2275 
Q 5800 1250 5150 600 
Q 4725 175 3850 -225 
L 3325 300 
Q 4200 575 4700 1075 
Q 5175 1550 5175 2225 
Q 5175 3025 4650 3550 
Q 4125 4075 3000 4025 
L 3450 3800 
Q 3750 3675 3450 3525 
z
M 2875 4000 
Q 2225 3850 1750 3375 
Q 1100 2725 1100 1775 
Q 1100 1200 1475 825 
Q 1550 750 1700 750 
Q 1850 750 2025 925 
Q 2600 1500 2875 4000 
z
" transform="scale(0.015625)"/>
      <path id="MS-Gothic-6c34" d="M 5775 -100 
Q 4300 900 3500 2800 
L 3500 -75 
Q 3500 -475 3100 -475 
L 2500 -475 
L 2400 0 
L 2900 0 
Q 3000 0 3000 100 
L 3000 5125 
L 3475 5125 
Q 3675 5100 3500 4975 
L 3500 4250 
Q 3500 3700 3925 2950 
Q 4500 3350 5200 4200 
L 5650 3750 
Q 5775 3550 5500 3600 
Q 4900 3050 4150 2525 
Q 4875 1250 6075 475 
L 5775 -100 
z
M 2650 3350 
Q 2250 975 575 -100 
L 300 425 
Q 1675 1200 2100 3200 
L 650 3200 
L 650 3675 
L 2100 3675 
L 2250 3875 
L 2675 3575 
Q 2850 3475 2650 3350 
z
" transform="scale(0.015625)"/>
      <path id="MS-Gothic-7523" d="M 1975 4100 
L 900 4100 
L 900 4500 
L 3050 4500 
L 3050 5225 
L 3525 5225 
Q 3775 5175 3550 5075 
L 3550 4500 
L 5725 4500 
L 5725 4100 
L 4725 4100 
L 4300 3400 
L 5875 3400 
L 5875 3000 
L 1425 3000 
L 1425 1375 
Q 1425 200 675 -575 
L 300 -100 
Q 925 400 925 1700 
L 925 3400 
L 2275 3400 
L 1975 4100 
z
M 2825 3400 
L 3800 3400 
L 4125 4100 
L 2550 4100 
L 2825 3400 
z
M 1450 -375 
L 1450 25 
L 3500 25 
L 3500 725 
L 2275 725 
L 2275 1125 
L 3500 1125 
L 3500 1700 
L 2550 1700 
Q 2300 1300 1950 950 
L 1600 1350 
Q 2150 1800 2500 2750 
L 2975 2575 
Q 3175 2500 2900 2400 
L 2750 2100 
L 3500 2100 
L 3500 2775 
L 3975 2775 
Q 4200 2725 4000 2625 
L 4000 2100 
L 5550 2100 
L 5550 1700 
L 4000 1700 
L 4000 1125 
L 5225 1125 
L 5225 725 
L 4000 725 
L 4000 25 
L 6000 25 
L 6000 -375 
L 1450 -375 
z
" transform="scale(0.015625)"/>
      <path id="MS-Gothic-696d" d="M 550 175 
Q 1950 500 2750 1250 
L 550 1250 
L 550 1650 
L 2975 1650 
L 2975 2025 
L 1350 2025 
L 1350 2425 
L 2975 2425 
L 2975 2825 
L 1075 2825 
L 1075 3225 
L 2375 3225 
L 2100 3700 
L 550 3700 
L 550 4100 
L 1725 4100 
Q 1550 4350 1275 4575 
L 1650 4875 
Q 1950 4700 2225 4325 
L 1950 4100 
L 2475 4100 
L 2475 5150 
L 2950 5150 
Q 3150 5125 2975 5000 
L 2975 4100 
L 3450 4100 
L 3450 5150 
L 3925 5150 
Q 4125 5125 3950 5000 
L 3950 4100 
L 4550 4100 
L 4275 4300 
Q 4525 4650 4725 4950 
L 5100 4700 
Q 5275 4600 5075 4575 
Q 4950 4350 4725 4100 
L 5925 4100 
L 5925 3700 
L 4350 3700 
L 4075 3225 
L 5450 3225 
L 5450 2825 
L 3475 2825 
L 3475 2425 
L 5150 2425 
L 5150 2025 
L 3475 2025 
L 3475 1650 
L 5950 1650 
L 5950 1250 
L 3775 1250 
Q 4650 475 5975 200 
L 5775 -325 
Q 4400 25 3475 875 
L 3475 -525 
L 2975 -525 
L 2975 825 
Q 2100 50 750 -325 
L 550 175 
z
M 2850 3225 
L 3625 3225 
L 3875 3700 
L 2575 3700 
L 2850 3225 
z
" transform="scale(0.015625)"/>
     </defs>
     <use xlink:href="#MS-Gothic-9ad8"/>
     <use xlink:href="#MS-Gothic-77e5" x="100"/>
     <use xlink:href="#MS-Gothic-770c" x="200"/>
     <use xlink:href="#MS-Gothic-306e" x="300"/>
     <use xlink:href="#MS-Gothic-6c34" x="400"/>
     <use xlink:href="#MS-Gothic-7523" x="500"/>
     <use xlink:href="#MS-Gothic-696d" x="600"/>
     <use xlink:href="#MS-Gothic-306e" x="700"/>
     <use xlink:href="#MS-Gothic-6e29" x="800"/>
     <use xlink:href="#MS-Gothic-5ea6" x="900"/>
     <use xlink:href="#MS-Gothic-5b" x="1000"/>
     <use xlink:href="#MS-Gothic-2103" x="1050"/>
     <use xlink:href="#MS-Gothic-5d" x="1150"/>
    </g>
   </g>
   <g id="legend_1">
    <g id="patch_7">
     <path d="M 363.716875 64.150125 
L 407.72 64.150125 
Q 409.72 64.150125 409.72 62.150125 
L 409.72 48.472 
Q 409.72 46.472 407.72 46.472 
L 363.716875 46.472 
Q 361.716875 46.472 361.716875 48.472 
L 361.716875 62.150125 
Q 361.716875 64.150125 363.716875 64.150125 
z
" style="fill: #ffffff; opacity: 0.8; stroke: #cccccc; stroke-linejoin: miter"/>
    </g>
    <g id="line2d_16">
     <path d="M 365.716875 54.570438 
L 375.716875 54.570438 
L 385.716875 54.570438 
" style="fill: none; stroke: #1f77b4; stroke-width: 1.5; stroke-linecap: square"/>
    </g>
    <g id="text_19">
     <!-- 温度 -->
     <g transform="translate(393.716875 58.070438)scale(0.1 -0.1)">
      <defs>
       <path id="DejaVuSans-6e29" d="M 319 -1131 
L 319 4513 
L 3519 4513 
L 3519 -1131 
L 319 -1131 
z
M 678 -775 
L 3163 -775 
L 3163 4153 
L 678 4153 
L 678 -775 
z
" transform="scale(0.015625)"/>
       <path id="DejaVuSans-5ea6" d="M 319 -1131 
L 319 4513 
L 3519 4513 
L 3519 -1131 
L 319 -1131 
z
M 678 -775 
L 3163 -775 
L 3163 4153 
L 678 4153 
L 678 -775 
z
" transform="scale(0.015625)"/>
      </defs>
      <use xlink:href="#DejaVuSans-6e29"/>
      <use xlink:href="#DejaVuSans-5ea6" x="60.009766"/>
     </g>
    </g>
   </g>
  </g>
 </g>
 <defs>
  <clipPath id="p92fbfd7b27">
   <rect x="57.6" y="41.472" width="357.12" height="266.112"/>
  </clipPath>
 </defs>
</svg>
