<?xml version="1.0" encoding="utf-8" standalone="no"?>
<!DOCTYPE svg PUBLIC "-//W3C//DTD SVG 1.1//EN"
  "http://www.w3.org/Graphics/SVG/1.1/DTD/svg11.dtd">
<svg xmlns:xlink="http://www.w3.org/1999/xlink" width="864pt" height="486pt" viewBox="0 0 864 486" xmlns="http://www.w3.org/2000/svg" version="1.1">
 <metadata>
  <rdf:RDF xmlns:dc="http://purl.org/dc/elements/1.1/" xmlns:cc="http://creativecommons.org/ns#" xmlns:rdf="http://www.w3.org/1999/02/22-rdf-syntax-ns#">
   <cc:Work>
    <dc:type rdf:resource="http://purl.org/dc/dcmitype/StillImage"/>
    <dc:date>2022-09-13T09:38:47.404691</dc:date>
    <dc:format>image/svg+xml</dc:format>
    <dc:creator>
     <cc:Agent>
      <dc:title>Matplotlib v3.5.3, https://matplotlib.org/</dc:title>
     </cc:Agent>
    </dc:creator>
   </cc:Work>
  </rdf:RDF>
 </metadata>
 <defs>
  <style type="text/css">*{stroke-linejoin: round; stroke-linecap: butt}</style>
 </defs>
 <g id="figure_1">
  <g id="patch_1">
   <path d="M 0 486 
L 864 486 
L 864 0 
L 0 0 
z
" style="fill: #ffffff; stroke: #000000; stroke-width: 11.4; stroke-linejoin: miter"/>
  </g>
  <g id="axes_1">
   <g id="patch_2">
    <path d="M 90.92 396.964 
L 805.68 396.964 
L 805.68 72.535 
L 90.92 72.535 
z
" style="fill: #ffffff"/>
   </g>
   <g id="matplotlib.axis_1">
    <g id="xtick_1">
     <g id="line2d_1">
      <path d="M 111.149057 396.964 
L 111.149057 72.535 
" clip-path="url(#pfe9430b478)" style="fill: none; stroke: #808080; stroke-width: 0.25; stroke-linecap: square"/>
     </g>
     <g id="line2d_2">
      <defs>
       <path id="mb3cbdd75ba" d="M 0 0 
L 0 3.5 
" style="stroke: #000000; stroke-width: 0.8"/>
      </defs>
      <g>
       <use xlink:href="#mb3cbdd75ba" x="111.149057" y="396.964" style="stroke: #000000; stroke-width: 0.8"/>
      </g>
     </g>
     <g id="text_1">
      <!-- 9/30 -->
      <g transform="translate(96.433119 413.082125)scale(0.12 -0.12)">
       <defs>
        <path id="DejaVuSans-Bold-39" d="M 641 103 
L 641 966 
Q 928 831 1190 764 
Q 1453 697 1709 697 
Q 2247 697 2547 995 
Q 2847 1294 2900 1881 
Q 2688 1725 2447 1647 
Q 2206 1569 1925 1569 
Q 1209 1569 770 1986 
Q 331 2403 331 3084 
Q 331 3838 820 4291 
Q 1309 4744 2131 4744 
Q 3044 4744 3544 4128 
Q 4044 3513 4044 2388 
Q 4044 1231 3459 570 
Q 2875 -91 1856 -91 
Q 1528 -91 1228 -42 
Q 928 6 641 103 
z
M 2125 2350 
Q 2441 2350 2600 2554 
Q 2759 2759 2759 3169 
Q 2759 3575 2600 3781 
Q 2441 3988 2125 3988 
Q 1809 3988 1650 3781 
Q 1491 3575 1491 3169 
Q 1491 2759 1650 2554 
Q 1809 2350 2125 2350 
z
" transform="scale(0.015625)"/>
        <path id="DejaVuSans-Bold-2f" d="M 1644 4666 
L 2338 4666 
L 691 -594 
L 0 -594 
L 1644 4666 
z
" transform="scale(0.015625)"/>
        <path id="DejaVuSans-Bold-33" d="M 2981 2516 
Q 3453 2394 3698 2092 
Q 3944 1791 3944 1325 
Q 3944 631 3412 270 
Q 2881 -91 1863 -91 
Q 1503 -91 1142 -33 
Q 781 25 428 141 
L 428 1069 
Q 766 900 1098 814 
Q 1431 728 1753 728 
Q 2231 728 2486 893 
Q 2741 1059 2741 1369 
Q 2741 1688 2480 1852 
Q 2219 2016 1709 2016 
L 1228 2016 
L 1228 2791 
L 1734 2791 
Q 2188 2791 2409 2933 
Q 2631 3075 2631 3366 
Q 2631 3634 2415 3781 
Q 2200 3928 1806 3928 
Q 1516 3928 1219 3862 
Q 922 3797 628 3669 
L 628 4550 
Q 984 4650 1334 4700 
Q 1684 4750 2022 4750 
Q 2931 4750 3382 4451 
Q 3834 4153 3834 3553 
Q 3834 3144 3618 2883 
Q 3403 2622 2981 2516 
z
" transform="scale(0.015625)"/>
        <path id="DejaVuSans-Bold-30" d="M 2944 2338 
Q 2944 3213 2780 3570 
Q 2616 3928 2228 3928 
Q 1841 3928 1675 3570 
Q 1509 3213 1509 2338 
Q 1509 1453 1675 1090 
Q 1841 728 2228 728 
Q 2613 728 2778 1090 
Q 2944 1453 2944 2338 
z
M 4147 2328 
Q 4147 1169 3647 539 
Q 3147 -91 2228 -91 
Q 1306 -91 806 539 
Q 306 1169 306 2328 
Q 306 3491 806 4120 
Q 1306 4750 2228 4750 
Q 3147 4750 3647 4120 
Q 4147 3491 4147 2328 
z
" transform="scale(0.015625)"/>
       </defs>
       <use xlink:href="#DejaVuSans-Bold-39"/>
       <use xlink:href="#DejaVuSans-Bold-2f" x="69.580078"/>
       <use xlink:href="#DejaVuSans-Bold-33" x="106.103516"/>
       <use xlink:href="#DejaVuSans-Bold-30" x="175.683594"/>
      </g>
      <!-- 8:00 -->
      <g transform="translate(96.225932 426.5195)scale(0.12 -0.12)">
       <defs>
        <path id="DejaVuSans-Bold-38" d="M 2228 2088 
Q 1891 2088 1709 1903 
Q 1528 1719 1528 1375 
Q 1528 1031 1709 848 
Q 1891 666 2228 666 
Q 2563 666 2741 848 
Q 2919 1031 2919 1375 
Q 2919 1722 2741 1905 
Q 2563 2088 2228 2088 
z
M 1350 2484 
Q 925 2613 709 2878 
Q 494 3144 494 3541 
Q 494 4131 934 4440 
Q 1375 4750 2228 4750 
Q 3075 4750 3515 4442 
Q 3956 4134 3956 3541 
Q 3956 3144 3739 2878 
Q 3522 2613 3097 2484 
Q 3572 2353 3814 2058 
Q 4056 1763 4056 1313 
Q 4056 619 3595 264 
Q 3134 -91 2228 -91 
Q 1319 -91 855 264 
Q 391 619 391 1313 
Q 391 1763 633 2058 
Q 875 2353 1350 2484 
z
M 1631 3419 
Q 1631 3141 1786 2991 
Q 1941 2841 2228 2841 
Q 2509 2841 2662 2991 
Q 2816 3141 2816 3419 
Q 2816 3697 2662 3845 
Q 2509 3994 2228 3994 
Q 1941 3994 1786 3844 
Q 1631 3694 1631 3419 
z
" transform="scale(0.015625)"/>
        <path id="DejaVuSans-Bold-3a" d="M 716 3500 
L 1844 3500 
L 1844 2291 
L 716 2291 
L 716 3500 
z
M 716 1209 
L 1844 1209 
L 1844 0 
L 716 0 
L 716 1209 
z
" transform="scale(0.015625)"/>
       </defs>
       <use xlink:href="#DejaVuSans-Bold-38"/>
       <use xlink:href="#DejaVuSans-Bold-3a" x="69.580078"/>
       <use xlink:href="#DejaVuSans-Bold-30" x="109.570312"/>
       <use xlink:href="#DejaVuSans-Bold-30" x="179.150391"/>
      </g>
     </g>
    </g>
    <g id="xtick_2">
     <g id="line2d_3">
      <path d="M 160.046945 396.964 
L 160.046945 72.535 
" clip-path="url(#pfe9430b478)" style="fill: none; stroke: #808080; stroke-width: 0.25; stroke-linecap: square"/>
     </g>
     <g id="line2d_4">
      <g>
       <use xlink:href="#mb3cbdd75ba" x="160.046945" y="396.964" style="stroke: #000000; stroke-width: 0.8"/>
      </g>
     </g>
     <g id="text_2">
      <!-- 9/30 -->
      <g transform="translate(145.331008 413.082125)scale(0.12 -0.12)">
       <use xlink:href="#DejaVuSans-Bold-39"/>
       <use xlink:href="#DejaVuSans-Bold-2f" x="69.580078"/>
       <use xlink:href="#DejaVuSans-Bold-33" x="106.103516"/>
       <use xlink:href="#DejaVuSans-Bold-30" x="175.683594"/>
      </g>
      <!-- 10:00 -->
      <g transform="translate(140.949133 426.5195)scale(0.12 -0.12)">
       <defs>
        <path id="DejaVuSans-Bold-31" d="M 750 831 
L 1813 831 
L 1813 3847 
L 722 3622 
L 722 4441 
L 1806 4666 
L 2950 4666 
L 2950 831 
L 4013 831 
L 4013 0 
L 750 0 
L 750 831 
z
" transform="scale(0.015625)"/>
       </defs>
       <use xlink:href="#DejaVuSans-Bold-31"/>
       <use xlink:href="#DejaVuSans-Bold-30" x="69.580078"/>
       <use xlink:href="#DejaVuSans-Bold-3a" x="139.160156"/>
       <use xlink:href="#DejaVuSans-Bold-30" x="179.150391"/>
       <use xlink:href="#DejaVuSans-Bold-30" x="248.730469"/>
      </g>
     </g>
    </g>
    <g id="xtick_3">
     <g id="line2d_5">
      <path d="M 208.944834 396.964 
L 208.944834 72.535 
" clip-path="url(#pfe9430b478)" style="fill: none; stroke: #808080; stroke-width: 0.25; stroke-linecap: square"/>
     </g>
     <g id="line2d_6">
      <g>
       <use xlink:href="#mb3cbdd75ba" x="208.944834" y="396.964" style="stroke: #000000; stroke-width: 0.8"/>
      </g>
     </g>
     <g id="text_3">
      <!-- 9/30 -->
      <g transform="translate(194.228897 413.082125)scale(0.12 -0.12)">
       <use xlink:href="#DejaVuSans-Bold-39"/>
       <use xlink:href="#DejaVuSans-Bold-2f" x="69.580078"/>
       <use xlink:href="#DejaVuSans-Bold-33" x="106.103516"/>
       <use xlink:href="#DejaVuSans-Bold-30" x="175.683594"/>
      </g>
      <!-- 12:00 -->
      <g transform="translate(189.847022 426.5195)scale(0.12 -0.12)">
       <defs>
        <path id="DejaVuSans-Bold-32" d="M 1844 884 
L 3897 884 
L 3897 0 
L 506 0 
L 506 884 
L 2209 2388 
Q 2438 2594 2547 2791 
Q 2656 2988 2656 3200 
Q 2656 3528 2436 3728 
Q 2216 3928 1850 3928 
Q 1569 3928 1234 3808 
Q 900 3688 519 3450 
L 519 4475 
Q 925 4609 1322 4679 
Q 1719 4750 2100 4750 
Q 2938 4750 3402 4381 
Q 3866 4013 3866 3353 
Q 3866 2972 3669 2642 
Q 3472 2313 2841 1759 
L 1844 884 
z
" transform="scale(0.015625)"/>
       </defs>
       <use xlink:href="#DejaVuSans-Bold-31"/>
       <use xlink:href="#DejaVuSans-Bold-32" x="69.580078"/>
       <use xlink:href="#DejaVuSans-Bold-3a" x="139.160156"/>
       <use xlink:href="#DejaVuSans-Bold-30" x="179.150391"/>
       <use xlink:href="#DejaVuSans-Bold-30" x="248.730469"/>
      </g>
     </g>
    </g>
    <g id="xtick_4">
     <g id="line2d_7">
      <path d="M 257.842723 396.964 
L 257.842723 72.535 
" clip-path="url(#pfe9430b478)" style="fill: none; stroke: #808080; stroke-width: 0.25; stroke-linecap: square"/>
     </g>
     <g id="line2d_8">
      <g>
       <use xlink:href="#mb3cbdd75ba" x="257.842723" y="396.964" style="stroke: #000000; stroke-width: 0.8"/>
      </g>
     </g>
     <g id="text_4">
      <!-- 9/30 -->
      <g transform="translate(243.126786 413.082125)scale(0.12 -0.12)">
       <use xlink:href="#DejaVuSans-Bold-39"/>
       <use xlink:href="#DejaVuSans-Bold-2f" x="69.580078"/>
       <use xlink:href="#DejaVuSans-Bold-33" x="106.103516"/>
       <use xlink:href="#DejaVuSans-Bold-30" x="175.683594"/>
      </g>
      <!-- 14:00 -->
      <g transform="translate(238.744911 426.5195)scale(0.12 -0.12)">
       <defs>
        <path id="DejaVuSans-Bold-34" d="M 2356 3675 
L 1038 1722 
L 2356 1722 
L 2356 3675 
z
M 2156 4666 
L 3494 4666 
L 3494 1722 
L 4159 1722 
L 4159 850 
L 3494 850 
L 3494 0 
L 2356 0 
L 2356 850 
L 288 850 
L 288 1881 
L 2156 4666 
z
" transform="scale(0.015625)"/>
       </defs>
       <use xlink:href="#DejaVuSans-Bold-31"/>
       <use xlink:href="#DejaVuSans-Bold-34" x="69.580078"/>
       <use xlink:href="#DejaVuSans-Bold-3a" x="139.160156"/>
       <use xlink:href="#DejaVuSans-Bold-30" x="179.150391"/>
       <use xlink:href="#DejaVuSans-Bold-30" x="248.730469"/>
      </g>
     </g>
    </g>
    <g id="xtick_5">
     <g id="line2d_9">
      <path d="M 306.740612 396.964 
L 306.740612 72.535 
" clip-path="url(#pfe9430b478)" style="fill: none; stroke: #808080; stroke-width: 0.25; stroke-linecap: square"/>
     </g>
     <g id="line2d_10">
      <g>
       <use xlink:href="#mb3cbdd75ba" x="306.740612" y="396.964" style="stroke: #000000; stroke-width: 0.8"/>
      </g>
     </g>
     <g id="text_5">
      <!-- 9/30 -->
      <g transform="translate(292.024674 413.082125)scale(0.12 -0.12)">
       <use xlink:href="#DejaVuSans-Bold-39"/>
       <use xlink:href="#DejaVuSans-Bold-2f" x="69.580078"/>
       <use xlink:href="#DejaVuSans-Bold-33" x="106.103516"/>
       <use xlink:href="#DejaVuSans-Bold-30" x="175.683594"/>
      </g>
      <!-- 16:00 -->
      <g transform="translate(287.642799 426.5195)scale(0.12 -0.12)">
       <defs>
        <path id="DejaVuSans-Bold-36" d="M 2316 2303 
Q 2000 2303 1842 2098 
Q 1684 1894 1684 1484 
Q 1684 1075 1842 870 
Q 2000 666 2316 666 
Q 2634 666 2792 870 
Q 2950 1075 2950 1484 
Q 2950 1894 2792 2098 
Q 2634 2303 2316 2303 
z
M 3803 4544 
L 3803 3681 
Q 3506 3822 3243 3889 
Q 2981 3956 2731 3956 
Q 2194 3956 1894 3657 
Q 1594 3359 1544 2772 
Q 1750 2925 1990 3001 
Q 2231 3078 2516 3078 
Q 3231 3078 3670 2659 
Q 4109 2241 4109 1563 
Q 4109 813 3618 361 
Q 3128 -91 2303 -91 
Q 1394 -91 895 523 
Q 397 1138 397 2266 
Q 397 3422 980 4083 
Q 1563 4744 2578 4744 
Q 2900 4744 3203 4694 
Q 3506 4644 3803 4544 
z
" transform="scale(0.015625)"/>
       </defs>
       <use xlink:href="#DejaVuSans-Bold-31"/>
       <use xlink:href="#DejaVuSans-Bold-36" x="69.580078"/>
       <use xlink:href="#DejaVuSans-Bold-3a" x="139.160156"/>
       <use xlink:href="#DejaVuSans-Bold-30" x="179.150391"/>
       <use xlink:href="#DejaVuSans-Bold-30" x="248.730469"/>
      </g>
     </g>
    </g>
    <g id="xtick_6">
     <g id="line2d_11">
      <path d="M 355.638501 396.964 
L 355.638501 72.535 
" clip-path="url(#pfe9430b478)" style="fill: none; stroke: #808080; stroke-width: 0.25; stroke-linecap: square"/>
     </g>
     <g id="line2d_12">
      <g>
       <use xlink:href="#mb3cbdd75ba" x="355.638501" y="396.964" style="stroke: #000000; stroke-width: 0.8"/>
      </g>
     </g>
     <g id="text_6">
      <!-- 9/30 -->
      <g transform="translate(340.922563 413.082125)scale(0.12 -0.12)">
       <use xlink:href="#DejaVuSans-Bold-39"/>
       <use xlink:href="#DejaVuSans-Bold-2f" x="69.580078"/>
       <use xlink:href="#DejaVuSans-Bold-33" x="106.103516"/>
       <use xlink:href="#DejaVuSans-Bold-30" x="175.683594"/>
      </g>
      <!-- 18:00 -->
      <g transform="translate(336.540688 426.5195)scale(0.12 -0.12)">
       <use xlink:href="#DejaVuSans-Bold-31"/>
       <use xlink:href="#DejaVuSans-Bold-38" x="69.580078"/>
       <use xlink:href="#DejaVuSans-Bold-3a" x="139.160156"/>
       <use xlink:href="#DejaVuSans-Bold-30" x="179.150391"/>
       <use xlink:href="#DejaVuSans-Bold-30" x="248.730469"/>
      </g>
     </g>
    </g>
    <g id="xtick_7">
     <g id="line2d_13">
      <path d="M 404.53639 396.964 
L 404.53639 72.535 
" clip-path="url(#pfe9430b478)" style="fill: none; stroke: #808080; stroke-width: 0.25; stroke-linecap: square"/>
     </g>
     <g id="line2d_14">
      <g>
       <use xlink:href="#mb3cbdd75ba" x="404.53639" y="396.964" style="stroke: #000000; stroke-width: 0.8"/>
      </g>
     </g>
     <g id="text_7">
      <!-- 9/30 -->
      <g transform="translate(389.820452 413.082125)scale(0.12 -0.12)">
       <use xlink:href="#DejaVuSans-Bold-39"/>
       <use xlink:href="#DejaVuSans-Bold-2f" x="69.580078"/>
       <use xlink:href="#DejaVuSans-Bold-33" x="106.103516"/>
       <use xlink:href="#DejaVuSans-Bold-30" x="175.683594"/>
      </g>
      <!-- 20:00 -->
      <g transform="translate(385.438577 426.5195)scale(0.12 -0.12)">
       <use xlink:href="#DejaVuSans-Bold-32"/>
       <use xlink:href="#DejaVuSans-Bold-30" x="69.580078"/>
       <use xlink:href="#DejaVuSans-Bold-3a" x="139.160156"/>
       <use xlink:href="#DejaVuSans-Bold-30" x="179.150391"/>
       <use xlink:href="#DejaVuSans-Bold-30" x="248.730469"/>
      </g>
     </g>
    </g>
    <g id="xtick_8">
     <g id="line2d_15">
      <path d="M 453.434278 396.964 
L 453.434278 72.535 
" clip-path="url(#pfe9430b478)" style="fill: none; stroke: #808080; stroke-width: 0.25; stroke-linecap: square"/>
     </g>
     <g id="line2d_16">
      <g>
       <use xlink:href="#mb3cbdd75ba" x="453.434278" y="396.964" style="stroke: #000000; stroke-width: 0.8"/>
      </g>
     </g>
     <g id="text_8">
      <!-- 9/30 -->
      <g transform="translate(438.718341 413.082125)scale(0.12 -0.12)">
       <use xlink:href="#DejaVuSans-Bold-39"/>
       <use xlink:href="#DejaVuSans-Bold-2f" x="69.580078"/>
       <use xlink:href="#DejaVuSans-Bold-33" x="106.103516"/>
       <use xlink:href="#DejaVuSans-Bold-30" x="175.683594"/>
      </g>
      <!-- 22:00 -->
      <g transform="translate(434.336466 426.5195)scale(0.12 -0.12)">
       <use xlink:href="#DejaVuSans-Bold-32"/>
       <use xlink:href="#DejaVuSans-Bold-32" x="69.580078"/>
       <use xlink:href="#DejaVuSans-Bold-3a" x="139.160156"/>
       <use xlink:href="#DejaVuSans-Bold-30" x="179.150391"/>
       <use xlink:href="#DejaVuSans-Bold-30" x="248.730469"/>
      </g>
     </g>
    </g>
    <g id="xtick_9">
     <g id="line2d_17">
      <path d="M 502.332167 396.964 
L 502.332167 72.535 
" clip-path="url(#pfe9430b478)" style="fill: none; stroke: #808080; stroke-width: 0.25; stroke-linecap: square"/>
     </g>
     <g id="line2d_18">
      <g>
       <use xlink:href="#mb3cbdd75ba" x="502.332167" y="396.964" style="stroke: #000000; stroke-width: 0.8"/>
      </g>
     </g>
     <g id="text_9">
      <!-- 10/1 -->
      <g transform="translate(487.61623 413.082125)scale(0.12 -0.12)">
       <use xlink:href="#DejaVuSans-Bold-31"/>
       <use xlink:href="#DejaVuSans-Bold-30" x="69.580078"/>
       <use xlink:href="#DejaVuSans-Bold-2f" x="139.160156"/>
       <use xlink:href="#DejaVuSans-Bold-31" x="175.683594"/>
      </g>
      <!-- 0:00 -->
      <g transform="translate(487.409042 426.5195)scale(0.12 -0.12)">
       <use xlink:href="#DejaVuSans-Bold-30"/>
       <use xlink:href="#DejaVuSans-Bold-3a" x="69.580078"/>
       <use xlink:href="#DejaVuSans-Bold-30" x="109.570312"/>
       <use xlink:href="#DejaVuSans-Bold-30" x="179.150391"/>
      </g>
     </g>
    </g>
    <g id="xtick_10">
     <g id="line2d_19">
      <path d="M 551.230056 396.964 
L 551.230056 72.535 
" clip-path="url(#pfe9430b478)" style="fill: none; stroke: #808080; stroke-width: 0.25; stroke-linecap: square"/>
     </g>
     <g id="line2d_20">
      <g>
       <use xlink:href="#mb3cbdd75ba" x="551.230056" y="396.964" style="stroke: #000000; stroke-width: 0.8"/>
      </g>
     </g>
     <g id="text_10">
      <!-- 10/1 -->
      <g transform="translate(536.514118 413.082125)scale(0.12 -0.12)">
       <use xlink:href="#DejaVuSans-Bold-31"/>
       <use xlink:href="#DejaVuSans-Bold-30" x="69.580078"/>
       <use xlink:href="#DejaVuSans-Bold-2f" x="139.160156"/>
       <use xlink:href="#DejaVuSans-Bold-31" x="175.683594"/>
      </g>
      <!-- 2:00 -->
      <g transform="translate(536.306931 426.5195)scale(0.12 -0.12)">
       <use xlink:href="#DejaVuSans-Bold-32"/>
       <use xlink:href="#DejaVuSans-Bold-3a" x="69.580078"/>
       <use xlink:href="#DejaVuSans-Bold-30" x="109.570312"/>
       <use xlink:href="#DejaVuSans-Bold-30" x="179.150391"/>
      </g>
     </g>
    </g>
    <g id="xtick_11">
     <g id="line2d_21">
      <path d="M 600.127945 396.964 
L 600.127945 72.535 
" clip-path="url(#pfe9430b478)" style="fill: none; stroke: #808080; stroke-width: 0.25; stroke-linecap: square"/>
     </g>
     <g id="line2d_22">
      <g>
       <use xlink:href="#mb3cbdd75ba" x="600.127945" y="396.964" style="stroke: #000000; stroke-width: 0.8"/>
      </g>
     </g>
     <g id="text_11">
      <!-- 10/1 -->
      <g transform="translate(585.412007 413.082125)scale(0.12 -0.12)">
       <use xlink:href="#DejaVuSans-Bold-31"/>
       <use xlink:href="#DejaVuSans-Bold-30" x="69.580078"/>
       <use xlink:href="#DejaVuSans-Bold-2f" x="139.160156"/>
       <use xlink:href="#DejaVuSans-Bold-31" x="175.683594"/>
      </g>
      <!-- 4:00 -->
      <g transform="translate(585.20482 426.5195)scale(0.12 -0.12)">
       <use xlink:href="#DejaVuSans-Bold-34"/>
       <use xlink:href="#DejaVuSans-Bold-3a" x="69.580078"/>
       <use xlink:href="#DejaVuSans-Bold-30" x="109.570312"/>
       <use xlink:href="#DejaVuSans-Bold-30" x="179.150391"/>
      </g>
     </g>
    </g>
    <g id="xtick_12">
     <g id="line2d_23">
      <path d="M 649.025834 396.964 
L 649.025834 72.535 
" clip-path="url(#pfe9430b478)" style="fill: none; stroke: #808080; stroke-width: 0.25; stroke-linecap: square"/>
     </g>
     <g id="line2d_24">
      <g>
       <use xlink:href="#mb3cbdd75ba" x="649.025834" y="396.964" style="stroke: #000000; stroke-width: 0.8"/>
      </g>
     </g>
     <g id="text_12">
      <!-- 10/1 -->
      <g transform="translate(634.309896 413.082125)scale(0.12 -0.12)">
       <use xlink:href="#DejaVuSans-Bold-31"/>
       <use xlink:href="#DejaVuSans-Bold-30" x="69.580078"/>
       <use xlink:href="#DejaVuSans-Bold-2f" x="139.160156"/>
       <use xlink:href="#DejaVuSans-Bold-31" x="175.683594"/>
      </g>
      <!-- 6:00 -->
      <g transform="translate(634.102709 426.5195)scale(0.12 -0.12)">
       <use xlink:href="#DejaVuSans-Bold-36"/>
       <use xlink:href="#DejaVuSans-Bold-3a" x="69.580078"/>
       <use xlink:href="#DejaVuSans-Bold-30" x="109.570312"/>
       <use xlink:href="#DejaVuSans-Bold-30" x="179.150391"/>
      </g>
     </g>
    </g>
    <g id="xtick_13">
     <g id="line2d_25">
      <path d="M 697.923722 396.964 
L 697.923722 72.535 
" clip-path="url(#pfe9430b478)" style="fill: none; stroke: #808080; stroke-width: 0.25; stroke-linecap: square"/>
     </g>
     <g id="line2d_26">
      <g>
       <use xlink:href="#mb3cbdd75ba" x="697.923722" y="396.964" style="stroke: #000000; stroke-width: 0.8"/>
      </g>
     </g>
    </g>
    <g id="xtick_14">
     <g id="line2d_27">
      <path d="M 746.821611 396.964 
L 746.821611 72.535 
" clip-path="url(#pfe9430b478)" style="fill: none; stroke: #808080; stroke-width: 0.25; stroke-linecap: square"/>
     </g>
     <g id="line2d_28">
      <g>
       <use xlink:href="#mb3cbdd75ba" x="746.821611" y="396.964" style="stroke: #000000; stroke-width: 0.8"/>
      </g>
     </g>
    </g>
    <g id="xtick_15">
     <g id="line2d_29">
      <path d="M 795.7195 396.964 
L 795.7195 72.535 
" clip-path="url(#pfe9430b478)" style="fill: none; stroke: #808080; stroke-width: 0.25; stroke-linecap: square"/>
     </g>
     <g id="line2d_30">
      <g>
       <use xlink:href="#mb3cbdd75ba" x="795.7195" y="396.964" style="stroke: #000000; stroke-width: 0.8"/>
      </g>
     </g>
    </g>
    <g id="text_13">
     <!-- 日時2021年 -->
     <g transform="translate(408.3 451.327625)scale(0.16 -0.16)">
      <defs>
       <path id="MS-Gothic-65e5" d="M 1825 -225 
L 1250 -225 
L 1250 4600 
L 5175 4600 
L 5175 -125 
L 4600 -125 
L 4600 225 
L 1825 225 
L 1825 -225 
z
M 4600 2700 
L 4600 4125 
L 1825 4125 
L 1825 2700 
L 4600 2700 
z
M 4600 700 
L 4600 2225 
L 1825 2225 
L 1825 700 
L 4600 700 
z
" transform="scale(0.015625)"/>
       <path id="MS-Gothic-6642" d="M 3575 300 
Q 3275 825 3075 1050 
L 3500 1350 
Q 3700 1125 4025 625 
L 3575 300 
z
M 4550 -50 
Q 4650 -50 4650 50 
L 4650 1525 
L 2550 1525 
L 2550 2000 
L 4650 2000 
L 4650 2650 
L 2275 2650 
L 2275 275 
L 1850 275 
L 1850 475 
L 1000 475 
L 1000 25 
L 575 25 
L 575 4625 
L 2275 4625 
L 2275 3125 
L 3800 3125 
L 3800 3850 
L 2725 3850 
L 2725 4325 
L 3800 4325 
L 3800 5175 
L 4275 5175 
Q 4475 5150 4300 5025 
L 4300 4325 
L 5575 4325 
L 5575 3850 
L 4300 3850 
L 4300 3125 
L 6050 3125 
L 6050 2650 
L 5150 2650 
L 5150 2000 
L 5900 2000 
L 5900 1525 
L 5150 1525 
L 5150 -125 
Q 5150 -525 4750 -525 
L 4225 -525 
L 4125 -50 
L 4550 -50 
z
M 1000 2875 
L 1850 2875 
L 1850 4150 
L 1000 4150 
L 1000 2875 
z
M 1000 950 
L 1850 950 
L 1850 2400 
L 1000 2400 
L 1000 950 
z
" transform="scale(0.015625)"/>
       <path id="MS-Gothic-32" d="M 2850 525 
L 2850 50 
L 300 50 
L 300 450 
Q 875 1525 1725 2500 
Q 2200 3050 2200 3650 
Q 2200 4075 1975 4300 
Q 1825 4450 1575 4450 
Q 1375 4450 1175 4250 
Q 950 4025 950 3325 
L 400 3325 
Q 425 4225 825 4625 
Q 1125 4925 1625 4925 
Q 2100 4925 2425 4600 
Q 2775 4250 2775 3625 
Q 2775 2900 2100 2125 
Q 1375 1300 900 525 
L 2850 525 
z
" transform="scale(0.015625)"/>
       <path id="MS-Gothic-30" d="M 200 2500 
Q 200 3975 800 4575 
Q 1150 4925 1575 4925 
Q 2000 4925 2350 4575 
Q 2950 3975 2950 2500 
Q 2950 1000 2350 400 
Q 2000 50 1575 50 
Q 1150 50 800 400 
Q 200 1000 200 2500 
z
M 2375 2500 
Q 2375 3825 1900 4300 
Q 1750 4450 1575 4450 
Q 1400 4450 1250 4300 
Q 775 3800 775 2500 
Q 775 1150 1250 675 
Q 1400 525 1575 525 
Q 1750 525 1900 675 
Q 2375 1150 2375 2500 
z
" transform="scale(0.015625)"/>
       <path id="MS-Gothic-31" d="M 1375 50 
L 1375 2000 
L 1375 3925 
L 625 3925 
L 625 4225 
Q 1500 4225 1650 4925 
L 1950 4925 
L 1950 50 
L 1375 50 
z
" transform="scale(0.015625)"/>
       <path id="MS-Gothic-5e74" d="M 2000 3900 
Q 1525 3075 825 2525 
L 475 2975 
Q 1500 3725 1875 5150 
L 2450 5000 
Q 2550 4900 2375 4875 
L 2175 4375 
L 5700 4375 
L 5700 3900 
L 3875 3900 
L 3875 3050 
L 5375 3050 
L 5375 2575 
L 3875 2575 
L 3875 1450 
L 5975 1450 
L 5975 975 
L 3875 975 
L 3875 -525 
L 3375 -525 
L 3375 975 
L 500 975 
L 500 1450 
L 1625 1450 
L 1625 3050 
L 3375 3050 
L 3375 3900 
L 2000 3900 
z
M 2125 1450 
L 3375 1450 
L 3375 2575 
L 2125 2575 
L 2125 1450 
z
" transform="scale(0.015625)"/>
      </defs>
      <use xlink:href="#MS-Gothic-65e5"/>
      <use xlink:href="#MS-Gothic-6642" x="100"/>
      <use xlink:href="#MS-Gothic-32" x="200"/>
      <use xlink:href="#MS-Gothic-30" x="250"/>
      <use xlink:href="#MS-Gothic-32" x="300"/>
      <use xlink:href="#MS-Gothic-31" x="350"/>
      <use xlink:href="#MS-Gothic-5e74" x="400"/>
     </g>
    </g>
   </g>
   <g id="matplotlib.axis_2">
    <g id="ytick_1">
     <g id="line2d_31">
      <defs>
       <path id="me42a617928" d="M 0 0 
L -3.5 0 
" style="stroke: #000000; stroke-width: 0.8"/>
      </defs>
      <g>
       <use xlink:href="#me42a617928" x="90.92" y="381.443166" style="stroke: #000000; stroke-width: 0.8"/>
      </g>
     </g>
     <g id="text_14">
      <!-- -6.0 -->
      <g transform="translate(57.683125 386.002229)scale(0.12 -0.12)">
       <defs>
        <path id="DejaVuSans-Bold-2d" d="M 347 2297 
L 2309 2297 
L 2309 1388 
L 347 1388 
L 347 2297 
z
" transform="scale(0.015625)"/>
        <path id="DejaVuSans-Bold-2e" d="M 653 1209 
L 1778 1209 
L 1778 0 
L 653 0 
L 653 1209 
z
" transform="scale(0.015625)"/>
       </defs>
       <use xlink:href="#DejaVuSans-Bold-2d"/>
       <use xlink:href="#DejaVuSans-Bold-36" x="41.503906"/>
       <use xlink:href="#DejaVuSans-Bold-2e" x="111.083984"/>
       <use xlink:href="#DejaVuSans-Bold-30" x="149.072266"/>
      </g>
     </g>
    </g>
    <g id="ytick_2">
     <g id="line2d_32">
      <g>
       <use xlink:href="#me42a617928" x="90.92" y="332.545278" style="stroke: #000000; stroke-width: 0.8"/>
      </g>
     </g>
     <g id="text_15">
      <!-- -4.0 -->
      <g transform="translate(57.683125 337.10434)scale(0.12 -0.12)">
       <use xlink:href="#DejaVuSans-Bold-2d"/>
       <use xlink:href="#DejaVuSans-Bold-34" x="41.503906"/>
       <use xlink:href="#DejaVuSans-Bold-2e" x="111.083984"/>
       <use xlink:href="#DejaVuSans-Bold-30" x="149.072266"/>
      </g>
     </g>
    </g>
    <g id="ytick_3">
     <g id="line2d_33">
      <g>
       <use xlink:href="#me42a617928" x="90.92" y="283.647389" style="stroke: #000000; stroke-width: 0.8"/>
      </g>
     </g>
     <g id="text_16">
      <!-- -2.0 -->
      <g transform="translate(57.683125 288.206451)scale(0.12 -0.12)">
       <use xlink:href="#DejaVuSans-Bold-2d"/>
       <use xlink:href="#DejaVuSans-Bold-32" x="41.503906"/>
       <use xlink:href="#DejaVuSans-Bold-2e" x="111.083984"/>
       <use xlink:href="#DejaVuSans-Bold-30" x="149.072266"/>
      </g>
     </g>
    </g>
    <g id="ytick_4">
     <g id="line2d_34">
      <g>
       <use xlink:href="#me42a617928" x="90.92" y="234.7495" style="stroke: #000000; stroke-width: 0.8"/>
      </g>
     </g>
     <g id="text_17">
      <!-- 0.0 -->
      <g transform="translate(62.663125 239.308562)scale(0.12 -0.12)">
       <use xlink:href="#DejaVuSans-Bold-30"/>
       <use xlink:href="#DejaVuSans-Bold-2e" x="69.580078"/>
       <use xlink:href="#DejaVuSans-Bold-30" x="107.568359"/>
      </g>
     </g>
    </g>
    <g id="ytick_5">
     <g id="line2d_35">
      <g>
       <use xlink:href="#me42a617928" x="90.92" y="185.851611" style="stroke: #000000; stroke-width: 0.8"/>
      </g>
     </g>
     <g id="text_18">
      <!-- 2.0 -->
      <g transform="translate(62.663125 190.410674)scale(0.12 -0.12)">
       <use xlink:href="#DejaVuSans-Bold-32"/>
       <use xlink:href="#DejaVuSans-Bold-2e" x="69.580078"/>
       <use xlink:href="#DejaVuSans-Bold-30" x="107.568359"/>
      </g>
     </g>
    </g>
    <g id="ytick_6">
     <g id="line2d_36">
      <g>
       <use xlink:href="#me42a617928" x="90.92" y="136.953722" style="stroke: #000000; stroke-width: 0.8"/>
      </g>
     </g>
     <g id="text_19">
      <!-- 4.0 -->
      <g transform="translate(62.663125 141.512785)scale(0.12 -0.12)">
       <use xlink:href="#DejaVuSans-Bold-34"/>
       <use xlink:href="#DejaVuSans-Bold-2e" x="69.580078"/>
       <use xlink:href="#DejaVuSans-Bold-30" x="107.568359"/>
      </g>
     </g>
    </g>
    <g id="ytick_7">
     <g id="line2d_37">
      <g>
       <use xlink:href="#me42a617928" x="90.92" y="88.055834" style="stroke: #000000; stroke-width: 0.8"/>
      </g>
     </g>
     <g id="text_20">
      <!-- 6.0 -->
      <g transform="translate(62.663125 92.614896)scale(0.12 -0.12)">
       <use xlink:href="#DejaVuSans-Bold-36"/>
       <use xlink:href="#DejaVuSans-Bold-2e" x="69.580078"/>
       <use xlink:href="#DejaVuSans-Bold-30" x="107.568359"/>
      </g>
     </g>
    </g>
    <g id="text_21">
     <!-- ▲ -->
     <g transform="translate(36.683125 215.8495)scale(0.16 -0.16)">
      <defs>
       <path id="MS-Gothic-25b2" d="M 5850 200 
L 600 200 
L 3225 4750 
L 5850 200 
z
" transform="scale(0.015625)"/>
      </defs>
      <use xlink:href="#MS-Gothic-25b2"/>
     </g>
     <!-- N -->
     <g transform="translate(40.683125 232.687)scale(0.16 -0.16)">
      <defs>
       <path id="MS-Gothic-4e" d="M 2875 4925 
L 2875 50 
L 2175 50 
L 875 3700 
L 850 3700 
L 850 50 
L 275 50 
L 275 4925 
L 975 4925 
L 2275 1275 
L 2300 1275 
L 2300 4925 
L 2875 4925 
z
" transform="scale(0.015625)"/>
      </defs>
      <use xlink:href="#MS-Gothic-4e"/>
     </g>
    </g>
   </g>
   <g id="line2d_38">
    <path d="M 111.149057 234.7495 
L 135.598001 234.7495 
L 160.046945 234.7495 
L 184.49589 234.7495 
L 208.944834 234.7495 
L 233.393779 234.7495 
L 257.842723 234.7495 
L 282.291667 234.7495 
L 306.740612 234.7495 
L 331.189556 234.7495 
L 355.638501 234.7495 
L 380.087445 234.7495 
L 404.53639 234.7495 
L 428.985334 234.7495 
L 453.434278 234.7495 
L 477.883223 234.7495 
L 502.332167 234.7495 
L 526.781112 234.7495 
L 551.230056 234.7495 
L 575.679 234.7495 
L 600.127945 234.7495 
L 624.576889 234.7495 
L 649.025834 234.7495 
L 673.474778 234.7495 
" clip-path="url(#pfe9430b478)" style="fill: none; stroke: #000000; stroke-width: 0.334; stroke-linecap: square"/>
    <defs>
     <path id="m865e3efdc3" d="M 0 3 
C 0.795609 3 1.55874 2.683901 2.12132 2.12132 
C 2.683901 1.55874 3 0.795609 3 0 
C 3 -0.795609 2.683901 -1.55874 2.12132 -2.12132 
C 1.55874 -2.683901 0.795609 -3 0 -3 
C -0.795609 -3 -1.55874 -2.683901 -2.12132 -2.12132 
C -2.683901 -1.55874 -3 -0.795609 -3 0 
C -3 0.795609 -2.683901 1.55874 -2.12132 2.12132 
C -1.55874 2.683901 -0.795609 3 0 3 
z
" style="stroke: #000000"/>
    </defs>
    <g clip-path="url(#pfe9430b478)">
     <use xlink:href="#m865e3efdc3" x="111.149057" y="234.7495" style="fill: #ffffff; stroke: #000000"/>
     <use xlink:href="#m865e3efdc3" x="135.598001" y="234.7495" style="fill: #ffffff; stroke: #000000"/>
     <use xlink:href="#m865e3efdc3" x="160.046945" y="234.7495" style="fill: #ffffff; stroke: #000000"/>
     <use xlink:href="#m865e3efdc3" x="184.49589" y="234.7495" style="fill: #ffffff; stroke: #000000"/>
     <use xlink:href="#m865e3efdc3" x="208.944834" y="234.7495" style="fill: #ffffff; stroke: #000000"/>
     <use xlink:href="#m865e3efdc3" x="233.393779" y="234.7495" style="fill: #ffffff; stroke: #000000"/>
     <use xlink:href="#m865e3efdc3" x="257.842723" y="234.7495" style="fill: #ffffff; stroke: #000000"/>
     <use xlink:href="#m865e3efdc3" x="282.291667" y="234.7495" style="fill: #ffffff; stroke: #000000"/>
     <use xlink:href="#m865e3efdc3" x="306.740612" y="234.7495" style="fill: #ffffff; stroke: #000000"/>
     <use xlink:href="#m865e3efdc3" x="331.189556" y="234.7495" style="fill: #ffffff; stroke: #000000"/>
     <use xlink:href="#m865e3efdc3" x="355.638501" y="234.7495" style="fill: #ffffff; stroke: #000000"/>
     <use xlink:href="#m865e3efdc3" x="380.087445" y="234.7495" style="fill: #ffffff; stroke: #000000"/>
     <use xlink:href="#m865e3efdc3" x="404.53639" y="234.7495" style="fill: #ffffff; stroke: #000000"/>
     <use xlink:href="#m865e3efdc3" x="428.985334" y="234.7495" style="fill: #ffffff; stroke: #000000"/>
     <use xlink:href="#m865e3efdc3" x="453.434278" y="234.7495" style="fill: #ffffff; stroke: #000000"/>
     <use xlink:href="#m865e3efdc3" x="477.883223" y="234.7495" style="fill: #ffffff; stroke: #000000"/>
     <use xlink:href="#m865e3efdc3" x="502.332167" y="234.7495" style="fill: #ffffff; stroke: #000000"/>
     <use xlink:href="#m865e3efdc3" x="526.781112" y="234.7495" style="fill: #ffffff; stroke: #000000"/>
     <use xlink:href="#m865e3efdc3" x="551.230056" y="234.7495" style="fill: #ffffff; stroke: #000000"/>
     <use xlink:href="#m865e3efdc3" x="575.679" y="234.7495" style="fill: #ffffff; stroke: #000000"/>
     <use xlink:href="#m865e3efdc3" x="600.127945" y="234.7495" style="fill: #ffffff; stroke: #000000"/>
     <use xlink:href="#m865e3efdc3" x="624.576889" y="234.7495" style="fill: #ffffff; stroke: #000000"/>
     <use xlink:href="#m865e3efdc3" x="649.025834" y="234.7495" style="fill: #ffffff; stroke: #000000"/>
     <use xlink:href="#m865e3efdc3" x="673.474778" y="234.7495" style="fill: #ffffff; stroke: #000000"/>
    </g>
   </g>
   <g id="LineCollection_1">
    <path d="M 111.149057 234.7495 
L 205.415906 143.717062 
" clip-path="url(#pfe9430b478)" style="fill: none; stroke: #ff0000; stroke-opacity: 0.75; stroke-width: 5"/>
    <path d="M 135.598001 234.7495 
L 170.034848 149.515314 
" clip-path="url(#pfe9430b478)" style="fill: none; stroke: #00ff00; stroke-opacity: 0.75; stroke-width: 5"/>
    <path d="M 160.046945 234.7495 
L 185.658868 155.924108 
" clip-path="url(#pfe9430b478)" style="fill: none; stroke: #0000ff; stroke-opacity: 0.75; stroke-width: 5"/>
    <path d="M 184.49589 234.7495 
L 206.663037 177.002108 
" clip-path="url(#pfe9430b478)" style="fill: none; stroke: #ff0000; stroke-opacity: 0.75; stroke-width: 5"/>
    <path d="M 208.944834 234.7495 
L 215.442683 141.825932 
" clip-path="url(#pfe9430b478)" style="fill: none; stroke: #00ff00; stroke-opacity: 0.75; stroke-width: 5"/>
    <path d="M 233.393779 234.7495 
L 285.263282 123.514991 
" clip-path="url(#pfe9430b478)" style="fill: none; stroke: #0000ff; stroke-opacity: 0.75; stroke-width: 5"/>
    <path d="M 257.842723 234.7495 
L 330.784815 118.017751 
" clip-path="url(#pfe9430b478)" style="fill: none; stroke: #ff0000; stroke-opacity: 0.75; stroke-width: 5"/>
    <path d="M 282.291667 234.7495 
L 402.097607 114.94356 
" clip-path="url(#pfe9430b478)" style="fill: none; stroke: #00ff00; stroke-opacity: 0.75; stroke-width: 5"/>
    <path d="M 306.740612 234.7495 
L 306.740612 234.7495 
" clip-path="url(#pfe9430b478)" style="fill: none; stroke: #0000ff; stroke-opacity: 0.75; stroke-width: 5"/>
    <path d="M 331.189556 234.7495 
L 462.935784 120.224252 
" clip-path="url(#pfe9430b478)" style="fill: none; stroke: #ff0000; stroke-opacity: 0.75; stroke-width: 5"/>
    <path d="M 355.638501 234.7495 
L 515.358958 127.016691 
" clip-path="url(#pfe9430b478)" style="fill: none; stroke: #00ff00; stroke-opacity: 0.75; stroke-width: 5"/>
    <path d="M 380.087445 234.7495 
L 517.895766 173.393283 
" clip-path="url(#pfe9430b478)" style="fill: none; stroke: #0000ff; stroke-opacity: 0.75; stroke-width: 5"/>
    <path d="M 404.53639 234.7495 
L 453.587596 201.664044 
" clip-path="url(#pfe9430b478)" style="fill: none; stroke: #ff0000; stroke-opacity: 0.75; stroke-width: 5"/>
    <path d="M 428.985334 234.7495 
L 431.490188 248.955231 
" clip-path="url(#pfe9430b478)" style="fill: none; stroke: #00ff00; stroke-opacity: 0.75; stroke-width: 5"/>
    <path d="M 453.434278 234.7495 
L 444.624221 248.848539 
" clip-path="url(#pfe9430b478)" style="fill: none; stroke: #0000ff; stroke-opacity: 0.75; stroke-width: 5"/>
    <path d="M 477.883223 234.7495 
L 462.09088 298.089126 
" clip-path="url(#pfe9430b478)" style="fill: none; stroke: #ff0000; stroke-opacity: 0.75; stroke-width: 5"/>
    <path d="M 502.332167 234.7495 
L 487.612481 273.095594 
" clip-path="url(#pfe9430b478)" style="fill: none; stroke: #00ff00; stroke-opacity: 0.75; stroke-width: 5"/>
    <path d="M 526.781112 234.7495 
L 540.361404 243.909523 
" clip-path="url(#pfe9430b478)" style="fill: none; stroke: #0000ff; stroke-opacity: 0.75; stroke-width: 5"/>
    <path d="M 551.230056 234.7495 
L 567.04595 246.667631 
" clip-path="url(#pfe9430b478)" style="fill: none; stroke: #ff0000; stroke-opacity: 0.75; stroke-width: 5"/>
    <path d="M 575.679 234.7495 
L 574.350083 222.105695 
" clip-path="url(#pfe9430b478)" style="fill: none; stroke: #00ff00; stroke-opacity: 0.75; stroke-width: 5"/>
    <path d="M 600.127945 234.7495 
L 618.28036 252.901915 
" clip-path="url(#pfe9430b478)" style="fill: none; stroke: #0000ff; stroke-opacity: 0.75; stroke-width: 5"/>
    <path d="M 624.576889 234.7495 
L 624.576889 183.162227 
" clip-path="url(#pfe9430b478)" style="fill: none; stroke: #ff0000; stroke-opacity: 0.75; stroke-width: 5"/>
    <path d="M 649.025834 234.7495 
L 696.222113 187.553221 
" clip-path="url(#pfe9430b478)" style="fill: none; stroke: #00ff00; stroke-opacity: 0.75; stroke-width: 5"/>
    <path d="M 673.474778 234.7495 
L 785.450943 234.7495 
" clip-path="url(#pfe9430b478)" style="fill: none; stroke: #0000ff; stroke-opacity: 0.75; stroke-width: 5"/>
   </g>
   <g id="patch_3">
    <path d="M 90.92 396.964 
L 90.92 72.535 
" style="fill: none; stroke: #000000; stroke-width: 0.8; stroke-linejoin: miter; stroke-linecap: square"/>
   </g>
   <g id="patch_4">
    <path d="M 805.68 396.964 
L 805.68 72.535 
" style="fill: none; stroke: #000000; stroke-width: 0.8; stroke-linejoin: miter; stroke-linecap: square"/>
   </g>
   <g id="patch_5">
    <path d="M 90.92 396.964 
L 805.68 396.964 
" style="fill: none; stroke: #000000; stroke-width: 0.8; stroke-linejoin: miter; stroke-linecap: square"/>
   </g>
   <g id="patch_6">
    <path d="M 90.92 72.535 
L 805.68 72.535 
" style="fill: none; stroke: #000000; stroke-width: 0.8; stroke-linejoin: miter; stroke-linecap: square"/>
   </g>
   <g id="text_22">
    <!-- 高知県の水産業の海の波の向きと大きさ -->
    <g transform="translate(277.3 59.535)scale(0.19 -0.19)">
     <defs>
      <path id="MS-Gothic-9ad8" d="M 3425 5225 
Q 3675 5175 3450 5025 
L 3450 4625 
L 5950 4625 
L 5950 4150 
L 375 4150 
L 375 4625 
L 2875 4625 
L 2875 5225 
L 3425 5225 
z
M 4375 3425 
L 1975 3425 
L 1975 2900 
L 4375 2900 
L 4375 3425 
z
M 1550 2500 
L 1550 3825 
L 4800 3825 
L 4800 2500 
L 1550 2500 
z
M 5650 -100 
Q 5650 -500 5250 -500 
L 4775 -500 
L 4675 -25 
L 5050 -25 
Q 5150 -25 5150 75 
L 5150 1675 
L 1200 1675 
L 1200 -575 
L 700 -575 
L 700 2150 
L 5650 2150 
L 5650 -100 
z
M 2325 100 
L 2325 -175 
L 1900 -175 
L 1900 1375 
L 4450 1375 
L 4450 100 
L 2325 100 
z
M 2325 500 
L 4025 500 
L 4025 975 
L 2325 975 
L 2325 500 
z
" transform="scale(0.015625)"/>
      <path id="MS-Gothic-77e5" d="M 425 2200 
L 425 2675 
L 1725 2675 
L 1725 3700 
L 1400 3700 
Q 1175 3250 775 2900 
L 400 3275 
Q 1150 3900 1450 5125 
L 1950 4975 
Q 2100 4900 1875 4825 
Q 1775 4525 1600 4175 
L 3175 4175 
L 3175 3700 
L 2225 3700 
L 2225 2675 
L 3475 2675 
L 3475 2200 
L 2225 2200 
Q 2225 1875 2175 1550 
Q 2700 1175 3425 375 
L 3075 -100 
Q 2375 775 2050 1125 
Q 1775 250 775 -400 
L 425 50 
Q 1725 675 1725 2200 
L 425 2200 
z
M 5750 4350 
L 5750 -150 
L 5250 -150 
L 5250 250 
L 4200 250 
L 4200 -225 
L 3700 -225 
L 3700 4350 
L 5750 4350 
z
M 5250 3875 
L 4200 3875 
L 4200 725 
L 5250 725 
L 5250 3875 
z
" transform="scale(0.015625)"/>
      <path id="MS-Gothic-770c" d="M 4475 1150 
Q 4975 650 5950 150 
L 5650 -375 
Q 4800 25 4050 775 
L 4475 1150 
z
M 2300 700 
Q 1875 100 1000 -475 
L 625 0 
Q 1425 475 1900 1125 
L 2375 850 
Q 2500 750 2300 700 
z
M 1275 1350 
L 1275 1100 
L 775 1100 
L 775 4700 
L 1250 4700 
Q 1450 4675 1275 4550 
L 1275 1825 
L 5875 1825 
L 5875 1350 
L 3550 1350 
L 3550 -575 
L 2975 -575 
L 2975 1350 
L 1275 1350 
z
M 2375 2550 
L 4550 2550 
L 4550 3025 
L 2375 3025 
L 2375 2550 
z
M 2375 3425 
L 4550 3425 
L 4550 3825 
L 2375 3825 
L 2375 3425 
z
M 2375 4225 
L 4550 4225 
L 4550 4625 
L 2375 4625 
L 2375 4225 
z
M 1875 2150 
L 1875 5025 
L 5050 5025 
L 5050 2150 
L 1875 2150 
z
" transform="scale(0.015625)"/>
      <path id="MS-Gothic-306e" d="M 3450 3525 
Q 3025 1025 2425 425 
Q 2100 100 1750 100 
Q 1350 100 1125 325 
Q 525 925 525 1825 
Q 525 2925 1300 3700 
Q 2150 4550 3375 4550 
Q 4475 4550 5100 3925 
Q 5800 3225 5800 2275 
Q 5800 1250 5150 600 
Q 4725 175 3850 -225 
L 3325 300 
Q 4200 575 4700 1075 
Q 5175 1550 5175 2225 
Q 5175 3025 4650 3550 
Q 4125 4075 3000 4025 
L 3450 3800 
Q 3750 3675 3450 3525 
z
M 2875 4000 
Q 2225 3850 1750 3375 
Q 1100 2725 1100 1775 
Q 1100 1200 1475 825 
Q 1550 750 1700 750 
Q 1850 750 2025 925 
Q 2600 1500 2875 4000 
z
" transform="scale(0.015625)"/>
      <path id="MS-Gothic-6c34" d="M 5775 -100 
Q 4300 900 3500 2800 
L 3500 -75 
Q 3500 -475 3100 -475 
L 2500 -475 
L 2400 0 
L 2900 0 
Q 3000 0 3000 100 
L 3000 5125 
L 3475 5125 
Q 3675 5100 3500 4975 
L 3500 4250 
Q 3500 3700 3925 2950 
Q 4500 3350 5200 4200 
L 5650 3750 
Q 5775 3550 5500 3600 
Q 4900 3050 4150 2525 
Q 4875 1250 6075 475 
L 5775 -100 
z
M 2650 3350 
Q 2250 975 575 -100 
L 300 425 
Q 1675 1200 2100 3200 
L 650 3200 
L 650 3675 
L 2100 3675 
L 2250 3875 
L 2675 3575 
Q 2850 3475 2650 3350 
z
" transform="scale(0.015625)"/>
      <path id="MS-Gothic-7523" d="M 1975 4100 
L 900 4100 
L 900 4500 
L 3050 4500 
L 3050 5225 
L 3525 5225 
Q 3775 5175 3550 5075 
L 3550 4500 
L 5725 4500 
L 5725 4100 
L 4725 4100 
L 4300 3400 
L 5875 3400 
L 5875 3000 
L 1425 3000 
L 1425 1375 
Q 1425 200 675 -575 
L 300 -100 
Q 925 400 925 1700 
L 925 3400 
L 2275 3400 
L 1975 4100 
z
M 2825 3400 
L 3800 3400 
L 4125 4100 
L 2550 4100 
L 2825 3400 
z
M 1450 -375 
L 1450 25 
L 3500 25 
L 3500 725 
L 2275 725 
L 2275 1125 
L 3500 1125 
L 3500 1700 
L 2550 1700 
Q 2300 1300 1950 950 
L 1600 1350 
Q 2150 1800 2500 2750 
L 2975 2575 
Q 3175 2500 2900 2400 
L 2750 2100 
L 3500 2100 
L 3500 2775 
L 3975 2775 
Q 4200 2725 4000 2625 
L 4000 2100 
L 5550 2100 
L 5550 1700 
L 4000 1700 
L 4000 1125 
L 5225 1125 
L 5225 725 
L 4000 725 
L 4000 25 
L 6000 25 
L 6000 -375 
L 1450 -375 
z
" transform="scale(0.015625)"/>
      <path id="MS-Gothic-696d" d="M 550 175 
Q 1950 500 2750 1250 
L 550 1250 
L 550 1650 
L 2975 1650 
L 2975 2025 
L 1350 2025 
L 1350 2425 
L 2975 2425 
L 2975 2825 
L 1075 2825 
L 1075 3225 
L 2375 3225 
L 2100 3700 
L 550 3700 
L 550 4100 
L 1725 4100 
Q 1550 4350 1275 4575 
L 1650 4875 
Q 1950 4700 2225 4325 
L 1950 4100 
L 2475 4100 
L 2475 5150 
L 2950 5150 
Q 3150 5125 2975 5000 
L 2975 4100 
L 3450 4100 
L 3450 5150 
L 3925 5150 
Q 4125 5125 3950 5000 
L 3950 4100 
L 4550 4100 
L 4275 4300 
Q 4525 4650 4725 4950 
L 5100 4700 
Q 5275 4600 5075 4575 
Q 4950 4350 4725 4100 
L 5925 4100 
L 5925 3700 
L 4350 3700 
L 4075 3225 
L 5450 3225 
L 5450 2825 
L 3475 2825 
L 3475 2425 
L 5150 2425 
L 5150 2025 
L 3475 2025 
L 3475 1650 
L 5950 1650 
L 5950 1250 
L 3775 1250 
Q 4650 475 5975 200 
L 5775 -325 
Q 4400 25 3475 875 
L 3475 -525 
L 2975 -525 
L 2975 825 
Q 2100 50 750 -325 
L 550 175 
z
M 2850 3225 
L 3625 3225 
L 3875 3700 
L 2575 3700 
L 2850 3225 
z
" transform="scale(0.015625)"/>
      <path id="MS-Gothic-6d77" d="M 5400 3475 
L 5400 2075 
L 6050 2075 
L 6050 1600 
L 5400 1600 
L 5350 650 
L 5875 650 
L 5875 175 
L 5325 175 
L 5275 -200 
Q 5225 -550 4900 -550 
L 4225 -550 
L 4125 -75 
L 4675 -75 
Q 4775 -75 4800 25 
L 4825 175 
L 2550 175 
L 2500 -200 
L 2000 -200 
L 2200 1600 
L 1600 1600 
L 1600 2075 
L 2225 2075 
L 2300 3300 
Q 2100 3075 1900 2900 
L 1525 3325 
Q 2375 4050 2750 5225 
L 3275 5050 
Q 3400 5000 3200 4925 
L 3025 4500 
L 5850 4500 
L 5850 4025 
L 2800 4025 
Q 2625 3700 2400 3475 
L 5400 3475 
z
M 4050 1600 
L 3975 650 
L 4850 650 
L 4900 1600 
L 4050 1600 
z
M 2800 3000 
L 2725 2075 
L 3575 2075 
L 3600 3000 
L 2800 3000 
z
M 4075 2075 
L 4900 2075 
L 4900 3000 
L 4100 3000 
L 4075 2075 
z
M 3550 1600 
L 2700 1600 
L 2625 650 
L 3475 650 
L 3550 1600 
z
M 300 -25 
Q 850 725 1175 1750 
L 1600 1425 
Q 1425 625 875 -300 
Q 900 -550 750 -425 
L 300 -25 
z
M 1225 2350 
Q 825 2700 325 2975 
L 675 3450 
Q 1200 3200 1575 2850 
L 1225 2350 
z
M 1475 3850 
Q 1050 4225 550 4525 
L 950 5000 
Q 1575 4650 1900 4350 
L 1475 3850 
z
" transform="scale(0.015625)"/>
      <path id="MS-Gothic-6ce2" d="M 2550 75 
Q 3350 350 3850 850 
Q 3300 1500 3075 2300 
L 2725 2300 
L 2725 1500 
Q 2725 275 1975 -525 
L 1625 -25 
Q 2225 425 2225 1500 
L 2225 4300 
L 3775 4300 
L 3775 5125 
L 4275 5125 
Q 4525 5075 4275 4925 
L 4275 4300 
L 5500 4300 
L 5550 4400 
L 6075 4100 
Q 6175 3975 5975 3950 
L 5575 3075 
L 5100 3325 
L 5300 3825 
L 4275 3825 
L 4275 2775 
L 5050 2775 
L 5100 2900 
L 5550 2625 
Q 5650 2525 5475 2475 
Q 5175 1625 4575 875 
Q 5050 425 6025 75 
L 5825 -500 
Q 4775 0 4225 475 
Q 3675 -25 2775 -475 
L 2550 75 
z
M 425 0 
Q 1000 800 1325 1650 
L 1775 1375 
Q 1450 475 975 -325 
Q 1050 -575 875 -450 
L 425 0 
z
M 1550 3775 
Q 1225 4175 800 4475 
L 1175 4900 
Q 1675 4625 1950 4225 
L 1550 3775 
z
M 850 3400 
Q 1300 3125 1650 2700 
L 1275 2275 
Q 925 2675 500 2975 
L 850 3400 
z
M 2725 2775 
L 3775 2775 
L 3775 3825 
L 2725 3825 
L 2725 2775 
z
M 3575 2300 
Q 3725 1725 4225 1200 
Q 4700 1825 4850 2300 
L 3575 2300 
z
" transform="scale(0.015625)"/>
      <path id="MS-Gothic-5411" d="M 1250 3800 
L 1250 -400 
L 750 -400 
L 750 4275 
L 2525 4275 
L 2900 5200 
L 3500 4975 
Q 3600 4875 3425 4850 
L 3050 4275 
L 5625 4275 
L 5625 -25 
Q 5625 -425 5225 -425 
L 4500 -425 
L 4450 125 
L 5025 125 
Q 5125 125 5125 225 
L 5125 3800 
L 1250 3800 
z
M 2525 2525 
L 2525 1475 
L 3850 1475 
L 3850 2525 
L 2525 2525 
z
M 3850 700 
L 3850 1000 
L 2525 1000 
L 2525 550 
L 2025 550 
L 2025 3000 
L 4350 3000 
L 4350 700 
L 3850 700 
z
" transform="scale(0.015625)"/>
      <path id="MS-Gothic-304d" d="M 3600 3700 
Q 3700 3400 3900 3075 
Q 4700 3200 5475 3425 
L 5700 2900 
Q 5050 2750 4175 2625 
Q 4550 2125 5150 1675 
L 4725 1250 
Q 3825 1450 3300 1450 
Q 2300 1450 2000 1150 
Q 1825 975 1825 775 
Q 1825 525 1975 375 
Q 2175 175 3100 175 
L 4625 175 
L 4525 -375 
L 3000 -375 
Q 2000 -375 1600 25 
Q 1300 325 1300 800 
Q 1300 1175 1575 1450 
Q 2000 1875 3325 1875 
Q 3775 1875 4225 1800 
Q 3875 2175 3600 2525 
Q 2425 2375 1025 2375 
L 950 2900 
Q 2225 2875 3350 3000 
Q 3175 3325 3075 3625 
Q 2150 3550 1150 3550 
L 1100 4050 
Q 2125 4025 2950 4100 
Q 2825 4550 2750 5125 
L 3300 5125 
Q 3550 5075 3325 4925 
Q 3375 4550 3450 4175 
Q 4100 4250 4775 4425 
L 4950 3925 
Q 4100 3775 3600 3700 
z
" transform="scale(0.015625)"/>
      <path id="MS-Gothic-3068" d="M 2275 5000 
L 2800 5000 
Q 3075 4950 2850 4800 
L 2900 3600 
Q 2925 3075 3075 2750 
Q 3775 3050 4950 3375 
L 5200 2725 
Q 2825 2300 2025 1500 
Q 1750 1225 1750 925 
Q 1750 700 1925 525 
Q 2100 350 2650 350 
L 5050 350 
L 5050 -200 
L 2625 -200 
Q 1800 -200 1475 125 
Q 1150 450 1150 875 
Q 1150 1425 1550 1825 
Q 1850 2125 2550 2525 
Q 2400 2900 2375 3350 
L 2275 5000 
z
" transform="scale(0.015625)"/>
      <path id="MS-Gothic-5927" d="M 400 125 
Q 2700 925 2825 3200 
L 575 3200 
L 575 3750 
L 2875 3750 
L 2875 5075 
L 3425 5075 
Q 3675 5025 3450 4875 
L 3450 3750 
L 5850 3750 
L 5850 3200 
L 3500 3200 
Q 4025 1125 6050 250 
L 5725 -350 
Q 3975 450 3250 2350 
Q 2825 300 625 -475 
L 400 125 
z
" transform="scale(0.015625)"/>
      <path id="MS-Gothic-3055" d="M 3275 3325 
Q 2250 3250 1250 3250 
L 1100 3750 
Q 2325 3750 3075 3800 
Q 2825 4500 2725 5100 
L 3275 5100 
Q 3500 5050 3325 4900 
Q 3425 4425 3625 3850 
Q 4500 3925 5125 4075 
L 5250 3525 
Q 4525 3425 3825 3375 
Q 4325 2425 5350 1725 
L 4975 1275 
Q 4050 1700 3150 1700 
Q 2325 1700 2000 1375 
Q 1850 1225 1850 950 
Q 1850 700 2075 475 
Q 2425 125 3725 125 
L 4600 125 
L 4475 -425 
L 3525 -425 
Q 2225 -425 1700 100 
Q 1325 475 1325 950 
Q 1325 1425 1600 1700 
Q 2050 2150 3000 2150 
Q 3950 2150 4100 2050 
Q 3500 2800 3275 3325 
z
" transform="scale(0.015625)"/>
     </defs>
     <use xlink:href="#MS-Gothic-9ad8"/>
     <use xlink:href="#MS-Gothic-77e5" x="100"/>
     <use xlink:href="#MS-Gothic-770c" x="200"/>
     <use xlink:href="#MS-Gothic-306e" x="300"/>
     <use xlink:href="#MS-Gothic-6c34" x="400"/>
     <use xlink:href="#MS-Gothic-7523" x="500"/>
     <use xlink:href="#MS-Gothic-696d" x="600"/>
     <use xlink:href="#MS-Gothic-306e" x="700"/>
     <use xlink:href="#MS-Gothic-6d77" x="800"/>
     <use xlink:href="#MS-Gothic-306e" x="900"/>
     <use xlink:href="#MS-Gothic-6ce2" x="1000"/>
     <use xlink:href="#MS-Gothic-306e" x="1100"/>
     <use xlink:href="#MS-Gothic-5411" x="1200"/>
     <use xlink:href="#MS-Gothic-304d" x="1300"/>
     <use xlink:href="#MS-Gothic-3068" x="1400"/>
     <use xlink:href="#MS-Gothic-5927" x="1500"/>
     <use xlink:href="#MS-Gothic-304d" x="1600"/>
     <use xlink:href="#MS-Gothic-3055" x="1700"/>
    </g>
   </g>
  </g>
 </g>
 <defs>
  <clipPath id="pfe9430b478">
   <rect x="90.92" y="72.535" width="714.76" height="324.429"/>
  </clipPath>
 </defs>
</svg>
