<?xml version='1.0' encoding='ASCII' standalone='yes'?>
<svg xmlns="http://www.w3.org/2000/svg" xmlns:xlink="http://www.w3.org/1999/xlink" version="1.1">
  <g>
    <g>
      <g>
        <g>
          <g>
            <g>
              <g>
                <g>
                  <g>
                    <g/>
                    <g transform="translate(0, 0) scale(1 1) ">
                      <g transform="translate(0, 0) scale(1 1) "><style type="text/css">
	.st0{fill:#FFFFFF;}
	.st1{fill:#EEEEEE;}
	.st2{fill:#CCCCCC;stroke:#000000;stroke-width:0.2;stroke-linejoin:round;stroke-miterlimit:2.694;}
	.st3{fill:#F6BAD3;stroke:#000000;stroke-width:0.2;stroke-linejoin:round;stroke-miterlimit:2.694;}
	.st4{fill:#ECE3B4;stroke:#000000;stroke-width:0.2;stroke-linejoin:round;stroke-miterlimit:2.694;}
	.st5{fill:#B6F2DC;stroke:#000000;stroke-width:0.2;stroke-miterlimit:2.694;}
	.st6{fill:#EEEEEE;stroke:#000000;stroke-width:0.2;stroke-linejoin:round;}
	.st7{font-family:'ArialMT';}
	.st8{font-size:14px;}
</style>
<sodipodi:namedview xmlns:sodipodi="http://sodipodi.sourceforge.net/DTD/sodipodi-0.dtd" xmlns:inkscape="http://www.inkscape.org/namespaces/inkscape" bordercolor="#666666" borderopacity="1" gridtolerance="10" guidetolerance="10" id="namedview206" inkscape:current-layer="svg2" inkscape:cx="167.12822" inkscape:cy="128.35188" inkscape:document-rotation="0" inkscape:pageopacity="0" inkscape:pageshadow="2" inkscape:window-height="1017" inkscape:window-maximized="1" inkscape:window-width="1920" inkscape:window-x="-8" inkscape:window-y="-8" inkscape:zoom="1" objecttolerance="10" pagecolor="#ffffff" showgrid="false">
	</sodipodi:namedview>
<rect id="rect46" x="-6.7" y="-6.7" class="st0" width="545.5" height="431"/>
<rect id="rect48" class="st1" width="532.1" height="417.6"/>
<a xmlns:inkscape="http://www.inkscape.org/namespaces/inkscape" id="a52" transform="scale(0.67350872)">
	<g id="use54">
		<path id="_x33_6000" inkscape:connector-curvature="0" class="st2" d="M768,188v1l3,1l-2-4L768,188z M512-4l-6,7l4,1l2,4l-5,3v9    l-7,5l1,6l6,5l16,4l9,1l4,6l15-3l1,3h12l8-4l15,19h8l3,6l5,1l5-5l6,1l4-5V50l9-3l6-2l4,9l14-4l1,9l3,5l7,10v7l3,23l2,4l-5,10l26-3    l11,5l6-1l5,2l-2,5v8l6,4l-15,11l3,7l8,2l-2,5l6,4l5,14l9-4l8,8l18-5l10,4l-1,2l1,1l2,1l3-5l-3-3h-3l2-1v-4l3-5l8,2l9-2l-11-1    l11-2l2-2l-3-1l3,1v-5l7-6V-4H512z M794,149h-5h-3l1-3l5-1l2-2V149z"/>
	</g>
</a>
<a xmlns:inkscape="http://www.inkscape.org/namespaces/inkscape" id="a56" transform="scale(0.67350872)">
	<g id="use58">
		<path id="_x33_8000" inkscape:connector-curvature="0" class="st2" d="M7,482v-4l-7,4H7z M-4,430h2l1-1l-3-7V430z M-4,228l1-1    L-4,228z M-4,305l4-7l3,4l6,1l5-2v-3l9,2l-1-2l2-3l2,7l6-3l3,2l3,4h-8l-2,3l-9,7l-1,6l9,2l2,4l11-1l3-4v6l-7,3v4l9,6l3-2l-1,6l3,2    l-7-3v3l1,3l-11-1l-5,7l-1-1v5l-5-1l4,2l4-1l-2,3h3l1,7l-5,1l1-4l-4-2l1,6l-4,3l-4-3l4-2l-3-1l2-2l-1-2l-4,4l-3-3l-4-5l2-4l-2-1    l3-2H8l-3,3l-7-5l-2-1V305z M-4,353l3,2l3,8l3-3v4l6,6l-1,2l-4-3l-3,3l-3-1v3v5l-2-2l-2,1V353z M312-4l-26,7l-3-6l-3,7l-2-3l3-4    l-1-1H312z M274-4l-3,4l1-4H274z M271-4l-2,3l1-3H271z M137-4l-4,14l-10,6l-8-4l-1,2l-4,12l8,7l-5-2l2,7l-4,1v6l-6,3l4,11l-4-2    l-1,3l1,2l1,8h5l-3,2l1,4h1l-1,10l-8,7l-13,23l-25,19l-22,8l-16,10h-6l-2,6L4,173l-5,12l-1,1l-2,1v191l4,2l3,2l-1,5l4,2l1,1v-5    l3,2l5-2l1,4l1-4l7,2l2,1l-1,4l2-1l-1,3l5,3l-10-4l-7,3v-4l-10,2l6,1l5,6l-1,5l4,1l-5,4l-2-2v2l3,4l-4,2l5,3l1-5l1-2l3,4l-2,2l3,3    l-2,5l-2-2l1-2l-8,1l-5,3l-2-5l-1,5l-3,2l4,5l3,3v-3l-1-3l8-1l1,4l2-3l4,1l-2,8l3,10l1-4l2,2l4,4l-2,6l2,4l2,4h6v2l5,2v-3l7,6    l-2,3l-6-3l-3,1l-7-4l-7,2l2-4l2-4l-4-1l2-3l-3,3l-3,5l-6,1l14,7l-1,3l-4,5l-3-3l-1,4l-3-2l-5,1l4,3l2,6l-1,7l7,4l3-3l7,1l3-5l2-4    l-10,3l-3-2l7-5l5-2l-9-4v-3l5-1l8,1l2,4l11,5l-1-3l-6-1l-1-4l3,1l5-2l5,3l10-2l-7,4v4l5,4l-1,4l11-4l13-1l-1-7l3-1l10-3l-1-8l4-5    l-6-18v-4l1-9l-9-10l3-3l3-11l-3-11l-7-3l-3-8l-4-1l1-8l-7-10l3-6l6-2v1l-1,3l22,21l17-18l4-7l1-7l14-2l-1-17l6-11v-2l2-4l9-3    l21-9l13-6l2-7l1-2l-6-13l-12-5l-1-6l-2-4l1-4l-2-1l-6-1l-4-17l1-5l-8-6l1-4l15-7l22,5l17-1l7,3l12-4l11-3l-1-5l9-10l1-7l11-8    l-1-10l-6-7l4-9l9-7l-5-6l2-8v-1l2-6l16-4l2-15l10-6l-2-6l8-7l-1-7v-3l10-8l3-9l1-4h5l7,7l12-4l6-15l5-6l6,1l7,6l7,1l12-10l14,5    l4-6l6-1l15,2l1-1l7,2l6,2l8-3v-2l1-4l7-3l5-12l7-2l11,7l7-6l11,4l6-6l7,1l7-5v-9l5-3l-2-4l-4-1l6-7H137z M30,343l5,5l6-4l-7-7    L30,343z M18,322l-2-1l-2,8l6-4L18,322z M22,96l4-1l-3-2l-5,3H22z M36,38l6,4v-5L36,38z M105,14l3-1l-1-5l5-6h-5l-2,3h-3v5h-8    l-3,5l1,1l3-2l3,3l-2,11l5-1h5l-7-8l1-4L105,14z M46,0l6-1l-2-2L36,0l5,2L46,0z"/>
	</g>
</a>
<a xmlns:inkscape="http://www.inkscape.org/namespaces/inkscape" id="a60" transform="scale(0.67350872)">
	<g id="use62">
		<path id="_x33_9201" inkscape:connector-curvature="0" class="st3" d="M462,205h3v-3l-3-1V205z M418,200v1l-9,6l10,11v5l8,9l23-12    l17-9l-8,2l1-5l-6-5l6-7l-3-4l6-1v3l-1,7l2-3l1,5l-3,3l-1,5l16-9l2-11l7-8l-1-5l-4-2l5-2l-7-2l3-5h-8l-8-9l-2-8l6-3l-2-9l-7-7h-9    l-2-6l-8-2l-5,6l-11-1l-5,5l-6-5l-15,5l-6,10v10l4,1l3,5l-6,7l7,9l8,1l3,3l7-3l5,5l-4,13l-4,2L418,200z"/>
	</g>
</a>
<a xmlns:inkscape="http://www.inkscape.org/namespaces/inkscape" id="a64" transform="scale(0.67350872)">
	<g id="use66">
		<path id="_x33_9202" inkscape:connector-curvature="0" class="st3" d="M684,309l1,3l10-2l3,4l8,10l4,10l2,2l2-3l2-13l1-13l3-14    l2-11l4-12l-2-9l11-20v-2l-2-3l-1-6l-4-2l-9-11h-1l-15,5l-5,4l-5-3l-7,8l-3,6l-5,3l-3,12l-8,4l-1,6l-13,8l13,10l6,10l5,3l6,5    L684,309z"/>
	</g>
</a>
<a xmlns:inkscape="http://www.inkscape.org/namespaces/inkscape" id="a68" transform="scale(0.67350872)">
	<g id="use70">
		<path id="_x33_9203" inkscape:connector-curvature="0" class="st3" d="M566,204l48,15l2,5l-1,5l6,8l3-7l8-8l3-17l8-6l3-7l3-4v-9    l-5-1l-2-4l1-5l4-2l1-6l-4-3l2-2l4-13l11-4l6-8l-9-7l4-6l5-10l-2-4l-12,3l-4-3l-3,3h-6l-4,7l-7,5l-7,11l-16,11l-7-1l-2-6l-5,3    l-4,5v14l-6,4l-2,2l4,4l3,10l-5,7l-2,11l-7,7l-1-5l-4,3L566,204z"/>
	</g>
</a>
<a xmlns:inkscape="http://www.inkscape.org/namespaces/inkscape" id="a72" transform="scale(0.67350872)">
	<g id="use74">
		<path id="_x33_9204" inkscape:connector-curvature="0" class="st3" d="M509,177l1-4v-2h-4l-5-13l2-23h-4l-5,1l-4-5l-6,2l-10-20    l-5-2l-7,6l-2,1l1,13l7,7l2,9l-6,3l2,8l8,9h8l-3,5l7,2l-5,2l4,2l1,5l-7,8l-2,11l3-1l29-6V177z"/>
	</g>
</a>
<a xmlns:inkscape="http://www.inkscape.org/namespaces/inkscape" id="a76" transform="scale(0.67350872)">
	<g id="use78">
		<path id="_x33_9205" inkscape:connector-curvature="0" class="st3" d="M406,230l2,12l4-6l6,2l9-6l-8-9v-5l-10-11l-2-6l-15,1v5    l-22,6l-2-2l-5,4l2,6l-8,6l-1,5v1l2,5l3,7l5-4h7l6-6l5,4l12-11L406,230z M409,247l3,4h6v-4l1-2l-6-4l-5,4L409,247z"/>
	</g>
</a>
<a xmlns:inkscape="http://www.inkscape.org/namespaces/inkscape" id="a80" transform="scale(0.67350872)">
	<g id="use82">
		<path id="_x33_9206" inkscape:connector-curvature="0" class="st3" d="M373,261l10-1l1,2l2,2l-1-3l7-2l3-1l2,4l2-4l4-3l3,2v-2h5    l1-4l-3-4l-5-1l-2-5l-3,4l-3,6l-1,3l-3-5l-1,3l-3-2v5l-6-6l-1,8l-3-1l2-3l-5,1l7-8h12l4-4l-4-2l3-3l5,2l1-3l1,5l4,1l-2-12l-10-2    l-12,11l-5-4l-6,6h-7l-5,4l-3-7l-2-5v-1l-12,9l-7-1l-4,5l-17,1l1,12l-4,3h-10v1v10l7-1h14l15,19v-1l-1-13l8-4l-1-4l7-2l-4-8h4l4,7    l-6,4l4,4l5-3l5,1l-2,4l2,2h-5l2,4l-2,1l2,1l3-4h3l-1-10l1-4L373,261z M353,279l2,2l1-2H353z"/>
	</g>
</a>
<a xmlns:inkscape="http://www.inkscape.org/namespaces/inkscape" id="a84" transform="scale(0.67350872)">
	<g id="use86">
		<path id="_x33_9208" inkscape:connector-curvature="0" class="st3" d="M113,516v-3l-3,3l-1-6l-3,7l5,5l4-2l8,7v7l10,4l2-2l7-2    l-2-6l2-8l-8-13l3-3l3-4l10,5v-11l6,1l5-10l-3-8l-2-24l5-4l-8-5l-5-10l-5,3l-7-3l-4,3l-5-3l-2-3l4-8l-3-2l-9-3l-3-6l-21-10l3,11    l-3,11l-3,3l9,10l-1,9v4l6,18l-4,5l1,8l-10,3l-3,1l1,7l7,3v-2l3,1l-2-2l7,2l-1-3l3-1l-1,4l3,1h-2l-3,2l5,1v-6h4l2,8l-2,4l4,1l-1,2    l-6-1l7,7L113,516z M20,553l3,1l1-4l-4-2l-3,4L20,553z M49,580l-5-6l-1,3l1,5l-5,5l2,1l4,5l-3,7l12-5l-2-7l2-4L49,580z M21,583    l-1-3l-2,4L21,583z"/>
	</g>
</a>
<a xmlns:inkscape="http://www.inkscape.org/namespaces/inkscape" id="a88" transform="scale(0.67350872)">
	<g id="use90">
		<path id="_x33_9209" inkscape:connector-curvature="0" class="st3" d="M142,574l1,3l6,2l2-3l8-5l5-9l3,2l2-3l5-3l3,6l-1,6l4-2    l-1-9l7-1l11,2v4l5-2l1,2l2-4l4,3l-4,3l3,5l4-7l5,1l-7,7l5,3l2,7l-1,4l2,1h2h4l4,2l3,2h6l2-5l-2-14l-5-8l-1-4l-11-5l-9-8v-6l3-2    l-1-5l-2-7l1-5l2,2l10-2l4,1l1-4l5-6l-1-9l1-5l-11-4l-7,1l-1,4l-6-1l-8-12h-4l-3,11l-3,5l4,6v7l-5-2l-3,4l-18,3l-3,3l-11-2l-2-4    l-5-4l-2,3l-4-2v5l-2,8l2,6l-7,2l-2,2l3,7l-4,8l9,9L142,574z"/>
	</g>
</a>
<a xmlns:inkscape="http://www.inkscape.org/namespaces/inkscape" id="a92" transform="scale(0.67350872)">
	<g id="use94">
		<path id="_x33_9210" inkscape:connector-curvature="0" class="st3" d="M232,468l-2-3l-8-1l-2-1l2-2l-1-5l-6-2l-4-6l5-8l3-26l5-1    l10-11h15l3-6l2-5l-9-3l-5-6l-4,2h-4l-4-6l-8-1l-4,7h-8l-4,4l-14-3l-10-7l1-10l-7,1l-17-7l2-8l-2-6l3-9l-9,1l-1-2l-6-11l-6,11    l1,17l-14,2l-1,7l-4,7l-17,18l-22-21l1-3v-1l-6,2l-3,6l7,10l-1,8l4,1l3,8l7,3l21,10l3,6l9,3l3,2l-4,8l2,3l5,3l4-3l7,3l5-3l5,10    l8,5l-5,4l2,24l3,8l27-1l9,3h4l8,12l6,1l1-4l7-1l11,4v-1l-5-7l-3-2l4-6l-3-4L232,468z"/>
	</g>
</a>
<a xmlns:inkscape="http://www.inkscape.org/namespaces/inkscape" id="a96" transform="scale(0.67350872)">
	<g id="use98">
		<path id="_x33_9211" inkscape:connector-curvature="0" class="st3" d="M509,177v18l27-1l4,2l-3,2l3,4l5,2l10-17l4-1l7-7v-7h10l8-6    l-4-4l2-2l6-4v-14l4-5l-5-5l-14,8l-1,6l-16,15l-1-3l-4-3l-21,11l-3-4l-10,4l1-3l-8,10L509,177z"/>
	</g>
</a>
<a xmlns:inkscape="http://www.inkscape.org/namespaces/inkscape" id="a100" transform="scale(0.67350872)">
	<g id="use102">
		<path id="_x33_9212" inkscape:connector-curvature="0" class="st3" d="M636,114l4-7h6l3-3l4,3l12-3l-3-23v-7l-7-10l-3-5l-1-9    l-14,4l-4-9l-6,2l-9,3v10l-4,5l-6-1l-5,5l-5-1l-3-6h-8l-2,3l-6,7v5l-5,1l-4,8l-6,6l-3-2l-4,3l-6,9l-9-5l-10,6l-2,6l-17,13l-21-19    l-18,10l10,20l6-2l4,5l5-1h4l-2,23l5,13h4v2l8-10l-1,3l10-4l3,4l21-11l4,3l1,3l16-15l1-6l14-8l5,5l5-3l2,6l7,1l16-11l7-11L636,114    z"/>
	</g>
</a>
<a xmlns:inkscape="http://www.inkscape.org/namespaces/inkscape" id="a104" transform="scale(0.67350872)">
	<g id="use106">
		<path id="_x33_9301" inkscape:connector-curvature="0" class="st4" d="M733,236l2,3l3-11l10-16l9-11l-3-3l3-4l1-4h5l-3-3l2,1l1-2    l1-2l-10-4l-18,5l-8-8l-9,4l-1,11l9,12l-2,8l-7-2l1,7l9,11l4,2L733,236z M767,190v1V190z"/>
	</g>
</a>
<a xmlns:inkscape="http://www.inkscape.org/namespaces/inkscape" id="a108" transform="scale(0.67350872)">
	<g id="use110">
		<path id="_x33_9302" inkscape:connector-curvature="0" class="st4" d="M653,270l13-8l1-6l8-4l3-12l5-3l-10-1l-10,7l-12-3l-6,6    l-1,3l8,5L653,270z"/>
	</g>
</a>
<a xmlns:inkscape="http://www.inkscape.org/namespaces/inkscape" id="a112" transform="scale(0.67350872)">
	<g id="use114">
		<path id="_x33_9303" inkscape:connector-curvature="0" class="st4" d="M651,240v-3l-5-1l3-5l-5,1l-1,8l-6,3l-1,3l8,3l1-3L651,240z    "/>
	</g>
</a>
<a xmlns:inkscape="http://www.inkscape.org/namespaces/inkscape" id="a116" transform="scale(0.67350872)">
	<g id="use118">
		<path id="_x33_9304" inkscape:connector-curvature="0" class="st4" d="M622,238l14,8l1-3l6-3l1-8l5-1v-19l8-5l10-9l-17-9l-1-1    l-3,4l-3,7l-8,6l-3,17l-8,8l-3,7v1H622z"/>
	</g>
</a>
<a xmlns:inkscape="http://www.inkscape.org/namespaces/inkscape" id="a120" transform="scale(0.67350872)">
	<g id="use122">
		<path id="_x33_9305" inkscape:connector-curvature="0" class="st5" d="M646,236l5,1v3l12,3l10-7l10,1l3-6l7-8l5,3l5-4l15-5h1l-1-7    l7,2l2-8l-9-12l1-11l-5-14l-6-4l2-5l-8-2l-5,10l-13-3l-6,3l-1,9l-4,3l3,8l-9,12l-10,9l-8,5v19L646,236z"/>
	</g>
</a>
<a xmlns:inkscape="http://www.inkscape.org/namespaces/inkscape" id="a124" transform="scale(0.67350872)">
	<g id="use126">
		<path id="_x33_9306" inkscape:connector-curvature="0" class="st5" d="M650,189l17,9l9-12l-3-8l4-3l1-9l6-3l13,3l5-10l-3-7l15-11    l-6-4v-8l2-5l-5-2l-6,1l-11-5l-26,3l-4,6l9,7l-6,8l-11,4l-4,13l-2,2l4,3l-1,6l-4,2l-1,5l2,4l5,1v9L650,189z"/>
	</g>
</a>
<a xmlns:inkscape="http://www.inkscape.org/namespaces/inkscape" id="a128" transform="scale(0.67350872)">
	<g id="use130">
		<path id="_x33_9307" inkscape:connector-curvature="0" class="st5" d="M566,204l2-5l4-3l1,5l7-7l2-11l5-7l-3-10l-8,6h-10v7l-7,7    l-4,1l-10,17l9-1L566,204z"/>
	</g>
</a>
<a xmlns:inkscape="http://www.inkscape.org/namespaces/inkscape" id="a132" transform="scale(0.67350872)">
	<g id="use134">
		<path id="_x33_9341" inkscape:connector-curvature="0" class="st4" d="M492,103V84l-5-13l4-6l-1-6l-9-8l-7-1l-5-8l-1-4l1-6l-11-7    l-7,2l-5,12l-7,3l-1,4v2l7,7l10,21l-2,7l11,8l2,4l-2,4l5,12l5,2L492,103z"/>
	</g>
</a>
<a xmlns:inkscape="http://www.inkscape.org/namespaces/inkscape" id="a136" transform="scale(0.67350872)">
	<g id="use138">
		<path id="_x33_9344" inkscape:connector-curvature="0" class="st4" d="M585,65l2-3l-15-19l-8,4h-12l-1-3l-15,3l-4-6l-9-1l-16-4    l-6-5l-1-6l-7-1l-6,6l-11-4l-7,6l-1,6l1,4l5,8l7,1l9,8l1,6l-4,6l5,13v19l21,19l17-13l2-6l10-6l9,5l6-9l4-3l3,2l6-6l4-8l5-1v-5    L585,65z"/>
	</g>
</a>
<a xmlns:inkscape="http://www.inkscape.org/namespaces/inkscape" id="a140" transform="scale(0.67350872)">
	<g id="use142">
		<path id="_x33_9363" inkscape:connector-curvature="0" class="st4" d="M393,121l1,3l15-7l4,4l2,7l6,5l5-5l11,1l5-6l8,2l2,6h9    l-1-13l2-1l7-6l-5-12l2-4l-2-4l-11-8l2-7l-10-21l-7-7l-8,3l-3,9l5,9l-17,11l-14,1l-10,6l-3-1l-6,1l-4,3l4,15l5,2l1,6l6,2L393,121z    "/>
	</g>
</a>
<a xmlns:inkscape="http://www.inkscape.org/namespaces/inkscape" id="a144" transform="scale(0.67350872)">
	<g id="use146">
		<path id="_x33_9364" inkscape:connector-curvature="0" class="st5" d="M382,87l6-1l3,1l10-6l14-1l17-11l-5-9l3-9l-6-2l-7-2l-1,1    l-15-2l-6,1l-4,6l-14-5l-12,10l13,12l-3,4l5,4L382,87z"/>
	</g>
</a>
<a xmlns:inkscape="http://www.inkscape.org/namespaces/inkscape" id="a148" transform="scale(0.67350872)">
	<g id="use150">
		<path id="_x33_9386" inkscape:connector-curvature="0" class="st4" d="M394,143l6-10l15-5l-2-7l-4-4l-15,7l-1-3l1-6l-6-2l-1-6    l-5-2l-4-15l4-3l-2-9l-5-4l3-4l-13-12l-7-1l-7-6l-6-1l-5,6l-6,15l-12,4l-7-7h-5l-1,4l-3,9l-10,8v3l1,7l6,11l22,14l-1,9l3,11l-5,3    l1,8l2,5l3,2l12-5l9,13l5-3l4,6l9,10l4-3l5,3l1-9l3-1v7l16,10l-4,12l15-1l2,6l9-6v-1l-1-4l4-2l4-13l-5-5l-7,3l-3-3l-8-1l-7-9l6-7    l-3-5l-4-1V143z"/>
	</g>
</a>
<a xmlns:inkscape="http://www.inkscape.org/namespaces/inkscape" id="a152" transform="scale(0.67350872)">
	<g id="use154">
		<path id="_x33_9387" inkscape:connector-curvature="0" class="st4" d="M243,221l6,3l6-3l6,14h7l4,4l24-11l-4-12v-13l12-11l3-7    l-2-4l6-2l1-4l5,4l2-15l6-4l-2-5l-1-8l5-3l-3-11l1-9l-22-14l-6-11l-8,7l2,6l-10,6l-2,15l-16,4l-2,6v1l-2,8l5,6l-9,7l-4,9l6,7l1,10    l-11,8l-1,7l-9,10l1,5H243z"/>
	</g>
</a>
<a xmlns:inkscape="http://www.inkscape.org/namespaces/inkscape" id="a156" transform="scale(0.67350872)">
	<g id="use158">
		<path id="_x33_9401" inkscape:connector-curvature="0" class="st4" d="M332,313l-3-3l5-1l-1-3l5-2l-7-4l-5-2l2-3l7-1l4-4l-15-19    h-14l-7,1v-10v-1l-3-10l-9,2l-6-3h-8l-5,25l-4-4l-8-5l-7,10l-1,6l8,3l-1,4l-5-1l1,5l6-2l3,6l7,7h4v-4l10,8l13-3l3-6l5,1l-2,6l6,6    v19l9,3l5,7l12-1l-4-2l2-4h1l4-4l-4-5l2-6l-6,3l-1-3L332,313z"/>
	</g>
</a>
<a xmlns:inkscape="http://www.inkscape.org/namespaces/inkscape" id="a160" transform="scale(0.67350872)">
	<g id="use162">
		<path id="_x33_9402" inkscape:connector-curvature="0" class="st4" d="M334,238l3,2l7,1l12-9l1-5l8-6l-2-6l5-4l3-6l-6-4l1-7l-6-10    l-5,1l-10-2l-7,3l2,12l-7,6l-1,7l-16-7l-1,2l-3,18l21,10L334,238z"/>
	</g>
</a>
<a xmlns:inkscape="http://www.inkscape.org/namespaces/inkscape" id="a164" transform="scale(0.67350872)">
	<g id="use166">
		<path id="_x33_9403" inkscape:connector-curvature="0" class="st4" d="M305,181l2,4l-3,7l-12,11v13l4,12l7,1l9-5l3-18l1-2l16,7    l1-7l7-6l-2-12l7-3l10,2l-2-12h5l-4-6l-5,3l-9-13l-12,5l-3-2l-6,4l-2,15l-5-4l-1,4L305,181z"/>
	</g>
</a>
<a xmlns:inkscape="http://www.inkscape.org/namespaces/inkscape" id="a168" transform="scale(0.67350872)">
	<g id="use170">
		<path id="_x33_9405" inkscape:connector-curvature="0" class="st4" d="M191,296l17,6l4,1l2,8l9,7l1-4l9-9l9,1l4-7l-3-11l-11-6    l-4-3l2-9l-4-5l-7,4l-6-9l3-6l9-1v-5l4-2l-3-3l4-6l-2-8l-1-5l-12,4l-7-3l-17,1l-22-5l-15,7l-1,4l8,6l-1,5l4,17l6,1l2,1l-1,4l2,4    l1,6l12,5l6,13L191,296z"/>
	</g>
</a>
<a xmlns:inkscape="http://www.inkscape.org/namespaces/inkscape" id="a172" transform="scale(0.67350872)">
	<g id="use174">
		<path id="_x33_9410" inkscape:connector-curvature="0" class="st4" d="M368,211l2,2l22-6v-5l4-12l-16-10v-7l-3,1l-1,9l-5-3l-4,3    l-9-10h-5l2,12l5-1l6,10l-1,7l6,4L368,211z"/>
	</g>
</a>
<a xmlns:inkscape="http://www.inkscape.org/namespaces/inkscape" id="a176" transform="scale(0.67350872)">
	<g id="use178">
		<path id="_x33_9411" inkscape:connector-curvature="0" class="st4" d="M313,261l4-3l-1-12l17-1l4-5l-3-2l-1-4l-21-10l-9,5l-7-1    l-24,11l-4-4h-7l-6-14l-6,3l-6-3h-5l-11,3l1,5l2,8l-4,6l3,3l-4,2v5l-9,1l-3,6l6,9l7-4l4,5l-2,9l4,3l11,6l9-6l1-6l7-10l8,5l4,4    l5-25h8l6,3l9-2l3,10H313z"/>
	</g>
</a>
<a xmlns:inkscape="http://www.inkscape.org/namespaces/inkscape" id="a180" transform="scale(0.67350872)">
	<g id="use182">
		<path id="_x33_9412" inkscape:connector-curvature="0" class="st4" d="M320,377l1-5l-2-4l-2-2l4-5l5-2l3-1l-1-5l2-4l6-3l-1-2l-2-2    l3-2l-12,1l-5-7l-9-3v-19l-6-6l2-6l-5-1l-3,6l-13,3l-10-8v4h-4l-7-7l-3-6l-6,2l-1-5l5,1l1-4l-8-3l-9,6l3,11l-4,7l-9-1l-9,9l-1,4    l-9-7l-2-8l-4-1l-17-6l-2,7l-13,6l-21,9l-9,3l-2,4v2l6,11l1,2l9-1l-3,9l2,6l-2,8l17,7l7-1l-1,10l10,7l14,3l4-4h8l4-7l8,1l4,6h4    l4-2l5,6l9,3l-2,5l3,2l5-2l2-12l6,1l2,1l-3-5l4-6l8,3l20-14l3-1l4,4l-13,17l5,6l1-3l9-11l7-1l2,9l2-2l3-1L320,377z"/>
	</g>
</a>
<a xmlns:inkscape="http://www.inkscape.org/namespaces/inkscape" id="a184" transform="scale(0.67350872)">
	<g id="use186">
		<path id="_x33_9424" inkscape:connector-curvature="0" class="st4" d="M82,567l-4,4l9-2l-1-5l10-3l10-1l-4-3l12-3l10,12l6,10l4-2    l1-2l4,4l3-2l-1-12l-9-9l4-8l-3-7l-10-4v-7l-8-7l-4,2l-5-5l3-7l-10,9l-9,7l6,7h-5l2,4l-4,4l-1-2l-2,5l-2-1l1,5h-3l4,1l3,3l-3-2    l-9,4v1l7,4l-4,1L82,567z M73,569h5v-3L73,569z"/>
	</g>
</a>
<a xmlns:inkscape="http://www.inkscape.org/namespaces/inkscape" id="a188" transform="scale(0.67350872)">
	<g id="use190">
		<path id="_x33_9427" inkscape:connector-curvature="0" class="st5" d="M153,518l2,4l11,2l3-3l18-3l3-4l5,2v-7l-4-6l3-5l3-11l-9-3    l-27,1l-5,10l-6-1v11l-10-5l-3,4l-3,3l8,13v-5l4,2l2-3L153,518z"/>
	</g>
</a>
<a xmlns:inkscape="http://www.inkscape.org/namespaces/inkscape" id="a192" transform="scale(0.67350872)">
	<g id="use194">
		<path id="_x33_9428" inkscape:connector-curvature="0" class="st4" d="M268,444h1l1-11l5-9v-6l3,1l1-5l7-3l6-10l5-10l1-1l-5-6    l13-17l-4-4l-3,1l-20,14l-8-3l-4,6l3,5l-2-1l-6-1l-2,12l-5,2l-3-2l-3,6h-15l-10,11l-5,1l-3,26l-5,8l4,6l6,2l1,5l-2,2l2,1l8,1l3-8    l4-11l11-9h12L268,444z"/>
	</g>
</a>
<path xmlns:inkscape="http://www.inkscape.org/namespaces/inkscape" id="path196" inkscape:connector-curvature="0" class="st6" d="M526,39.7l2-0.7l0.7-3.4l-0.7,4l-4.7,1.3l1.3,2l-1.3,1.3h-3.4  v-2.7l-4.7,3.4l-3.4-1.3l3.4,1.3l1.3-3.4l2.7,0.7l-2-3.4l-4-0.7l4,0.7l4.7,4.7l2-1.3l-0.7-2L526,39.7z M113.1,12.8l-0.7,4.7  l-1.3-4.7H113.1z M198.7,20.9l1.3,1.3h-4l1.3,0.7l-1.3,2l0.7-1.3l-2.7-2.7L198.7,20.9z M71.4,161.6l2,3.4l-2.7,3.4l2.7-1.3l2.7,4  l-2.7-3.4l-3.4,0.7l2.7-3.4l-3.4-1.3L71.4,161.6z M306.4,0l2-1.3l4,0.7h-4.7l-2,3.4l-1.3-2V2h-4.7L306.4,0z M48.5,183.9l2.7,4  l2.7,0.7l-3.4,1.3v-2l-3.4,3.4l-4,0.7l6.1-2.7L48.5,183.9z M162.3,69.4l1.3-0.7l-2-4L165,68l-0.7,4L162.3,69.4z M332,80.8l2.7-2  l0.7,5.4l-2-2.7l-4,1.3v3.4l-5.4,1.3l4-0.7l1.3-3.4l-2-1.3L332,80.8z M456,101l0.7-4l1.3,1.3l-1.3,2.7l3.4,0.7l0.7,4l4-5.4l-2.7,4  l2,2.7l-3.4-1.3l0.7,5.4l-3.4-2h1.3v-4.7l-4.7-0.7l4-0.7l-0.7-2.7L456,101z M392.7,75.4l3.4,0.7l-1.3-4l1.3,2l2.7-2l-3.4,5.4l4,0.7  l-5.4,1.3l0.7-2.7L392.7,75.4z M295,52.5l-0.7-2.7l-5.4-4.7l2,1.3l0.7-2l2,4l2.7-1.3l-1.3,1.3l1.3,4.7l3.4,0.7l3.4,5.4l2-0.7l-1.3-4  l3.4,3.4l-4,2.7h-2.7v-4l-2.7,2.7l2-2.7l-4-1.3L295,52.5z M222.9,77.5l0.7-2.7l1.3,3.4l-4,1.3l-8.8-3.4l4,2L222.9,77.5z M221.6,68  l-1.3-0.7l2,0.7l4-2l0.7-2.7v3.4l3.4,1.3l2.7-2.7l0.7,2H231l-2,3.4l1.3-2l-2-2L221.6,68z"/>
<g id="g26" transform="matrix(0.93184356,0,0,0.93184356,25.385791,371.47185)">
	<rect id="rect30" x="-19.5" y="-364.7" width="47.6" height="2.1"/>
	<text id="text32" transform="matrix(1.0731 0 0 1.0731 -14.453 -344.9647)" class="st7 st8">10km</text>
</g>
</g>
                    </g>
                  </g>
                  <g transform="translate(321, 215) scale(1 1) translate(0, 0) scale(0.2 0.2)  rotate(0.000000 44.715225 18.500000)">
                    <g transform="translate(0, 0) scale(1 1) ">
                      <g id="Layer_2" data-name="Layer 2">
                        <g id="drawing">
                          <circle cx="44.71522" cy="18.5" r="18" style="fill:#f7931e;stroke:red;stroke-miterlimit:10"/>
                          <polygon points="88.016 79.7 44.715 44.7 1.414 79.7 26.818 79.7 26.818 151.58 62.612 151.58 62.612 79.7 88.016 79.7" style="fill:#f0f;stroke:blue;stroke-miterlimit:10"/>
                        </g>
                      </g>
                    </g>
                  </g>
                </g>
                <g transform="translate(374, 258) scale(1 1) translate(0, 0) scale(0.2 0.2)  rotate(-180.000000 44.715225 18.500000)">
                  <g transform="translate(0, 0) scale(1 1) ">
                    <g id="Layer_2" data-name="Layer 2">
                      <g id="drawing">
                        <circle cx="44.71522" cy="18.5" r="18" style="fill:#f7931e;stroke:red;stroke-miterlimit:10"/>
                        <polygon points="88.016 79.7 44.715 44.7 1.414 79.7 26.818 79.7 26.818 151.58 62.612 151.58 62.612 79.7 88.016 79.7" style="fill:#f0f;stroke:blue;stroke-miterlimit:10"/>
                      </g>
                    </g>
                  </g>
                </g>
              </g>
              <g transform="translate(214, 301) scale(1 1) translate(0, 0) scale(0.2 0.2)  rotate(-90.000000 44.715225 18.500000)">
                <g transform="translate(0, 0) scale(1 1) ">
                  <g id="Layer_2" data-name="Layer 2">
                    <g id="drawing">
                      <circle cx="44.71522" cy="18.5" r="18" style="fill:#f7931e;stroke:red;stroke-miterlimit:10"/>
                      <polygon points="88.016 79.7 44.715 44.7 1.414 79.7 26.818 79.7 26.818 151.58 62.612 151.58 62.612 79.7 88.016 79.7" style="fill:#f0f;stroke:blue;stroke-miterlimit:10"/>
                    </g>
                  </g>
                </g>
              </g>
            </g>
            <g transform="translate(267, 323) scale(1 1) translate(0, 0) scale(0.2 0.2)  rotate(-270.000000 44.715225 18.500000)">
              <g transform="translate(0, 0) scale(1 1) ">
                <g id="Layer_2" data-name="Layer 2">
                  <g id="drawing">
                    <circle cx="44.71522" cy="18.5" r="18" style="fill:#f7931e;stroke:red;stroke-miterlimit:10"/>
                    <polygon points="88.016 79.7 44.715 44.7 1.414 79.7 26.818 79.7 26.818 151.58 62.612 151.58 62.612 79.7 88.016 79.7" style="fill:#f0f;stroke:blue;stroke-miterlimit:10"/>
                  </g>
                </g>
              </g>
            </g>
          </g>
          <g transform="translate(428, 215) scale(1 1) translate(0, 0) scale(0.2 0.2)  rotate(-45.000000 44.715225 18.500000)">
            <g transform="translate(0, 0) scale(1 1) ">
              <g id="Layer_2" data-name="Layer 2">
                <g id="drawing">
                  <circle cx="44.71522" cy="18.5" r="18" style="fill:#f7931e;stroke:red;stroke-miterlimit:10"/>
                  <polygon points="88.016 79.7 44.715 44.7 1.414 79.7 26.818 79.7 26.818 151.58 62.612 151.58 62.612 79.7 88.016 79.7" style="fill:#f0f;stroke:blue;stroke-miterlimit:10"/>
                </g>
              </g>
            </g>
          </g>
        </g>
        <g transform="translate(374, 287) scale(1 1) translate(0, 0) scale(0.2 0.2)  rotate(-225.000000 44.715225 18.500000)">
          <g transform="translate(0, 0) scale(1 1) ">
            <g id="Layer_2" data-name="Layer 2">
              <g id="drawing">
                <circle cx="44.71522" cy="18.5" r="18" style="fill:#f7931e;stroke:red;stroke-miterlimit:10"/>
                <polygon points="88.016 79.7 44.715 44.7 1.414 79.7 26.818 79.7 26.818 151.58 62.612 151.58 62.612 79.7 88.016 79.7" style="fill:#f0f;stroke:blue;stroke-miterlimit:10"/>
              </g>
            </g>
          </g>
        </g>
      </g>
      <g transform="translate(107, 387) scale(1 1) translate(0, 0) scale(0.2 0.2)  rotate(-135.000000 44.715225 18.500000)">
        <g transform="translate(0, 0) scale(1 1) ">
          <g id="Layer_2" data-name="Layer 2">
            <g id="drawing">
              <circle cx="44.71522" cy="18.5" r="18" style="fill:#f7931e;stroke:red;stroke-miterlimit:10"/>
              <polygon points="88.016 79.7 44.715 44.7 1.414 79.7 26.818 79.7 26.818 151.58 62.612 151.58 62.612 79.7 88.016 79.7" style="fill:#f0f;stroke:blue;stroke-miterlimit:10"/>
            </g>
          </g>
        </g>
      </g>
    </g>
    <g transform="translate(214, 344) scale(1 1) translate(0, 0) scale(0.2 0.2)  rotate(-315.000000 44.715225 18.500000)">
      <g transform="translate(0, 0) scale(1 1) ">
        <g id="Layer_2" data-name="Layer 2">
          <g id="drawing">
            <circle cx="44.71522" cy="18.5" r="18" style="fill:#f7931e;stroke:red;stroke-miterlimit:10"/>
            <polygon points="88.016 79.7 44.715 44.7 1.414 79.7 26.818 79.7 26.818 151.58 62.612 151.58 62.612 79.7 88.016 79.7" style="fill:#f0f;stroke:blue;stroke-miterlimit:10"/>
          </g>
        </g>
      </g>
    </g>
  </g>
</svg>
